<?xml version="1.0" standalone="no"?>
<!DOCTYPE svg PUBLIC "-//W3C//DTD SVG 20010904//EN"
 "http://www.w3.org/TR/2001/REC-SVG-20010904/DTD/svg10.dtd">
<svg version="1.0" xmlns="http://www.w3.org/2000/svg"
 width="300" height="300" viewBox="0 0 300.000000 300.000000"
 preserveAspectRatio="xMidYMid meet">
<metadata>
Created by potrace 1.10, written by Peter Selinger 2001-2011
</metadata>
<g transform="translate(0.000000,300.000000) scale(0.100000,-0.100000)"
fill="currentColor" stroke="none">
<path d="M1350 2899 c-19 -4 -68 -13 -109 -19 -101 -15 -272 -73 -356 -121
-171 -97 -343 -234 -452 -358 -220 -250 -344 -544 -384 -912 -28 -259 29 -468
166 -606 34 -34 74 -65 89 -69 27 -6 36 -24 12 -24 -22 0 -268 -108 -288 -127
-14 -12 -18 -31 -18 -80 0 -99 33 -144 149 -205 60 -31 71 -33 160 -33 53 0
111 4 129 8 29 8 32 6 32 -13 0 -16 14 -28 57 -48 53 -25 68 -27 183 -27 110
0 135 3 212 28 68 23 90 26 106 18 28 -15 42 -14 42 4 0 8 -9 15 -19 15 -11 0
-22 4 -26 10 -3 5 -13 6 -22 3 -11 -4 -14 -2 -11 8 3 8 1 27 -3 43 -9 30 -1
44 38 64 32 17 60 15 83 -8 27 -27 25 -59 -5 -100 -29 -39 -31 -50 -10 -50 8
0 43 -16 77 -35 80 -43 170 -59 213 -38 17 9 33 20 37 26 7 12 23 13 158 16
61 2 123 -4 173 -15 102 -22 145 -13 168 35 11 23 18 30 24 22 5 -8 18 -11 37
-7 18 3 38 0 51 -9 54 -35 239 -27 354 16 56 22 63 28 72 69 l6 26 85 -13
c133 -20 223 -1 328 66 44 29 64 50 80 85 25 52 30 137 9 154 -7 6 -62 27
-121 47 -85 28 -233 96 -265 122 -3 2 5 10 16 18 23 16 96 109 136 173 66 104
104 292 93 457 -15 222 -85 411 -240 648 -45 69 -53 87 -49 116 5 32 0 39
-132 167 -80 78 -145 134 -156 134 -11 0 -51 24 -90 53 -149 114 -419 237
-583 266 -68 12 -184 12 -236 0z m370 -92 c147 -49 386 -175 468 -246 l33 -29
-31 -61 -31 -62 -47 39 c-26 21 -69 54 -97 72 -27 19 -66 49 -87 68 -28 26
-44 33 -61 28 -13 -3 -75 -42 -138 -87 -63 -44 -126 -88 -141 -97 -16 -9 -28
-24 -28 -33 0 -24 166 -164 311 -261 35 -24 64 -48 66 -54 4 -12 -133 -180
-212 -258 -30 -31 -55 -62 -55 -69 0 -17 105 -121 159 -157 23 -16 58 -43 78
-61 41 -35 122 -89 135 -89 16 0 107 91 150 150 23 32 45 57 49 54 4 -2 13 4
20 14 13 15 12 16 -3 3 -10 -7 -18 -10 -18 -7 0 13 52 76 59 72 9 -6 91 -143
91 -152 0 -4 -8 0 -17 7 -16 13 -17 12 -5 -3 8 -10 17 -16 22 -15 7 2 80 -96
80 -109 0 -15 43 -64 56 -64 7 0 25 22 38 49 14 26 54 92 90 145 36 53 66 105
66 115 0 40 -136 254 -217 342 -24 26 -24 28 -9 57 9 17 16 38 16 47 0 49 60
-34 144 -200 59 -116 71 -143 90 -210 96 -332 52 -576 -139 -773 -44 -45 -87
-82 -95 -82 -9 0 -51 21 -95 46 -44 26 -106 62 -139 80 -32 19 -72 46 -88 60
-32 26 -62 43 -140 81 -82 38 -52 7 40 -42 48 -26 92 -53 97 -60 6 -7 57 -43
115 -80 58 -37 123 -80 145 -95 70 -48 317 -167 395 -190 41 -12 81 -27 88
-32 6 -6 12 -27 12 -47 0 -91 -157 -171 -336 -171 -105 0 -254 37 -343 86 -84
46 -173 112 -166 124 3 5 0 12 -6 16 -8 4 -9 3 -5 -4 4 -7 2 -12 -3 -12 -16 0
-92 101 -134 176 l-37 66 25 33 c39 50 58 118 52 184 -7 79 -34 167 -62 199
-33 38 -84 34 -215 -15 -65 -25 -139 -45 -195 -52 -49 -7 -115 -17 -145 -23
-30 -6 -68 -10 -85 -10 -37 1 -178 -31 -260 -59 -57 -20 -161 -69 -305 -143
-100 -52 -173 -71 -270 -71 -72 0 -93 4 -141 28 -31 15 -75 46 -99 69 -23 24
-38 34 -32 23 18 -35 75 -82 138 -114 56 -28 67 -30 141 -26 44 2 98 11 118
20 57 23 54 10 -6 -28 -130 -82 -128 -82 -189 -64 -109 32 -197 137 -257 306
-35 102 -44 309 -19 446 39 209 150 474 271 645 109 155 323 347 513 459 79
48 210 95 332 122 70 16 116 18 255 15 149 -3 179 -7 245 -29z m245 -296 c315
-216 383 -286 683 -714 l54 -78 -19 -22 c-27 -30 -123 -172 -123 -183 -1 -5
-10 -20 -21 -33 -17 -21 -22 -22 -30 -10 -5 7 -9 18 -9 22 0 11 -168 264 -180
272 -6 4 -7 11 -4 17 4 5 -47 62 -112 126 -65 65 -110 110 -99 103 11 -8 -2 9
-30 38 -27 29 -77 72 -110 95 -58 42 -95 65 -85 54 6 -6 120 -99 175 -141 20
-16 34 -32 31 -35 -4 -3 -19 7 -34 21 -16 15 -34 27 -41 27 -7 0 31 -42 85
-92 53 -51 114 -114 135 -141 21 -26 40 -43 43 -38 4 5 -6 24 -20 43 -14 18
-8 13 15 -12 36 -40 38 -45 22 -52 -10 -3 -41 -37 -68 -75 -28 -37 -82 -102
-120 -143 l-70 -74 -69 54 c-38 29 -110 90 -161 134 -72 62 -89 82 -79 90 7 6
25 27 39 46 14 19 51 62 82 95 30 33 73 86 95 117 l40 56 -72 71 c-73 70 -100
91 -236 190 l-72 53 68 42 c37 24 97 65 133 93 35 28 68 48 74 45 5 -3 46 -31
90 -61z m416 -87 c141 -143 138 -136 98 -267 l-21 -68 -49 65 c-26 35 -88 100
-136 143 l-88 79 22 39 c12 22 28 61 35 88 6 26 12 47 13 47 1 0 58 -57 126
-126z m-479 -1131 c41 -47 52 -87 53 -183 0 -86 -3 -101 -30 -155 -35 -69 -96
-121 -178 -150 -108 -39 -309 -8 -421 66 -89 59 -156 171 -156 261 0 17 -4 27
-10 23 -5 -3 -10 -17 -10 -31 0 -40 -127 -277 -203 -379 -101 -135 -238 -236
-422 -311 -210 -86 -387 -42 -456 112 -34 75 -32 76 241 190 63 26 148 71 190
100 239 168 344 224 545 292 125 42 300 70 435 70 62 0 107 12 265 72 28 10
66 21 85 24 35 6 35 6 13 -12 -12 -9 -38 -46 -59 -82 -47 -82 -133 -165 -203
-198 -62 -29 -219 -42 -285 -23 -53 14 -59 5 -10 -15 50 -22 183 -22 256 0
102 29 204 117 262 227 35 67 69 119 77 119 3 0 13 -8 21 -17z m-635 -414
c100 -76 236 -129 329 -129 67 0 180 26 219 50 17 10 41 30 54 44 27 29 41 33
41 12 0 -16 64 -132 86 -157 15 -16 20 -129 8 -188 -5 -25 -11 -31 -34 -31
-45 0 -74 -41 -75 -109 -1 -32 -5 -63 -9 -70 -4 -6 -34 -11 -73 -11 -49 0 -74
5 -99 21 -28 17 -40 19 -63 11 -46 -16 -213 2 -254 27 -49 30 -56 26 -19 -12
37 -38 35 -63 -5 -73 -39 -10 -93 3 -170 42 l-72 36 14 29 c22 41 19 57 -19
95 -41 41 -64 43 -106 8 -17 -15 -33 -24 -36 -21 -3 3 -12 29 -20 58 -27 103
0 211 90 354 32 50 67 111 79 137 l21 46 32 -66 c24 -49 45 -77 81 -103z
m-877 -69 c0 -5 -9 -14 -19 -19 -15 -9 -20 -7 -24 9 -4 16 0 20 19 20 13 0 24
-4 24 -10z m522 -198 c-6 -72 15 -157 49 -196 16 -19 29 -38 29 -43 0 -31
-148 -64 -292 -64 -84 0 -188 22 -188 40 0 24 43 56 135 100 91 43 116 61 183
129 42 43 80 79 83 80 3 1 4 -20 1 -46z m1273 -74 c44 -29 100 -61 125 -71 73
-30 92 -41 104 -60 16 -25 -3 -49 -50 -65 -56 -19 -239 -27 -292 -13 -41 12
-42 13 -27 34 20 28 19 50 -3 77 -17 21 -17 27 -4 64 9 26 12 61 9 95 l-6 54
32 -31 c18 -17 68 -54 112 -84z m-163 -108 c17 -23 17 -30 6 -65 -13 -41 -34
-53 -66 -39 -9 4 -23 6 -29 5 -12 -2 -18 30 -14 73 5 56 69 72 103 26z"/>
<path d="M1219 2616 l-72 -64 -24 28 c-17 21 -39 32 -80 40 -71 15 -127 1
-182 -46 -21 -19 -44 -34 -50 -34 -6 0 -11 -4 -11 -10 0 -5 4 -10 9 -10 5 0 3
-12 -4 -27 -15 -31 -22 -123 -11 -141 4 -7 2 -12 -5 -12 -19 0 39 -57 72 -70
15 -7 30 -19 32 -28 3 -11 5 -9 6 7 1 20 3 21 16 11 10 -9 15 -9 15 -1 0 6 12
11 26 11 16 0 23 4 18 11 -4 7 -1 10 6 7 8 -2 22 4 33 15 10 10 25 16 34 13
10 -4 13 -2 10 8 -3 8 7 21 29 32 19 10 33 25 31 34 -1 8 4 14 11 12 8 -1 11
2 8 7 -4 5 0 28 8 50 7 23 10 41 5 41 -21 0 25 62 88 119 37 34 65 61 61 61
-4 0 -39 -29 -79 -64z m-144 -30 c63 -27 67 -126 7 -197 -43 -51 -125 -99
-170 -99 -120 0 -147 160 -44 258 55 51 138 66 207 38z"/>
<path d="M1613 2639 c-20 -21 -22 -21 -69 -5 -26 9 -49 14 -51 12 -3 -2 18
-11 46 -21 49 -16 51 -16 81 6 16 13 30 24 30 26 0 9 -18 0 -37 -18z"/>
<path d="M1619 2238 c8 -10 17 -35 21 -56 8 -37 8 -37 9 -5 1 21 -7 40 -21 55
-13 13 -17 16 -9 6z"/>
<path d="M724 2240 c-25 -10 -51 -44 -88 -117 -24 -49 -29 -53 -64 -54 l-37
-1 30 -9 c43 -13 52 -6 79 54 25 56 46 80 46 52 0 -8 5 -24 12 -34 11 -18 12
-18 45 1 18 11 33 26 33 34 0 11 16 14 65 14 60 0 80 9 55 25 -5 3 -10 1 -10
-4 0 -6 -18 -11 -40 -11 -29 0 -48 7 -72 29 -25 22 -38 27 -54 21z m44 -43 c4
-18 -33 -67 -50 -67 -14 0 -20 48 -8 70 14 26 53 24 58 -3z"/>
<path d="M1161 2116 c-1 -22 10 -40 48 -77 26 -27 53 -49 58 -49 6 0 37 20 69
45 68 53 63 61 -6 10 -26 -19 -54 -35 -62 -35 -21 0 -96 81 -101 110 -4 23 -4
23 -6 -4z"/>
<path d="M1576 2071 l-16 -31 -56 21 c-30 12 -57 19 -60 16 -5 -5 93 -47 112
-47 14 0 49 58 40 67 -2 3 -12 -9 -20 -26z"/>
<path d="M444 2058 c-3 -5 13 -8 35 -8 22 0 42 4 45 8 2 4 -13 8 -36 7 -22 0
-42 -3 -44 -7z"/>
<path d="M287 1830 c-47 -37 -68 -96 -65 -179 2 -41 8 -76 14 -78 16 -5 87 61
128 119 l37 54 -17 34 c-21 44 -43 70 -59 70 -7 0 -24 -9 -38 -20z m77 -39
c18 -32 18 -35 2 -65 -23 -43 -103 -129 -114 -122 -5 3 -12 28 -16 56 -5 40
-2 58 15 92 44 87 78 99 113 39z"/>
<path d="M137 1633 c-9 -53 -9 -75 2 -69 5 3 7 15 4 25 -3 10 0 28 5 38 6 11
7 25 3 32 -5 8 -10 -1 -14 -26z"/>
<path d="M2735 1464 c0 -113 -4 -177 -11 -182 -6 -4 -8 -18 -4 -32 6 -21 9
-15 20 35 18 79 16 332 -2 351 -2 1 -3 -76 -3 -172z"/>
<path d="M1960 891 c19 -37 151 -164 217 -209 129 -88 244 -127 344 -119 47 4
68 2 66 -5 -5 -26 263 5 323 38 36 19 10 17 -106 -7 -65 -13 -120 -19 -159
-16 -33 3 -96 8 -140 11 -95 7 -158 27 -239 74 -101 59 -157 102 -240 181 -43
42 -73 65 -66 52z"/>
<path d="M1951 850 c13 -29 117 -170 125 -170 6 0 -18 36 -71 105 -16 22 -38
52 -48 65 l-18 25 12 -25z"/>
<path d="M2646 718 c5 -7 -5 -9 -28 -6 -30 3 -35 1 -33 -17 0 -11 -3 -27 -9
-35 -8 -12 -7 -13 3 -4 10 9 23 6 54 -12 28 -16 57 -24 87 -23 l45 1 -50 12
c-57 14 -115 42 -115 55 0 10 111 -13 142 -30 26 -14 33 -6 11 13 -24 20 -116
60 -107 46z"/>
<path d="M2416 1995 c-10 -38 -25 -83 -33 -98 -25 -49 -6 -42 25 9 17 27 39
59 51 72 19 21 19 22 1 22 -14 0 -20 8 -22 33 -3 27 -6 22 -22 -38z"/>
<path d="M935 843 c-103 -112 -255 -233 -349 -278 -84 -40 -210 -75 -270 -75
-50 0 -127 20 -183 48 -48 23 -57 13 -16 -16 114 -79 320 -64 510 38 90 47
183 121 274 218 69 73 131 153 117 152 -2 -1 -39 -40 -83 -87z"/>
<path d="M1865 904 c-39 -31 -118 -66 -189 -84 -39 -10 -59 -19 -45 -19 60 -2
215 63 249 104 16 19 10 19 -15 -1z"/>
<path d="M297 674 c3 -8 -10 -17 -36 -25 -22 -7 -48 -20 -56 -29 -12 -14 -1
-12 60 9 41 14 75 28 75 31 0 3 -11 10 -24 16 -19 9 -23 9 -19 -2z"/>
<path d="M357 644 c-3 -4 -41 -19 -84 -35 -79 -28 -73 -40 8 -16 50 16 122 57
98 57 -9 0 -19 -3 -22 -6z"/>
<path d="M195 436 c42 -20 139 -28 205 -17 53 10 53 10 -20 5 -67 -4 -136 3
-195 20 -11 4 -6 0 10 -8z"/>
<path d="M1100 873 c-34 -31 -70 -74 -81 -95 -27 -52 -17 -48 15 6 15 26 53
64 91 92 36 26 65 49 65 51 0 2 -6 3 -14 3 -8 0 -42 -26 -76 -57z"/>
<path d="M1186 768 c-9 -36 -7 -56 7 -55 34 4 147 -16 147 -25 0 -6 3 -8 6 -5
4 4 1 14 -7 23 -12 15 -12 17 1 12 20 -6 25 -38 8 -49 -18 -12 -31 -11 -23 1
8 13 -33 13 -112 -2 -51 -9 -63 -15 -58 -27 14 -35 16 -69 6 -75 -26 -16 0
-107 34 -120 28 -11 43 -7 74 20 37 31 42 81 11 109 -24 22 -25 17 -5 -21 19
-37 1 -68 -42 -72 -42 -4 -66 21 -57 62 3 17 9 34 13 37 9 10 176 59 200 59
22 0 29 24 10 36 -6 3 -8 17 -5 30 4 16 1 26 -12 33 -15 8 -171 51 -185 51 -3
0 -7 -10 -11 -22z"/>
<path d="M1805 753 c-97 -28 -100 -30 -102 -73 -3 -44 -3 -43 127 -71 30 -6
64 -16 74 -21 16 -9 18 -7 12 7 -3 9 -9 28 -12 41 -6 22 -18 28 -86 38 -35 5
-28 14 21 26 28 7 51 14 51 16 0 10 -24 54 -29 53 -3 -1 -28 -8 -56 -16z m-14
-50 c-7 -14 -5 -23 11 -40 l21 -22 -29 5 c-30 5 -54 21 -54 35 0 13 30 39 46
39 11 0 13 -4 5 -17z"/>
<path d="M1783 578 c-29 -36 -25 -58 15 -98 42 -42 66 -49 96 -27 21 15 33 92
16 102 -6 4 -10 -4 -10 -19 0 -32 -30 -49 -74 -40 -40 7 -49 24 -35 60 11 30
7 41 -8 22z"/>
<path d="M1700 340 c0 -5 8 -10 18 -10 9 0 26 -7 36 -15 11 -8 24 -15 30 -15
5 0 -5 11 -24 25 -35 26 -60 32 -60 15z"/>
<path d="M2500 377 c3 -3 43 -26 89 -50 l84 -45 -26 -17 c-37 -24 -120 -43
-212 -50 -164 -11 -255 -24 -302 -45 -110 -49 -213 -64 -428 -62 -110 0 -274
6 -365 13 -91 6 -201 13 -245 15 -44 2 -123 8 -175 13 -52 6 -142 13 -200 17
-151 9 -251 29 -272 54 -19 24 -14 47 17 72 27 22 10 36 -22 18 -39 -22 -49
-44 -35 -75 26 -56 153 -89 408 -106 93 -6 183 -12 199 -13 72 -7 239 -16 500
-27 213 -9 296 -9 346 -1 36 7 86 12 110 12 56 0 147 23 218 55 41 19 81 27
175 34 254 19 364 55 330 108 -16 26 -105 71 -154 79 -25 4 -43 4 -40 1z"/>
<path d="M2106 215 c-11 -8 -15 -15 -10 -15 6 0 14 4 20 9 5 5 27 11 49 14
l40 4 -40 1 c-22 1 -49 -5 -59 -13z"/>
</g>
</svg>
