<?xml version="1.0" standalone="no"?>
<!DOCTYPE svg PUBLIC "-//W3C//DTD SVG 20010904//EN"
 "http://www.w3.org/TR/2001/REC-SVG-20010904/DTD/svg10.dtd">
<svg version="1.0" xmlns="http://www.w3.org/2000/svg"
 width="300" height="300" viewBox="0 0 300.000000 300.000000"
 preserveAspectRatio="xMidYMid meet">
<metadata>
Created by potrace 1.10, written by Peter Selinger 2001-2011
</metadata>
<g transform="translate(0.000000,300.000000) scale(0.100000,-0.100000)"
fill="currentColor" stroke="none">
<path d="M1146 2963 c-32 -34 -50 -109 -49 -199 l0 -72 -43 28 c-41 25 -112
47 -284 86 -86 19 -164 52 -199 82 -57 52 -82 -34 -63 -219 13 -121 41 -205
86 -257 30 -35 31 -35 6 -28 -64 19 -70 19 -70 -3 0 -51 48 -123 94 -140 16
-6 11 -12 -30 -35 -26 -15 -70 -34 -97 -43 -66 -21 -61 -45 17 -89 l58 -32
-55 -16 c-90 -26 -155 -22 -210 15 -51 34 -76 33 -79 -3 0 -13 -2 -30 -3 -38
-2 -29 17 -84 41 -116 32 -41 112 -76 194 -83 l65 -6 -65 -65 c-36 -36 -89
-78 -118 -94 -53 -28 -54 -28 -98 -11 -28 11 -60 35 -87 66 -23 27 -50 49 -60
49 -42 0 -63 -139 -31 -207 22 -45 65 -76 139 -98 71 -22 154 -22 215 -1 24 8
45 14 47 12 6 -6 -48 -71 -74 -88 -16 -10 -44 -18 -65 -18 -44 0 -51 -14 -27
-61 20 -41 54 -59 109 -59 30 0 43 -6 63 -30 l25 -29 -25 -62 c-23 -58 -24
-65 -10 -88 8 -14 25 -31 36 -37 l21 -11 -21 -27 c-24 -30 -49 -105 -49 -146
0 -58 30 -128 75 -174 l44 -46 -24 -36 c-38 -55 -50 -103 -33 -121 21 -20 89
-35 105 -22 6 6 17 43 24 82 l12 72 67 0 c42 0 74 6 84 14 9 8 18 12 19 10 1
-2 17 -23 36 -47 l33 -44 -22 -15 c-56 -39 -69 -185 -24 -276 14 -28 31 -63
37 -77 8 -16 39 -38 86 -61 67 -33 80 -37 135 -32 33 3 68 9 78 14 12 7 25 5
40 -5 20 -13 56 -14 243 -7 121 4 233 4 250 -1 16 -4 64 -8 106 -8 60 0 78 3
83 15 4 11 13 14 30 9 26 -6 139 26 170 49 13 10 35 11 87 4 52 -7 72 -7 84 3
17 14 20 56 4 65 -6 5 -3 12 10 21 28 20 45 84 27 103 -12 11 -11 18 5 45 10
17 19 38 19 48 0 13 7 15 40 11 73 -10 130 52 130 143 0 62 -16 81 -49 58 -41
-29 -41 -1 -1 86 53 116 64 210 56 491 -9 324 -22 441 -63 602 l-25 98 41 36
c94 80 115 198 46 263 -29 27 -50 21 -58 -17 -7 -35 -48 -78 -87 -92 -28 -9
-31 -7 -62 36 -17 26 -58 73 -91 105 l-59 58 26 31 c30 35 39 63 34 109 -5 50
-27 57 -77 26 -37 -24 -43 -25 -56 -12 -9 8 -24 17 -35 21 -15 5 -20 17 -22
57 -2 28 -8 53 -14 55 -6 2 -23 -8 -38 -22 -27 -25 -46 -32 -46 -17 0 4 4 12
9 18 32 35 52 234 31 309 -16 57 -41 67 -78 30 -26 -26 -111 -75 -130 -75 -5
0 -15 13 -22 29 -11 28 -66 65 -82 55 -4 -3 -8 -15 -8 -27 -1 -55 -97 -157
-149 -157 -31 0 -26 13 24 64 27 28 45 56 45 70 0 26 -38 66 -64 66 -62 0
-138 -80 -151 -161 -6 -36 -9 -39 -40 -39 -32 0 -34 2 -54 63 -12 35 -24 88
-27 118 -3 30 -7 65 -9 79 -2 14 -4 31 -4 38 -2 22 -49 13 -75 -15z m44 -54
c0 -57 28 -178 51 -217 12 -21 17 -42 13 -58 -3 -13 -7 -24 -8 -24 -1 0 -23 7
-49 16 -54 18 -60 35 -59 160 1 78 23 164 43 164 5 0 9 -18 9 -41z m-511 -129
c25 -10 89 -25 141 -34 140 -24 194 -41 236 -72 l37 -29 -41 -7 c-125 -21
-202 -136 -188 -282 l6 -61 -42 -27 c-29 -18 -46 -23 -54 -17 -7 5 -24 7 -38
3 -37 -9 -92 13 -131 53 -38 39 -45 59 -17 48 20 -8 175 -25 180 -20 2 2 -19
13 -47 25 -127 55 -190 211 -182 458 l1 43 47 -32 c25 -18 67 -40 92 -49z
m849 48 c8 -8 1 -22 -29 -56 -21 -25 -43 -59 -47 -75 -7 -25 -13 -30 -41 -31
-32 -1 -32 0 -26 34 18 97 100 171 143 128z m403 -40 c0 -24 2 -52 4 -62 6
-32 -12 -159 -27 -196 l-15 -35 -13 40 c-7 22 -23 55 -37 73 -24 32 -89 72
-118 72 -13 0 -14 4 -5 21 6 11 19 23 28 26 44 14 123 58 143 79 32 34 39 30
40 -18z m-216 -19 c9 -41 -12 -89 -39 -89 -11 0 -39 -8 -61 -18 -22 -10 -49
-16 -60 -14 -17 4 -15 7 12 21 40 21 113 107 113 133 0 30 27 5 35 -33z m55
-129 c68 -35 122 -140 119 -232 -2 -38 -5 -48 -16 -43 -8 3 -18 5 -22 5 -5 0
-11 30 -15 67 -9 82 -28 126 -72 160 -27 20 -41 24 -67 19 -20 -4 -47 -1 -67
8 l-33 13 29 11 c46 17 102 14 144 -8z m-208 -20 c86 -26 141 -74 167 -146 28
-74 28 -98 -1 -90 -13 3 -31 6 -40 6 -12 0 -18 8 -18 24 0 14 -4 36 -10 50 -9
25 -13 26 -87 26 -111 0 -327 -34 -403 -64 -55 -21 -60 -25 -34 -26 26 0 33
-5 38 -26 8 -31 10 -28 -31 -42 -31 -10 -32 -10 -43 24 -21 61 -15 105 15 132
24 20 33 22 85 16 54 -6 61 -4 84 19 30 30 34 78 9 98 -15 13 -13 15 13 21 47
11 187 0 256 -22z m-363 -13 c58 -24 78 -44 68 -71 -6 -14 -11 -13 -43 9 -92
63 -187 57 -247 -14 -37 -44 -50 -102 -44 -189 4 -59 3 -74 -9 -79 -21 -8 -24
-2 -34 68 -21 142 31 243 146 284 55 20 101 18 163 -8z m86 -1 c9 -13 12 -31
9 -41 -6 -14 -9 -11 -20 15 -23 53 -16 68 11 26z m469 -27 c26 -21 47 -54 60
-95 5 -18 2 -21 -23 -22 -24 0 -30 4 -36 26 -3 15 -19 44 -36 64 -16 20 -29
39 -29 42 0 14 40 4 64 -15z m-636 -25 c-36 -19 -66 -79 -74 -148 -6 -46 -10
-56 -26 -56 -11 0 -28 -5 -40 -11 -26 -14 -30 -8 -30 40 1 84 41 159 97 182
11 4 38 8 60 8 l40 0 -27 -15z m100 -22 c12 -8 21 -17 18 -19 -9 -9 -57 11
-66 28 -9 15 -8 17 7 12 10 -4 28 -13 41 -21z m-60 0 c2 -7 -2 -12 -9 -12 -7
0 -21 -8 -31 -17 -18 -16 -18 -16 -12 3 15 42 42 55 52 26z m842 -54 c0 -27
-16 -39 -40 -30 l-24 9 29 15 c17 9 31 16 33 17 1 1 2 -5 2 -11z m-356 -23 c3
-8 2 -14 -2 -14 -4 1 -37 1 -74 0 -53 -1 -68 -4 -68 -16 0 -11 -10 -15 -37
-14 l-38 2 35 7 c81 17 -22 9 -135 -10 -139 -24 -145 -24 -145 -6 0 39 449 89
464 51z m178 -30 c5 -22 2 -25 -23 -25 -21 0 -29 5 -29 18 0 40 45 46 52 7z
m140 4 c92 -36 145 -89 103 -105 -7 -3 -29 5 -47 19 -18 14 -51 31 -73 38 -32
11 -41 19 -43 42 -4 32 -6 32 60 6z m-372 -9 c0 -5 -16 -10 -35 -10 -19 0 -35
5 -35 10 0 6 16 10 35 10 19 0 35 -4 35 -10z m70 -9 c0 -16 -5 -18 -27 -12
-39 10 -41 31 -4 31 24 0 31 -4 31 -19z m-561 -88 c1 -7 -3 -13 -8 -13 -11 0
-31 56 -30 84 0 15 6 10 19 -19 10 -22 19 -46 19 -52z m310 83 c-2 -2 -20 -6
-39 -10 -25 -4 -31 -3 -20 4 14 9 69 15 59 6z m-81 -11 c-11 -11 -68 -23 -68
-15 0 5 10 11 23 13 35 7 51 7 45 2z m857 -22 c-11 -44 -45 -93 -68 -98 -14
-4 -46 7 -87 29 -36 20 -57 36 -47 36 10 0 31 -10 47 -21 33 -25 60 -19 60 13
1 17 12 29 43 44 57 29 60 28 52 -3z m-675 7 c-125 -9 -241 -43 -315 -93 -36
-25 -39 -25 -68 -10 l-31 15 50 19 c153 59 240 77 379 76 l100 0 -115 -7z
m315 0 c7 -12 -12 -12 -40 0 -18 8 -17 9 7 9 15 1 30 -3 33 -9z m-575 -5 c0
-8 -44 -23 -53 -18 -14 8 4 23 29 23 13 0 24 -2 24 -5z m438 -51 c77 -35 90
-29 19 9 l-42 22 68 3 c163 7 376 -95 500 -241 62 -71 132 -195 157 -274 30
-96 69 -307 79 -423 5 -58 8 -220 6 -360 -2 -274 -6 -304 -62 -413 -17 -34
-22 -57 -18 -77 7 -31 37 -45 67 -29 16 9 18 5 18 -28 0 -46 -45 -103 -82
-103 -45 0 -68 12 -75 39 -3 14 -21 47 -39 72 -19 26 -34 52 -34 58 0 6 -11
17 -25 23 -18 8 -24 16 -19 27 4 9 11 58 15 110 6 59 25 151 54 251 25 86 45
163 45 170 0 7 11 21 24 31 50 39 79 273 57 464 -13 116 -25 156 -88 283 -77
157 -195 256 -349 296 -72 19 -154 21 -154 5 0 -6 9 -9 20 -6 34 9 163 -22
229 -54 144 -71 278 -266 313 -456 17 -93 16 -330 -1 -427 -13 -70 -17 -80
-45 -97 -47 -29 -56 -25 -41 19 18 51 29 202 15 202 -6 0 -10 -27 -10 -68 0
-38 -7 -91 -15 -119 -16 -53 -32 -63 -100 -63 -22 0 -22 1 -9 40 24 70 35 217
28 394 -6 187 -20 263 -61 338 -27 49 -110 135 -120 124 -3 -3 8 -17 25 -31
40 -33 88 -110 108 -171 24 -76 29 -245 10 -334 -53 -251 -183 -445 -373 -557
-52 -30 -97 -53 -99 -50 -6 6 23 105 39 133 7 12 37 41 67 66 37 30 64 63 84
102 15 31 26 60 23 63 -3 3 -14 -12 -25 -34 -58 -113 -157 -179 -262 -174 -23
1 -23 2 14 33 59 49 136 224 135 308 0 14 -8 -6 -19 -45 -19 -75 -51 -154 -74
-187 -14 -20 -15 -19 -34 18 -11 22 -27 64 -37 94 -16 48 -17 63 -6 135 23
147 22 142 11 120 -5 -11 -19 -57 -31 -103 -37 -142 -131 -248 -211 -238 -38
4 -52 -7 -22 -18 30 -11 69 -6 99 14 32 21 115 108 114 118 -5 35 5 26 16 -14
8 -28 28 -75 45 -104 29 -49 30 -54 16 -75 -9 -13 -25 -26 -36 -30 -28 -9 -25
-22 11 -41 25 -12 40 -14 70 -6 38 10 48 5 29 -14 -14 -14 -39 -133 -30 -139
16 -10 147 63 225 127 67 53 155 153 167 189 3 9 36 -3 77 -29 3 -1 -1 -8 -7
-14 -25 -25 -10 -30 73 -23 l85 7 0 -25 c0 -24 -27 -126 -70 -267 -12 -39 -20
-94 -20 -136 0 -72 -17 -114 -46 -114 -8 0 -25 -11 -37 -24 -54 -58 -286 -93
-484 -72 -88 9 -258 56 -313 87 -22 13 -47 33 -55 46 -18 27 -87 66 -130 73
-18 3 -34 14 -42 29 -6 13 -19 29 -28 34 -26 14 -64 0 -71 -28 -16 -63 -146
-31 -194 47 -22 37 -25 80 -9 127 13 36 28 39 55 10 10 -12 39 -32 64 -45 25
-13 38 -23 29 -24 -9 0 -27 -9 -40 -20 -28 -22 -14 -27 15 -5 24 18 46 19 46
3 0 -18 31 -48 49 -48 9 0 22 4 30 9 12 8 12 13 -3 35 -9 14 -22 26 -29 26
-33 0 -99 44 -154 104 -96 102 -130 217 -119 405 5 91 9 107 31 133 14 16 25
34 25 39 0 17 15 9 25 -13 13 -29 59 -44 91 -29 14 6 32 27 40 46 21 51 18
164 -6 225 -24 61 -24 66 -5 73 11 5 13 0 8 -24 -7 -37 19 -69 56 -69 15 0 44
12 64 26 l39 26 -4 66 c-3 58 0 70 19 88 14 14 26 18 35 13 24 -16 35 -9 54
32 18 40 18 42 -1 55 -14 11 -19 27 -19 76 -1 35 -5 71 -10 80 -6 14 5 23 61
51 62 32 172 69 233 80 58 10 146 -5 218 -39z m-634 0 c8 -21 10 -20 -46 -27
-83 -11 -52 28 33 42 4 1 10 -6 13 -15z m-178 -109 c-9 -14 -25 -25 -36 -25
-11 0 -26 -12 -34 -29 -19 -37 -43 -46 -51 -20 -8 25 25 72 79 110 40 29 41
30 50 10 6 -14 4 -28 -8 -46z m241 40 c28 -12 34 -18 25 -27 -16 -16 -15 -63
1 -77 8 -6 17 -8 20 -4 10 9 8 -20 -2 -35 -4 -8 -11 -13 -15 -13 -20 3 -26 0
-21 -9 3 -5 2 -10 -3 -10 -5 0 -14 -12 -21 -27 -11 -23 -10 -29 3 -39 14 -10
14 -13 2 -23 -11 -10 -16 -9 -24 5 -14 25 -35 13 -82 -48 -28 -35 -55 -58 -81
-68 -38 -14 -42 -20 -64 -87 -14 -39 -32 -101 -41 -137 -21 -83 -81 -159 -123
-154 -23 3 -26 7 -25 41 1 20 -3 37 -9 37 -5 0 -8 22 -5 53 4 50 10 61 77 140
40 48 75 87 78 87 6 0 -1 -9 -69 -93 -45 -55 -73 -97 -65 -97 2 0 32 36 67 80
35 44 65 79 67 77 2 -2 -13 -51 -32 -108 -19 -57 -35 -105 -35 -106 0 -2 -13
-3 -30 -3 -25 0 -30 4 -30 25 0 14 -4 25 -9 25 -14 0 3 -62 21 -74 21 -13 68
7 68 30 0 8 11 48 24 87 38 113 45 144 34 155 -6 6 -7 16 -2 23 4 7 6 36 5 64
-4 93 44 233 101 293 29 29 37 32 95 32 35 0 80 -7 100 -15z m-337 -20 c0 -2
-11 -21 -25 -41 -28 -41 -30 -55 -13 -72 10 -9 8 -16 -5 -30 -27 -26 -129 -23
-192 7 -43 20 -47 24 -30 31 54 23 115 53 165 80 48 26 100 39 100 25z m390
-51 c0 -13 -4 -24 -9 -24 -13 0 -24 37 -16 50 10 16 25 1 25 -26z m-333 -49
c-6 -19 -14 -35 -19 -35 -11 0 -10 14 4 45 17 37 28 30 15 -10z m1673 -39 c17
-54 -3 -112 -56 -163 -24 -24 -48 -43 -52 -43 -4 0 -18 24 -31 53 -14 28 -26
55 -28 58 -2 4 12 10 32 13 45 9 105 67 105 102 0 33 16 22 30 -20z m-1716 2
c11 -10 6 -20 -28 -50 -46 -41 -58 -47 -49 -20 7 20 52 82 59 82 3 0 11 -6 18
-12z m391 -28 c26 -10 26 -14 -3 -59 -9 -13 -17 -10 -70 25 -2 1 1 12 8 23 12
23 26 26 65 11z m-406 -47 c-89 -74 -84 -68 -71 -98 7 -14 18 -25 25 -23 19 7
57 69 57 94 0 13 5 26 11 30 8 5 9 -9 4 -47 -4 -30 -8 -54 -9 -55 0 0 -15 -10
-33 -22 -41 -29 -48 -28 -63 9 -16 39 -5 61 58 111 54 42 71 43 21 1z m-73 4
c-1 -13 -10 -34 -19 -47 -9 -14 -17 -32 -17 -41 0 -9 -7 -19 -15 -23 -8 -3
-20 -17 -27 -31 -14 -31 -60 -45 -149 -45 -116 0 -197 58 -219 155 -4 20 -4
35 1 35 5 0 9 -4 9 -10 0 -21 83 -52 140 -52 58 -1 156 27 220 62 50 27 79 26
76 -3z m60 -65 c-20 -38 -36 -49 -47 -31 -6 10 0 22 22 42 37 34 46 30 25 -11z
m302 -138 c-39 -41 -108 -28 -108 20 0 20 59 120 67 113 2 -3 -11 -28 -28 -56
-38 -60 -31 -77 26 -67 33 7 36 10 31 34 -17 86 -18 103 -5 119 12 14 15 6 27
-61 12 -76 12 -78 -10 -102z m-41 29 c-3 -2 -15 -3 -26 -1 -20 3 -20 3 2 38
l22 35 3 -33 c2 -19 1 -36 -1 -39z m-335 34 c16 -23 15 -24 -34 -60 -44 -34
-49 -35 -43 -15 9 30 47 98 54 98 3 0 13 -11 23 -23z m118 8 c0 -3 -34 -45
-76 -93 -42 -48 -83 -102 -91 -119 -15 -36 -14 -36 -37 -27 -18 7 -21 56 -5
89 7 16 9 14 6 -12 -2 -18 1 -33 7 -33 12 0 108 101 138 145 20 31 -5 5 -91
-90 -30 -33 -36 -36 -39 -21 -6 29 15 58 69 96 90 63 119 79 119 65z m115
-117 c26 -92 25 -179 -1 -215 -28 -37 -48 -40 -79 -9 -31 31 -31 56 -3 152 25
89 36 92 13 4 -9 -34 -14 -67 -12 -73 2 -7 10 13 17 43 20 88 29 92 29 15 0
-43 -5 -77 -13 -87 -16 -22 -26 -23 -26 -3 0 8 -4 15 -10 15 -12 0 -13 -20 -1
-39 14 -21 40 -6 56 33 15 36 12 134 -6 190 -9 29 -4 50 10 41 5 -2 16 -33 26
-67z m-323 25 c-3 -16 -11 -37 -18 -48 -6 -11 -14 -42 -17 -70 -10 -96 -20
-140 -34 -156 -33 -38 -193 -79 -266 -68 -73 11 -139 48 -159 89 -18 35 -26
150 -10 150 4 -1 19 -18 34 -40 46 -67 93 -84 240 -88 80 -3 133 0 145 7 13 8
-10 9 -92 5 l-110 -6 45 28 c72 44 157 122 192 175 35 55 58 65 50 22z m28
-209 c0 -48 -6 -56 -38 -47 -16 4 -22 13 -22 33 0 43 9 58 36 58 22 0 24 -5
24 -44z m20 -78 c0 -25 16 -36 54 -36 22 0 23 -3 15 -42 -24 -123 -2 -289 51
-386 28 -52 29 -54 11 -82 l-17 -29 -47 77 c-59 99 -67 121 -78 216 -8 68 -7
81 7 98 24 25 20 78 -12 191 -3 9 -1 17 5 17 6 0 11 -11 11 -24z m-77 8 c3 -4
-2 -23 -12 -43 -11 -20 -24 -55 -30 -79 -14 -49 -24 -53 -41 -13 -13 33 -6 53
39 108 27 33 34 37 44 27z m1604 -96 c-5 -87 -23 -205 -32 -216 -1 -2 -18 5
-38 14 l-35 17 34 72 c19 40 42 105 51 144 10 39 20 71 22 71 2 0 1 -46 -2
-102z m-1582 -25 c-5 -23 -29 -31 -39 -14 -3 4 4 37 17 72 l22 64 3 -49 c2
-27 1 -60 -3 -73z m43 40 c10 -66 10 -80 -4 -100 -24 -37 -44 -40 -71 -9 -28
33 -30 51 -4 35 38 -25 51 -6 51 76 0 41 3 75 8 75 4 0 13 -35 20 -77z m-149
-82 c18 -18 18 -19 -2 -52 -12 -19 -26 -37 -32 -41 -18 -13 -80 -9 -103 8 -28
20 -28 34 1 34 25 0 88 35 100 56 10 18 13 18 36 -5z m46 -80 c-9 -18 -14 -40
-12 -49 2 -10 9 0 17 26 7 23 15 40 17 38 3 -2 -1 -23 -8 -45 -11 -37 -10 -44
5 -59 16 -16 18 -16 32 2 8 11 14 39 14 63 0 64 16 52 24 -18 7 -68 -2 -89
-38 -89 -27 0 -66 27 -66 46 0 8 -6 14 -13 14 -8 0 -18 10 -24 23 -9 18 -6 31
15 66 22 37 27 41 39 28 13 -13 13 -19 -2 -46z m55 -10 c0 -40 -9 -61 -27 -61
-9 0 -12 6 -9 18 3 9 8 29 12 45 8 36 24 35 24 -2z m-40 -142 c0 -5 -7 -26
-15 -46 -12 -27 -18 -34 -27 -25 -8 8 -7 21 7 51 16 36 35 47 35 20z m44 -52
c5 -45 3 -54 -15 -69 -27 -23 -31 -22 -63 3 -24 19 -38 48 -16 34 20 -13 50
16 56 55 9 54 30 41 38 -23z m54 -9 c9 -21 8 -27 -4 -32 -9 -3 -17 -6 -18 -6
-2 0 -3 19 -4 42 -2 43 6 42 26 -4z m81 -106 c35 -56 37 -62 15 -62 -14 0 -14
-2 0 -22 9 -12 16 -28 16 -35 0 -6 9 -28 21 -48 29 -48 34 -191 8 -205 -61
-33 -162 -18 -223 32 -47 38 -46 48 5 35 41 -10 41 -10 18 -24 l-24 -14 25 7
c14 4 57 8 95 9 39 0 78 5 87 10 11 7 -10 10 -70 9 -66 -1 -96 4 -127 18 -62
30 -76 44 -86 85 -19 83 41 196 126 234 63 29 79 25 114 -29z m291 -113 c7
-11 9 -23 6 -26 -9 -9 -34 5 -46 26 -9 18 -8 21 9 21 11 0 25 -9 31 -21z m44
-85 c8 -21 -1 -34 -24 -34 -22 0 -34 15 -26 35 7 20 42 19 50 -1z m-149 -56
c22 -5 77 -7 122 -3 75 5 83 4 93 -14 31 -58 -11 -190 -83 -259 l-34 -33 -48
53 c-27 29 -65 80 -87 112 -32 50 -38 67 -38 114 0 48 2 53 18 47 9 -4 35 -12
57 -17z m278 -20 c46 -26 70 -73 93 -182 8 -38 19 -75 25 -82 10 -12 -10 -66
-29 -78 -11 -7 -79 17 -95 33 -9 10 -7 17 12 32 30 24 28 24 -66 -6 -119 -38
-144 -59 -34 -29 l58 16 26 -26 c14 -14 33 -26 40 -26 41 0 20 -61 -25 -76
-23 -7 -99 17 -185 58 -58 27 -63 32 -63 62 0 39 8 50 27 35 16 -14 17 -36 1
-42 -7 -2 -2 -2 12 0 34 6 106 78 136 135 30 59 39 114 26 161 -6 20 -8 37 -5
37 3 0 23 -10 46 -22z m125 -107 c36 -33 41 -70 17 -131 -12 -32 -14 -33 -14
-9 -1 14 -12 58 -25 97 -14 40 -22 72 -18 72 4 0 22 -13 40 -29z m891 4 c23
-7 38 -55 20 -65 -16 -11 -98 32 -99 51 0 29 20 33 79 14z m-1593 -63 c-3 -32
-8 -70 -11 -84 -6 -24 -9 -25 -36 -16 -16 5 -31 14 -34 19 -3 5 10 33 30 64
19 30 35 60 35 65 0 6 4 10 10 10 6 0 8 -24 6 -58z m764 17 c0 8 17 -8 37 -35
21 -27 37 -52 35 -57 -1 -4 4 -6 11 -5 6 2 11 -5 11 -15 -1 -10 15 -32 36 -49
36 -28 98 -112 113 -150 5 -14 1 -18 -14 -18 -11 0 -28 -4 -38 -10 -16 -8 -24
-1 -54 43 -19 29 -58 85 -85 125 -43 62 -50 78 -46 110 3 27 1 33 -6 22 -5 -8
-10 -26 -10 -40 0 -76 -118 -230 -175 -230 -34 0 -32 16 3 24 35 7 60 30 98
86 41 61 64 122 64 173 0 31 3 38 10 27 8 -12 10 -12 10 -1z m740 -4 c10 -13
9 -15 -9 -15 -29 0 -54 -58 -54 -122 1 -52 -7 -59 -58 -53 -41 6 -58 21 -31
29 27 9 85 136 62 136 -5 0 -10 -4 -12 -9 -1 -4 -22 -20 -46 -35 -43 -27 -102
-33 -109 -11 -3 11 66 42 162 73 76 25 80 25 95 7z m-566 -66 c16 -1 14 -3 -9
-10 -40 -12 -54 -6 -96 37 l-34 35 59 -30 c32 -17 68 -31 80 -32z m16 37 c68
-11 72 -13 43 -20 -30 -7 -143 16 -143 29 0 7 13 5 100 -9z m599 -21 c20 -19
3 -38 -30 -33 -29 5 -40 -6 -16 -15 6 -3 2 -6 -10 -6 -30 -1 -37 15 -22 50 10
26 16 29 38 24 14 -3 32 -12 40 -20z m115 3 c20 -32 28 -87 18 -123 -7 -24
-14 -29 -33 -28 -50 6 -69 14 -85 38 -24 36 -3 110 35 124 40 15 49 13 65 -11z
m-436 -5 c-28 -7 -21 -31 14 -49 21 -11 43 -14 69 -10 31 5 37 3 33 -8 -11
-29 -40 -26 -136 16 -53 24 -98 45 -98 48 0 3 31 5 68 6 37 1 59 -1 50 -3z
m-103 -50 c59 -29 84 -58 85 -96 0 -36 17 -67 36 -67 20 0 30 -30 13 -40 -7
-5 -10 -12 -7 -15 11 -11 28 5 28 26 0 12 7 19 19 19 14 0 19 -10 23 -45 7
-55 31 -94 69 -108 16 -6 29 -15 29 -19 0 -10 -60 -20 -101 -16 -31 3 -34 6
-37 40 -2 22 -11 43 -21 50 -17 12 -30 48 -34 91 -1 9 -5 17 -9 17 -4 0 -8 7
-8 16 0 8 -4 13 -9 9 -5 -3 -15 11 -21 30 -6 19 -15 35 -20 35 -4 0 -2 -17 5
-37 l13 -38 -56 -6 c-32 -3 -71 -9 -87 -13 -28 -6 -33 -3 -53 32 -11 21 -39
59 -62 84 -22 25 -40 49 -40 52 0 15 26 4 45 -19 15 -18 26 -23 48 -18 15 3
26 10 25 17 -1 6 6 21 17 33 22 26 32 24 110 -14z m-811 -37 c1 -42 -2 -54
-14 -53 -8 0 -28 -3 -43 -6 -28 -8 -28 -7 -22 30 7 37 60 102 73 88 3 -3 6
-30 6 -59z m663 33 c-1 -18 -26 -21 -44 -6 -20 15 -15 22 16 22 21 0 29 -5 28
-16z m-139 -124 l80 -110 -26 -7 c-32 -8 -263 -53 -275 -53 -4 0 -16 18 -26
40 l-18 41 33 10 c32 10 34 9 34 -11 0 -12 10 -30 22 -41 l22 -19 -17 25 c-25
36 -22 49 28 125 25 38 48 79 51 92 4 13 8 23 9 21 2 -2 40 -53 83 -113z m698
70 c17 -35 45 -54 87 -57 31 -3 35 -13 10 -27 -26 -13 -109 2 -141 26 -20 15
-28 30 -30 60 -3 39 -3 40 28 35 22 -3 34 -13 46 -37z m-156 -40 c40 0 70 -5
79 -13 27 -26 57 -40 99 -47 l42 -7 -17 -29 c-19 -32 -27 -32 -102 3 -24 12
-46 29 -48 38 -4 15 -11 16 -41 9 -93 -21 -151 -4 -164 50 -16 59 -3 67 44 29
38 -30 49 -33 108 -33z m-1026 -27 c21 -30 21 -72 1 -64 -21 8 -63 -13 -70
-36 -8 -24 -19 -23 -33 5 -22 45 -24 68 -8 92 22 34 88 35 110 3z m155 -48
c10 -5 25 -20 34 -34 15 -22 15 -24 -3 -29 -18 -5 -80 45 -80 64 0 12 27 11
49 -1z m691 -9 c14 -28 13 -31 -13 -31 -13 0 -46 -7 -73 -15 -45 -14 -51 -13
-73 3 -35 26 -31 36 24 48 80 19 123 17 135 -5z m203 -79 c12 -11 36 -23 52
-27 29 -6 29 -5 -6 14 -23 13 -45 36 -58 63 -21 43 -21 43 -1 46 11 2 34 -8
51 -22 17 -15 51 -31 75 -37 l45 -12 -22 -23 c-12 -13 -39 -35 -60 -50 -35
-24 -42 -25 -69 -14 -41 17 -67 52 -75 102 -5 29 -3 43 6 49 10 6 17 -2 27
-30 7 -21 23 -47 35 -59z m260 92 c12 -4 13 -11 5 -35 -5 -16 -14 -29 -20 -29
-19 0 -48 21 -48 35 0 17 16 20 25 5 3 -5 14 -10 23 -10 12 1 8 6 -10 16 -16
8 -28 17 -28 19 0 7 35 6 53 -1z m-1255 -51 c15 -9 29 -18 31 -20 2 -1 -8 -15
-23 -29 -28 -29 -42 -66 -31 -83 19 -31 -57 11 -89 49 -32 39 -32 41 -1 74 28
31 72 34 113 9z m812 -38 c0 -30 -3 -35 -22 -35 -13 0 -43 10 -68 22 l-45 21
50 12 c81 20 85 20 85 -20z m398 -10 c27 -55 27 -57 0 -53 -32 5 -61 99 -30
98 4 0 17 -21 30 -45z m-573 15 c41 -25 140 -60 171 -60 17 0 22 4 18 15 -5
11 -2 13 10 9 13 -5 16 -17 14 -58 l-3 -51 -50 3 c-71 5 -167 31 -185 50 -18
19 -60 86 -60 95 0 5 22 13 44 16 5 0 23 -8 41 -19z m-540 -31 c0 -42 19 -69
48 -69 15 0 18 -3 11 -10 -6 -6 -40 -13 -75 -16 -56 -5 -66 -4 -83 15 -16 18
-17 24 -6 51 16 38 57 72 84 68 17 -2 21 -10 21 -39z m72 14 c6 -16 14 -41 20
-58 8 -29 10 -30 68 -28 33 1 118 6 190 12 111 10 131 9 144 -4 8 -8 11 -18 7
-22 -4 -5 -89 -9 -189 -11 l-182 -3 -57 31 c-62 34 -75 62 -42 94 22 22 30 20
41 -11z m379 -10 c7 -10 14 -21 14 -25 0 -8 -52 -15 -170 -23 -47 -3 -109 -8
-139 -12 -43 -5 -53 -3 -49 8 5 15 73 32 208 54 115 18 121 18 136 -2z m617
-13 c4 -15 0 -20 -14 -20 -20 0 -23 8 -13 34 7 20 20 13 27 -14z"/>
<path d="M1369 2621 c-23 -19 -23 -21 -9 -47 22 -40 75 -64 143 -64 61 0 110
18 121 45 11 29 7 29 -22 1 -51 -48 -136 -44 -209 10 -38 29 -35 50 11 63 23
7 25 9 10 10 -12 1 -32 -8 -45 -18z"/>
<path d="M1470 2595 c-7 -9 -11 -18 -8 -20 3 -3 11 1 18 10 7 9 11 18 8 20 -3
3 -11 -1 -18 -10z"/>
<path d="M1520 2579 c7 -11 14 -18 17 -15 8 8 -5 36 -17 36 -7 0 -7 -6 0 -21z"/>
<path d="M1685 2450 c-4 -6 6 -10 22 -10 22 0 25 2 13 10 -19 12 -27 12 -35 0z"/>
<path d="M1605 2242 c-82 -28 -142 -69 -228 -155 -92 -92 -151 -187 -205 -330
-61 -163 -93 -394 -73 -524 6 -39 11 -94 11 -122 0 -65 17 -146 41 -193 l19
-38 -28 0 c-46 0 -128 47 -162 92 -29 41 -37 59 -79 188 l-21 65 6 -60 c7 -67
66 -242 91 -265 14 -14 14 -13 4 7 -19 37 -12 38 21 6 39 -37 70 -51 124 -53
79 -4 78 -5 50 43 -27 47 -46 134 -46 213 0 53 0 53 58 97 32 25 64 52 71 61
9 10 29 16 58 16 39 0 44 -2 38 -17 -16 -39 -18 -56 -7 -49 18 11 50 127 57
207 21 247 78 450 156 560 29 42 17 48 -14 7 -65 -87 -110 -208 -137 -368 -25
-148 -67 -237 -145 -309 -58 -52 -120 -76 -135 -51 -16 26 -19 159 -6 242 51
314 218 583 426 686 69 35 79 37 160 35 79 -1 83 0 55 12 -41 19 -100 18 -160
-3z m-228 -876 c-12 -58 -12 -59 -50 -63 l-38 -4 35 47 c20 25 41 62 48 82 18
50 21 13 5 -62z m-190 -130 c-38 -34 -77 -52 -77 -36 0 23 14 40 34 40 11 1
32 7 46 15 39 22 38 17 -3 -19z"/>
<path d="M1681 1823 c-14 -48 -14 -70 -2 -57 14 13 31 94 20 94 -4 0 -13 -17
-18 -37z"/>
<path d="M1470 1058 c14 -6 42 -19 63 -28 31 -15 35 -15 25 -2 -16 18 -70 42
-95 41 -13 0 -11 -3 7 -11z"/>
<path d="M2310 1000 c0 -41 -7 -129 -15 -195 -18 -144 -18 -176 1 -110 21 76
41 352 26 367 -9 9 -12 -5 -12 -62z"/>
<path d="M1197 1033 c-4 -6 6 -28 21 -49 27 -37 30 -38 80 -35 62 3 148 -14
205 -40 57 -26 67 -24 67 11 0 24 -8 34 -45 56 -25 14 -67 32 -93 40 -61 19
-227 30 -235 17z m220 -37 c47 -16 59 -41 15 -32 -16 4 -60 9 -96 11 -65 4
-96 16 -96 38 0 12 127 1 177 -17z"/>
<path d="M2402 930 c-13 -52 -41 -140 -62 -195 -23 -59 -32 -90 -21 -77 9 13
33 64 51 113 18 50 36 92 40 94 10 6 3 -27 -40 -197 -21 -81 -33 -145 -29
-142 5 3 9 -7 9 -23 0 -15 4 -33 8 -40 4 -6 7 21 7 60 1 48 12 113 33 194 28
104 32 137 30 215 l-3 93 -23 -95z"/>
<path d="M2040 1003 c-43 -7 -90 -24 -90 -33 0 -4 17 -2 38 6 20 7 49 13 65
14 15 0 27 5 27 10 0 6 -3 9 -7 9 -5 -1 -19 -4 -33 -6z"/>
<path d="M2029 941 c-45 -14 -68 -31 -84 -61 -18 -35 -9 -43 36 -30 41 12 163
15 179 5 12 -8 59 40 60 61 1 26 -130 43 -191 25z m130 -25 c32 -18 21 -22
-78 -31 -67 -5 -82 -4 -79 7 10 31 115 47 157 24z"/>
<path d="M1301 749 c-14 -45 -3 -69 31 -69 22 0 33 23 23 48 -7 15 -9 14 -14
-6 -3 -13 -10 -22 -16 -20 -12 3 -12 33 -1 66 4 12 3 22 -2 22 -5 0 -14 -18
-21 -41z"/>
<path d="M1602 708 c-30 -33 -42 -70 -30 -92 13 -24 69 -46 110 -45 29 1 26 3
-20 14 -85 21 -102 47 -61 99 15 19 25 24 37 17 9 -5 37 -12 62 -16 74 -11 80
-14 80 -44 0 -31 -13 -46 -45 -54 -16 -4 -15 -5 6 -6 34 -1 51 20 53 67 l1 37
-68 11 c-38 6 -73 16 -80 23 -15 15 -21 14 -45 -11z"/>
<path d="M947 2230 c-34 -27 -75 -116 -93 -202 -22 -104 -19 -108 51 -55 82
61 164 150 175 188 10 35 -1 73 -25 83 -33 12 -83 6 -108 -14z m95 -8 c5 -5
11 -24 14 -43 6 -32 1 -40 -54 -95 -33 -34 -79 -76 -103 -94 l-42 -34 6 46 c8
60 42 156 65 188 32 43 87 59 114 32z"/>
<path d="M1094 2141 c3 -5 16 -11 28 -14 22 -6 22 -5 4 8 -22 17 -40 20 -32 6z"/>
<path d="M630 955 c7 -8 27 -24 44 -35 23 -14 36 -32 45 -62 7 -24 14 -50 17
-59 8 -30 -24 -29 -57 2 -39 37 -53 36 -91 -1 -36 -36 -45 -33 -25 7 l15 28
-37 0 c-34 0 -37 -2 -33 -25 6 -35 29 -58 86 -87 56 -28 71 -24 126 32 31 32
32 35 20 70 -7 21 -13 52 -14 69 -2 17 -7 30 -13 29 -6 -1 -21 9 -33 22 -26
28 -72 37 -50 10z m36 -180 l29 -26 -25 -18 c-24 -19 -25 -19 -64 1 l-40 21
29 23 c37 29 36 29 71 -1z"/>
<path d="M780 728 c-9 -24 -19 -33 -36 -34 -29 -2 -31 7 -4 24 11 7 20 17 20
24 0 6 -14 -1 -30 -17 -34 -32 -27 -45 26 -45 29 0 32 3 36 38 7 48 3 51 -12
10z"/>
<path d="M952 504 c17 -20 78 -59 78 -50 0 3 -21 20 -47 37 -27 18 -40 24 -31
13z"/>
<path d="M1725 350 c-4 -7 0 -19 9 -28 15 -16 16 -15 13 5 -4 29 -13 38 -22
23z"/>
<path d="M1680 344 c0 -3 6 -12 14 -19 17 -17 30 -7 15 12 -12 13 -29 18 -29
7z"/>
<path d="M1611 325 c9 -8 79 -35 79 -30 0 7 -57 35 -71 35 -7 0 -10 -2 -8 -5z"/>
</g>
</svg>
