<?xml version="1.0" standalone="no"?>
<!DOCTYPE svg PUBLIC "-//W3C//DTD SVG 20010904//EN"
 "http://www.w3.org/TR/2001/REC-SVG-20010904/DTD/svg10.dtd">
<svg version="1.0" xmlns="http://www.w3.org/2000/svg"
 width="900.000000pt" height="900.000000pt" viewBox="0 0 900.000000 900.000000"
 preserveAspectRatio="xMidYMid meet">
<metadata>
Created by potrace 1.10, written by Peter Selinger 2001-2011
</metadata>
<g transform="translate(0.000000,900.000000) scale(0.100000,-0.100000)"
fill="#000000" stroke="none">
<path d="M2935 8980 c-3 -11 -15 -20 -26 -20 -67 0 -203 -161 -280 -330 -11
-25 -27 -58 -35 -75 -9 -16 -25 -59 -36 -95 -11 -36 -26 -85 -34 -109 -8 -25
-14 -55 -14 -68 0 -13 -20 -45 -47 -75 -94 -104 -126 -158 -209 -346 -8 -18
-14 -39 -14 -47 0 -8 -6 -29 -14 -47 -45 -103 -51 -148 -51 -358 0 -192 -1
-207 -21 -235 -82 -117 -129 -347 -104 -512 7 -48 19 -101 26 -117 8 -16 14
-35 14 -42 0 -7 20 -43 45 -80 25 -36 45 -68 45 -69 0 -2 -16 -23 -36 -47 -20
-23 -43 -56 -51 -73 -7 -16 -22 -43 -33 -60 -30 -46 -120 -232 -120 -247 0 -8
-4 -18 -8 -24 -11 -12 -45 -105 -67 -179 -9 -33 -24 -76 -32 -95 -8 -19 -21
-48 -28 -65 -7 -16 -20 -50 -30 -75 -20 -51 -36 -90 -57 -140 -9 -19 -23 -55
-33 -80 -10 -25 -23 -58 -30 -75 -8 -16 -23 -57 -35 -90 -12 -33 -31 -82 -42
-110 -34 -88 -48 -127 -89 -250 -36 -104 -103 -257 -142 -320 -45 -74 -118
-180 -163 -235 -114 -143 -195 -212 -333 -286 -113 -61 -138 -88 -125 -135 13
-45 44 -64 180 -111 117 -40 122 -41 264 -42 131 -1 150 1 198 22 41 18 57 21
67 12 11 -9 12 -17 3 -38 -7 -18 -12 -131 -12 -327 -1 -312 4 -360 51 -510 47
-148 121 -298 184 -368 27 -30 49 -63 49 -72 0 -33 -277 -327 -380 -402 -89
-67 -178 -124 -216 -142 -12 -5 -23 -13 -25 -18 -13 -29 -160 -95 -329 -148
-30 -9 -76 -24 -103 -32 -30 -10 -63 -13 -91 -9 -23 4 -50 4 -59 0 -20 -7 -22
-39 -5 -53 7 -6 57 -49 111 -95 117 -101 268 -204 357 -244 87 -38 210 -66
259 -58 41 6 71 0 71 -15 0 -16 -127 -79 -220 -107 -129 -40 -253 -62 -342
-62 -67 0 -77 -3 -98 -25 -32 -34 -30 -78 9 -143 17 -29 31 -56 31 -60 0 -6
51 -68 119 -147 25 -29 88 -84 151 -134 30 -24 66 -59 79 -77 21 -30 63 -61
146 -111 63 -37 333 -163 350 -163 8 0 47 32 87 70 l73 71 50 -5 c28 -3 73
-10 100 -15 112 -22 334 -3 426 35 32 14 44 14 112 0 42 -9 100 -16 129 -16
29 -1 82 -7 118 -15 36 -8 88 -14 117 -15 l51 0 67 -81 c91 -110 103 -116 227
-117 105 0 123 4 171 44 16 13 37 24 46 24 10 0 34 11 53 24 l36 24 966 0
c792 0 967 -3 977 -14 6 -7 32 -21 57 -30 26 -9 52 -23 57 -29 31 -37 136 -60
161 -35 6 6 20 6 41 -2 58 -22 104 4 187 101 l72 86 85 6 c47 3 91 9 96 12 6
4 67 12 135 17 67 6 138 15 156 21 27 9 42 8 70 -4 95 -38 325 -58 427 -37 33
7 80 15 105 17 43 4 48 2 103 -51 75 -71 113 -85 164 -57 21 11 72 36 113 56
74 36 93 45 128 65 9 6 27 14 40 20 37 16 135 85 162 115 14 15 54 50 90 78
161 126 310 327 313 424 2 59 -26 73 -145 73 -103 1 -144 9 -406 84 -72 20
-153 67 -149 86 2 12 17 14 78 12 76 -4 162 12 239 45 76 32 138 66 166 90 16
14 54 42 84 63 78 53 240 210 240 232 0 21 4 20 -85 23 -115 4 -416 112 -533
192 -35 24 -65 43 -68 43 -2 0 -41 27 -86 60 -137 100 -263 218 -356 335 -21
28 -51 61 -66 74 -33 31 -33 42 3 74 54 48 181 258 181 299 0 7 6 22 13 33 12
18 21 49 57 183 16 63 29 230 29 377 0 138 -13 335 -25 373 -5 19 -3 22 20 22
15 0 39 -8 53 -17 23 -15 50 -18 173 -18 136 1 151 3 250 34 128 41 172 62
199 97 45 57 18 91 -139 177 -113 62 -202 139 -299 259 -49 61 -143 194 -152
215 -2 4 -20 37 -41 73 -20 36 -53 106 -73 155 -20 50 -43 105 -51 123 -8 18
-14 41 -14 52 0 19 -18 66 -46 123 -8 16 -14 34 -14 42 0 7 -14 48 -31 91 -17
44 -37 97 -46 119 -9 22 -21 54 -28 70 -8 17 -28 66 -45 110 -18 44 -45 107
-60 140 -30 68 -48 117 -59 160 -4 17 -13 40 -19 52 -7 12 -12 34 -12 48 0 15
-6 39 -14 53 -8 15 -22 47 -31 72 -34 88 -49 119 -120 255 -26 50 -53 97 -61
106 -8 8 -14 20 -14 25 -1 5 -14 25 -30 44 -34 39 -38 70 -12 94 21 19 68 109
75 146 3 14 10 43 16 65 13 51 13 236 0 295 -6 25 -14 63 -18 85 -10 51 -57
154 -76 169 -25 19 -41 101 -27 139 14 40 15 203 2 267 -6 25 -14 65 -19 90
-22 102 -58 205 -113 320 -44 91 -75 136 -148 215 -39 42 -48 60 -59 115 -24
120 -39 162 -114 317 -88 179 -197 312 -276 333 -24 6 -41 17 -41 25 0 11 -12
15 -40 15 -27 0 -40 -4 -40 -14 0 -7 -6 -19 -14 -25 -8 -7 -17 -27 -21 -44
-12 -60 -133 -323 -185 -400 -15 -23 -36 -58 -46 -77 -33 -62 -171 -263 -218
-319 -26 -29 -51 -62 -57 -72 -14 -27 -30 -24 -60 13 -45 54 -108 38 -125 -32
-14 -61 -139 -250 -165 -250 -10 0 -31 12 -46 26 -15 14 -41 33 -58 41 -16 9
-32 19 -35 22 -8 10 -73 33 -108 38 -38 6 -43 16 -62 118 -46 258 -193 539
-338 647 -156 116 -277 158 -482 165 -136 5 -243 -13 -325 -55 -22 -11 -58
-29 -80 -40 -22 -10 -49 -29 -59 -41 -11 -11 -23 -21 -27 -21 -14 0 -93 188
-105 249 -4 16 -12 32 -20 35 -8 3 -14 12 -14 21 0 11 -11 15 -39 15 -31 0
-41 -4 -46 -20z m2905 -169 c0 -4 13 -20 28 -37 46 -48 98 -141 167 -299 17
-40 42 -122 50 -165 4 -19 12 -53 19 -75 16 -50 13 -332 -3 -393 -13 -45 -34
-63 -54 -43 -19 19 -27 12 -20 -19 4 -24 -2 -43 -31 -89 -20 -33 -36 -64 -36
-70 0 -6 -5 -11 -12 -11 -14 0 -48 30 -48 42 0 5 -13 29 -29 52 -45 65 -47 87
-15 125 24 29 32 33 66 28 36 -5 38 -4 38 22 0 16 -9 36 -20 46 -22 20 -26 18
-90 -46 -62 -63 -119 -76 -130 -29 -5 22 -10 25 -47 22 -38 -3 -41 -2 -47 29
-12 61 -7 141 11 161 9 10 14 19 12 21 -2 1 -25 12 -51 24 -30 14 -57 37 -73
61 -26 40 -70 71 -82 59 -3 -4 3 -17 15 -30 30 -31 28 -67 -5 -91 -21 -16 -31
-17 -55 -8 -28 10 -33 6 -22 -22 8 -20 50 -20 84 -1 28 16 68 19 89 6 38 -24
-34 -79 -121 -90 -27 -4 -45 -13 -52 -26 -5 -11 -18 -32 -28 -47 -19 -29 -25
-108 -8 -108 6 0 10 7 10 17 0 29 93 109 149 128 38 12 56 14 64 6 20 -20 -60
-112 -131 -150 l-24 -13 21 -22 c12 -12 21 -29 21 -38 0 -15 19 -28 41 -28 5
0 9 11 9 24 0 26 60 110 85 120 31 11 41 6 54 -30 12 -33 11 -37 -13 -59 -14
-13 -26 -29 -26 -35 0 -23 -64 -100 -83 -100 -10 0 -17 -5 -14 -12 2 -7 20
-13 39 -13 26 0 43 -7 62 -28 54 -58 57 -68 45 -131 -11 -53 -10 -59 10 -86
35 -48 37 -83 7 -123 -36 -47 -32 -54 11 -18 21 17 48 31 61 31 13 0 36 7 52
15 36 18 95 24 95 9 0 -22 -150 -194 -168 -194 -10 0 -44 13 -75 29 -31 17
-91 43 -132 60 -257 101 -234 81 -204 186 9 33 19 90 21 127 4 62 3 69 -22 94
-20 20 -33 25 -55 21 -32 -7 -40 5 -40 56 0 45 -33 164 -59 215 l-22 43 64 67
c56 59 107 120 185 221 12 17 27 44 33 60 9 27 16 31 46 31 20 0 46 9 60 20
14 11 33 20 42 20 10 0 22 5 27 10 20 20 130 41 214 41 95 1 113 7 135 49 31
60 20 105 -63 250 -18 30 -32 61 -32 68 0 7 -11 28 -25 46 -14 18 -25 38 -25
45 0 7 8 6 25 -5 14 -9 25 -19 25 -23z m-2940 19 c0 -6 -12 -29 -27 -53 -15
-23 -51 -89 -81 -147 -47 -93 -53 -110 -49 -150 4 -33 13 -51 36 -72 27 -24
40 -28 94 -28 92 0 95 -4 68 -94 -61 -204 -28 -387 88 -503 55 -54 84 -67 114
-51 29 15 33 20 138 196 51 85 98 156 106 159 16 6 172 -153 173 -177 0 -9 -6
-24 -14 -35 -21 -32 -55 -145 -62 -212 l-6 -62 -42 -3 c-34 -3 -43 -8 -55 -33
-16 -34 -19 -95 -8 -172 7 -50 6 -53 -14 -53 -22 0 -108 79 -128 118 -7 13
-10 36 -6 51 5 26 2 29 -37 44 -24 10 -52 17 -61 17 -17 0 -17 -2 -2 -22 8
-13 42 -52 75 -88 32 -36 80 -89 106 -117 44 -51 74 -67 74 -41 0 7 9 3 21 -9
26 -26 20 -38 -29 -53 -20 -7 -50 -18 -67 -25 -124 -52 -204 -85 -208 -85 -10
0 -163 -93 -211 -129 -28 -20 -60 -43 -72 -51 -107 -73 -143 -100 -189 -142
-29 -26 -57 -48 -63 -48 -12 0 -22 49 -22 111 0 34 -7 61 -23 87 -47 75 -74
191 -78 327 -5 163 63 371 149 454 21 21 24 30 19 70 -34 269 -32 374 10 516
38 130 58 181 116 293 72 141 167 261 167 212z m120 -65 c30 -79 68 -152 81
-161 18 -11 8 -46 -23 -79 -18 -18 -42 -45 -53 -60 -20 -26 -21 -27 -80 -16
-38 7 -72 8 -92 2 -37 -11 -53 1 -53 40 0 38 17 79 45 109 12 14 26 36 30 50
4 14 25 62 47 108 27 57 45 82 55 80 9 -2 28 -34 43 -73z m2759 -18 c40 -100
63 -147 73 -147 17 0 39 -63 36 -103 l-3 -42 -86 -1 c-95 -2 -162 -19 -252
-65 -93 -49 -95 -32 -11 97 59 91 154 284 154 311 0 11 5 24 11 30 24 24 46 1
78 -80z m-1910 -58 c123 -41 192 -83 278 -171 81 -83 144 -194 192 -336 39
-115 51 -181 62 -332 5 -69 11 -137 15 -152 8 -33 -3 -35 -58 -10 -20 9 -40
26 -43 37 -11 37 -72 167 -108 230 -12 22 -38 67 -56 100 -95 166 -231 303
-336 337 -86 28 -28 71 115 84 81 8 154 -30 222 -116 23 -30 48 -59 55 -63 7
-4 13 -15 13 -22 0 -8 5 -15 10 -15 16 0 12 30 -5 36 -8 4 -15 10 -15 15 0 12
-72 109 -81 109 -4 0 -16 16 -27 34 -12 19 -39 47 -62 61 -38 24 -49 26 -118
22 -90 -5 -116 -14 -242 -87 -101 -58 -228 -176 -334 -309 -51 -65 -116 -158
-116 -166 0 -3 -20 -32 -45 -66 -25 -34 -45 -70 -45 -80 0 -10 -10 -24 -22
-30 -19 -10 -24 -9 -33 6 -5 10 -20 29 -31 44 -65 80 -91 203 -69 321 30 163
80 264 184 373 138 144 260 191 482 182 105 -4 140 -10 218 -36z m-114 -374
c112 -59 201 -138 231 -205 10 -21 39 -61 162 -220 11 -15 22 -35 24 -45 2
-16 -3 -20 -32 -23 -64 -5 -81 -12 -129 -57 -52 -49 -63 -48 -99 6 -9 15 -43
60 -75 102 -33 42 -67 100 -78 133 -27 77 -34 84 -80 84 -30 0 -42 -6 -59 -30
-12 -16 -26 -30 -32 -30 -18 0 -97 94 -98 116 0 15 22 40 68 78 37 31 80 69
96 86 35 36 42 37 101 5z m-1215 -219 c0 -19 -4 -38 -10 -41 -13 -8 -13 -72 1
-174 l11 -81 -28 -38 c-32 -41 -94 -165 -94 -186 0 -7 -6 -29 -14 -47 -7 -19
-19 -79 -25 -135 -13 -109 -2 -254 23 -329 8 -22 17 -52 20 -66 3 -14 17 -42
31 -63 20 -30 25 -49 25 -101 0 -40 6 -78 17 -100 18 -38 13 -58 -20 -79 -26
-16 -68 33 -119 137 -88 181 -118 357 -78 462 4 11 2 49 -6 85 -15 75 -10 208
11 285 7 28 21 77 30 110 31 113 127 312 183 378 25 28 42 21 42 -17z m3687
-23 c150 -236 238 -557 194 -713 -14 -48 -9 -147 11 -212 9 -30 7 -52 -11
-125 -38 -149 -69 -228 -126 -317 -19 -30 -39 -57 -43 -60 -5 -3 -21 8 -37 24
l-27 28 17 52 c11 32 15 66 11 88 -4 29 2 52 34 119 22 45 40 93 40 107 0 13
7 43 16 67 21 61 21 256 -1 340 -34 135 -56 187 -112 275 l-33 51 12 102 c9
81 9 111 -1 151 -10 40 -10 54 -1 65 7 8 14 15 16 15 2 0 21 -26 41 -57z
m-2525 -150 c50 -114 181 -267 321 -374 42 -33 77 -64 77 -69 0 -6 -8 -18 -19
-29 -10 -10 -20 -24 -22 -30 -3 -7 -25 -14 -49 -17 -59 -6 -178 -31 -265 -56
-122 -35 -122 -35 -139 7 -9 20 -13 41 -10 46 3 5 25 9 50 9 31 0 50 6 65 21
19 19 21 31 19 142 -2 67 0 136 4 152 5 21 1 40 -12 64 -23 43 -40 50 -46 19
-25 -126 -28 -157 -23 -223 9 -99 5 -105 -53 -105 -66 0 -83 -20 -71 -84 5
-26 14 -53 20 -59 17 -17 13 -35 -13 -52 -18 -12 -30 -14 -43 -7 -18 10 -46
77 -58 142 -3 19 -11 48 -17 64 -10 25 -9 31 11 48 23 18 24 18 56 -2 50 -31
62 -14 68 105 6 96 19 152 58 240 10 22 23 52 28 68 16 41 39 33 63 -20z
m1360 20 c6 -16 16 -41 23 -58 7 -16 18 -46 23 -65 6 -19 18 -57 27 -84 8 -28
15 -86 15 -132 0 -46 4 -86 10 -89 5 -3 25 1 44 10 55 26 71 18 69 -35 -3 -63
-54 -214 -73 -218 -9 -1 -24 4 -34 11 -18 13 -18 17 -4 53 25 63 30 108 14
129 -12 17 -17 18 -54 6 -22 -8 -45 -11 -50 -7 -6 3 -11 37 -11 74 0 37 -5 92
-11 122 -6 30 -13 81 -16 113 -4 31 -10 57 -14 57 -10 0 -46 -42 -54 -63 -3
-10 3 -69 13 -130 11 -62 22 -140 26 -175 8 -68 16 -75 80 -70 24 2 31 -1 33
-18 2 -11 -5 -31 -15 -43 l-19 -23 -84 27 c-85 27 -168 46 -290 66 -65 11
-110 41 -110 74 0 8 34 39 75 71 125 93 325 330 325 384 0 19 19 40 37 40 7 0
18 -12 25 -27z m-499 -152 c36 -16 91 -46 122 -65 45 -29 54 -40 47 -53 -11
-19 -162 -133 -177 -133 -5 0 -31 21 -57 46 l-47 45 5 82 c3 45 7 88 10 95 5
18 26 15 97 -17z m1243 -75 c109 -123 137 -171 129 -222 -3 -19 -7 -50 -11
-69 -3 -25 -19 -49 -51 -80 -38 -37 -52 -45 -84 -45 -24 0 -41 6 -47 16 -5 8
-20 21 -33 27 -19 10 -25 22 -27 55 -4 56 23 80 119 107 117 32 103 61 -23 43
l-73 -10 -37 44 c-40 45 -49 82 -23 92 9 3 15 18 15 36 0 26 4 30 28 30 15 0
34 5 42 10 25 16 36 12 76 -34z m-1521 -12 c17 -26 6 -64 -18 -64 -7 0 -31
-18 -52 -41 -64 -65 -67 -66 -140 -18 -36 23 -65 45 -65 49 0 16 90 90 117 96
15 3 31 6 35 7 5 1 30 0 57 -1 40 -3 53 -9 66 -28z m1853 14 c11 -13 25 -34
31 -48 6 -14 15 -32 20 -40 14 -23 51 -151 61 -216 15 -92 12 -229 -6 -272 -8
-20 -19 -55 -24 -77 -5 -22 -12 -53 -16 -70 -4 -16 -16 -40 -26 -52 -15 -16
-19 -31 -16 -60 5 -38 -17 -113 -33 -113 -4 0 -16 8 -26 19 -10 10 -38 32 -62
50 -24 17 -51 40 -58 51 -8 11 -22 20 -33 20 -10 0 -40 17 -67 38 -26 20 -60
43 -75 51 -15 8 -38 25 -50 39 -19 20 -20 26 -8 30 8 3 57 47 109 99 l95 94
-17 29 c-23 37 -21 62 4 94 18 23 21 36 16 87 -3 35 -1 62 5 65 5 4 7 19 4 35
-3 17 -1 31 7 36 7 4 29 29 50 55 71 88 80 93 115 56z m-1681 -173 c139 -128
137 -125 124 -138 -7 -7 -17 -7 -35 1 -70 32 -223 34 -400 6 -37 -6 -38 -6
-25 13 8 11 41 43 74 72 33 29 80 71 104 93 24 21 50 38 57 36 7 -2 53 -39
101 -83z m84 -180 c47 -1 101 -7 120 -13 19 -6 63 -16 99 -22 86 -15 120 -23
215 -50 44 -12 96 -26 115 -30 19 -5 80 -25 135 -45 55 -20 112 -40 126 -44
14 -5 34 -13 45 -19 10 -6 53 -24 95 -41 90 -36 176 -78 184 -90 2 -5 96 -70
207 -144 225 -150 292 -212 469 -432 136 -169 299 -417 299 -455 0 -21 -16 -8
-50 40 -101 144 -257 340 -319 400 -25 25 -68 70 -96 101 -27 30 -75 75 -105
99 -30 25 -57 48 -60 51 -11 13 -237 163 -289 191 -169 95 -373 184 -490 215
-253 67 -377 87 -546 87 -113 1 -150 -3 -190 -18 -97 -36 -115 -46 -115 -66 0
-26 29 -26 105 1 51 18 80 22 192 21 75 -1 164 -8 205 -17 40 -8 84 -15 97
-15 43 0 232 -48 296 -75 17 -7 45 -16 62 -19 18 -4 35 -12 38 -17 4 -5 13 -9
21 -9 18 0 277 -126 349 -170 28 -16 57 -33 65 -37 8 -4 66 -46 130 -94 131
-99 299 -268 445 -447 89 -110 195 -255 195 -267 0 -2 14 -28 31 -57 30 -50
115 -208 147 -273 9 -16 19 -32 23 -35 17 -12 14 -54 -3 -58 -16 -3 -48 18
-48 32 0 18 -37 87 -49 91 -8 3 -26 -3 -40 -13 -15 -10 -38 -22 -53 -25 -14
-4 -40 -21 -57 -37 -33 -34 -33 -34 -75 25 -12 17 -25 20 -80 19 -46 0 -71 -5
-84 -17 -26 -24 -49 -21 -91 12 -63 49 -110 66 -184 66 -97 0 -108 -14 -102
-138 2 -53 10 -108 19 -129 23 -54 21 -64 -28 -120 -80 -92 -113 -187 -83
-244 25 -48 108 -87 197 -94 l75 -5 6 -40 c9 -59 31 -102 89 -174 48 -59 51
-65 40 -92 -10 -22 -9 -42 0 -91 7 -35 17 -110 21 -168 4 -58 12 -132 18 -165
6 -33 10 -84 9 -113 -1 -29 4 -58 10 -64 25 -25 2 -582 -28 -672 -6 -16 -10
-42 -10 -58 0 -33 -13 -63 -43 -95 -37 -41 -45 -30 -46 68 0 72 -4 96 -18 111
-16 18 -16 21 -1 51 40 79 71 167 92 262 19 91 24 231 8 247 -9 9 -12 4 -12
-22 0 -84 -87 -380 -132 -448 -15 -24 -28 -47 -28 -51 0 -21 -129 -181 -146
-181 -9 0 -3 39 11 73 8 20 22 106 32 191 16 147 16 167 -1 378 -20 253 -26
285 -87 488 -14 48 -108 308 -125 347 -8 17 -14 37 -14 45 0 8 -4 18 -8 24 -5
5 -17 32 -27 59 -10 28 -32 75 -48 105 -16 30 -43 80 -59 110 -36 67 -100 173
-107 180 -4 3 -19 23 -34 46 -15 22 -37 51 -50 64 -12 13 -45 55 -74 93 -56
74 -87 102 -103 92 -13 -8 -13 -55 0 -55 7 0 53 -53 133 -155 116 -149 247
-381 317 -565 18 -47 37 -94 41 -105 26 -59 94 -295 110 -378 5 -27 15 -63 23
-80 8 -18 19 -57 25 -87 14 -77 32 -262 26 -268 -5 -5 -9 -1 -119 122 -107
119 -276 349 -276 375 0 6 5 11 10 11 6 0 10 -5 10 -11 0 -11 11 -24 105 -127
55 -61 161 -152 176 -152 5 0 9 3 9 8 0 9 -303 322 -313 322 -4 0 -7 -10 -7
-22 -1 -21 -2 -21 -11 -5 -6 9 -7 27 -3 40 6 19 5 20 -9 8 -14 -11 -18 -11
-24 5 -3 11 -12 23 -20 27 -7 4 -13 12 -13 17 0 5 -12 22 -26 37 -14 15 -30
37 -35 48 -5 11 -19 36 -30 55 -12 19 -46 82 -77 140 -30 58 -59 109 -63 114
-5 6 -9 26 -9 45 -1 20 -7 52 -14 71 -40 104 -106 297 -106 311 0 16 -11 56
-48 179 -32 109 -120 289 -239 491 -70 119 -156 219 -188 219 -24 0 -17 -20
30 -91 25 -37 45 -74 45 -82 0 -8 26 -51 58 -94 51 -69 81 -121 176 -308 30
-60 119 -344 150 -480 25 -108 47 -173 60 -178 8 -3 11 -16 8 -36 -2 -17 2
-46 10 -64 12 -26 13 -56 7 -157 -4 -69 -13 -226 -19 -350 -7 -124 -14 -238
-17 -255 -2 -16 -8 -69 -12 -116 -4 -54 -14 -97 -24 -113 -9 -14 -17 -38 -17
-53 0 -15 -6 -45 -14 -68 -8 -22 -22 -67 -31 -100 -10 -33 -24 -74 -32 -92 -7
-17 -13 -37 -13 -45 0 -7 -7 -22 -15 -32 -8 -11 -15 -30 -15 -43 0 -14 -6 -23
-15 -23 -8 0 -15 -9 -15 -19 0 -11 -4 -23 -10 -26 -15 -9 -11 27 5 49 8 11 15
30 15 42 0 13 4 25 10 29 5 3 14 20 19 38 5 18 21 64 35 102 14 39 26 82 26
96 0 15 7 32 15 39 16 14 21 75 6 84 -5 4 -13 -8 -16 -26 -4 -18 -11 -37 -15
-43 -4 -5 -18 -44 -30 -85 -13 -41 -27 -79 -31 -85 -4 -5 -12 -26 -17 -45 -6
-19 -20 -60 -32 -90 -29 -73 -35 -107 -20 -125 9 -11 7 -20 -8 -42 -10 -15
-27 -40 -36 -55 -9 -15 -29 -31 -44 -34 -15 -4 -33 -12 -40 -17 -16 -13 -27 0
-98 108 -26 39 -55 82 -65 97 -11 15 -19 30 -19 34 0 3 -9 17 -20 31 -29 37
-25 52 24 119 59 80 148 246 195 364 12 30 26 64 31 75 40 93 98 441 88 529
-11 94 -58 96 -58 2 0 -62 -24 -251 -41 -321 -39 -164 -82 -292 -121 -360 -7
-11 -32 -58 -56 -105 -24 -47 -52 -98 -61 -114 -28 -52 -148 -231 -163 -246
-68 -66 -278 -221 -289 -214 -6 3 5 24 24 47 44 55 88 123 111 172 10 22 23
48 27 57 5 10 9 23 9 28 0 6 25 63 56 127 31 64 65 146 76 182 11 36 27 75 34
86 8 11 14 39 14 63 0 24 5 53 11 64 16 29 39 120 49 196 5 35 13 68 17 74 3
7 12 51 19 98 7 47 20 128 29 180 8 52 22 138 31 190 9 59 17 191 20 346 5
234 4 255 -15 309 -11 32 -27 65 -35 74 -8 9 -16 24 -17 35 -2 10 -4 -148 -5
-350 -1 -325 -3 -385 -22 -504 -12 -74 -26 -169 -32 -210 -14 -95 -34 -205
-53 -295 -13 -61 -38 -181 -53 -252 -5 -28 -34 -31 -34 -4 0 11 -14 75 -30
143 -17 67 -37 151 -45 185 -8 34 -15 77 -15 96 0 19 -5 47 -10 63 -6 16 -14
72 -20 124 -13 130 -25 208 -33 216 -3 4 -14 4 -23 0 -15 -6 -16 -17 -9 -99
22 -252 66 -493 123 -662 11 -33 23 -76 27 -95 4 -19 12 -42 18 -51 8 -13 4
-30 -16 -73 -15 -31 -27 -59 -27 -62 0 -3 -6 -20 -14 -37 -8 -18 -17 -40 -20
-50 -3 -10 -12 -17 -18 -15 -13 5 -102 144 -119 188 -6 14 -21 39 -35 57 -13
17 -24 35 -24 38 0 4 -6 21 -14 38 -76 166 -115 343 -132 597 -6 100 -11 120
-30 120 -25 0 -29 -33 -22 -187 7 -164 36 -306 92 -461 38 -105 153 -319 217
-402 50 -67 48 -78 -48 -230 -73 -115 -108 -160 -125 -160 -10 0 -37 10 -62
21 -43 22 -48 28 -112 149 -11 19 -21 37 -24 40 -11 11 -99 268 -125 365 -8
33 -21 76 -27 95 -23 73 -38 191 -48 385 -12 246 -1 718 18 737 6 6 12 22 12
34 0 13 4 25 9 28 5 4 12 30 16 59 7 57 34 157 70 257 13 36 26 76 30 90 37
139 133 335 226 458 38 51 69 95 69 99 0 10 102 115 165 169 42 36 63 63 72
90 13 42 10 54 -13 54 -27 0 -294 -278 -294 -306 0 -5 -11 -19 -25 -32 -79
-75 -179 -277 -270 -547 -21 -60 -48 -130 -61 -155 -13 -25 -24 -51 -24 -57 0
-7 -4 -13 -9 -13 -9 0 -81 -142 -81 -159 0 -5 -7 -22 -15 -37 -15 -29 -20 -54
-10 -54 18 0 76 80 82 113 9 56 23 55 25 -2 0 -28 1 -56 2 -61 1 -6 -10 -16
-24 -23 -14 -7 -35 -32 -47 -57 -12 -25 -26 -49 -30 -55 -4 -5 -19 -32 -32
-60 -13 -27 -34 -63 -46 -80 -11 -16 -30 -48 -42 -70 -11 -22 -38 -67 -59
-100 -21 -33 -47 -76 -57 -95 -16 -29 -88 -130 -126 -176 -45 -55 -125 -162
-129 -174 -7 -19 -94 -132 -141 -183 -19 -20 -42 -49 -51 -65 -9 -15 -25 -33
-34 -41 -10 -8 -26 -32 -37 -53 -11 -21 -24 -36 -29 -33 -6 4 -10 98 -9 233 0
350 21 597 60 737 36 124 35 117 3 113 -31 -3 -43 -29 -70 -163 -40 -194 -53
-338 -54 -598 0 -146 4 -266 10 -276 5 -10 11 -63 13 -118 2 -54 9 -108 15
-119 5 -10 13 -50 17 -89 4 -38 13 -81 20 -95 21 -43 27 -80 12 -80 -7 0 -43
25 -80 56 -68 57 -134 152 -172 244 -10 25 -26 63 -36 86 -11 22 -19 48 -19
57 0 9 -4 18 -9 21 -24 15 -19 248 9 431 5 33 16 114 25 180 9 66 23 145 30
175 38 147 104 355 125 392 13 23 13 78 0 78 -6 0 -13 -8 -17 -17 -3 -10 -11
-25 -18 -33 -34 -44 -152 -359 -174 -465 -63 -311 -71 -360 -72 -495 -2 -128
15 -357 31 -420 5 -19 12 -64 15 -100 16 -157 53 -326 96 -441 16 -42 29 -81
29 -87 0 -6 6 -23 14 -39 8 -15 22 -46 32 -68 45 -108 202 -303 273 -340 54
-27 36 -35 -81 -35 l-113 0 -104 70 c-158 107 -228 168 -267 232 -59 96 -101
198 -128 307 -23 96 -36 120 -60 121 -16 0 6 -135 36 -220 57 -164 49 -179
-30 -57 l-54 81 12 161 c6 88 14 268 19 400 4 132 11 247 15 255 3 8 13 65 22
125 8 61 19 137 24 170 5 33 13 80 19 105 13 56 14 117 2 124 -5 4 -12 -8 -16
-26 -3 -18 -12 -46 -20 -63 -7 -16 -18 -55 -24 -85 -6 -30 -18 -86 -26 -125
-29 -143 -55 -397 -65 -645 -6 -140 -11 -268 -12 -285 -1 -16 -1 -61 0 -100 1
-38 0 -91 -4 -116 -3 -27 -1 -55 5 -67 6 -11 18 -120 26 -242 8 -121 17 -225
20 -231 8 -12 -2 -59 -13 -59 -29 1 -192 513 -192 604 0 21 -26 21 -34 -1 -10
-24 4 -140 20 -180 8 -18 14 -43 14 -57 0 -13 7 -37 15 -52 8 -16 15 -37 15
-47 0 -9 4 -25 10 -35 25 -47 40 -91 42 -132 3 -40 1 -45 -17 -42 -28 4 -107
93 -164 187 -51 85 -111 207 -111 227 0 7 -6 30 -14 53 -45 129 -51 191 -50
480 1 273 5 319 39 465 9 36 22 101 30 145 23 123 34 176 45 209 5 17 24 90
41 161 90 379 211 685 313 794 120 126 175 175 239 210 99 53 236 49 292 -9
25 -26 45 -31 45 -11 0 17 -57 70 -83 76 -15 4 -30 11 -33 16 -9 15 -131 10
-176 -8 -94 -36 -251 -162 -281 -225 -8 -17 -46 -62 -85 -102 -63 -64 -75 -82
-107 -166 -20 -52 -43 -108 -52 -125 -29 -58 -92 -258 -118 -380 -9 -44 -23
-103 -31 -132 -8 -28 -14 -62 -14 -75 -1 -12 -9 -41 -20 -63 -11 -22 -19 -61
-20 -86 0 -100 -56 -209 -123 -242 -55 -27 -245 -35 -310 -13 -26 9 -62 16
-79 16 -38 0 -159 29 -172 41 -12 10 21 49 41 49 47 0 212 127 303 233 158
184 276 380 334 552 15 44 31 89 35 100 17 39 73 181 86 215 7 19 30 78 50
130 21 52 44 113 52 135 8 22 19 44 24 50 5 5 9 17 9 27 0 10 18 56 40 103 22
47 40 88 40 91 0 17 168 360 208 424 76 122 146 222 186 267 23 27 77 92 119
145 43 54 84 101 91 105 11 6 158 139 210 189 6 6 63 47 126 93 160 114 416
243 620 311 109 37 248 70 291 70 19 0 50 5 69 10 55 16 269 29 333 20 34 -5
91 -25 142 -50 54 -28 91 -40 102 -36 15 6 11 14 -32 55 -78 74 -153 96 -325
95 -132 0 -301 -21 -405 -49 -27 -8 -79 -21 -115 -30 -163 -42 -447 -172 -596
-272 -39 -27 -102 -70 -141 -96 -153 -103 -339 -286 -486 -477 -53 -69 -108
-139 -122 -156 -14 -18 -25 -36 -25 -40 -1 -15 -51 -67 -57 -60 -23 23 164
307 325 494 163 188 272 287 437 398 77 51 165 110 195 131 30 21 118 64 195
96 77 32 154 64 170 71 116 49 544 166 608 166 13 0 38 7 56 16 19 9 45 14 64
11 18 -3 70 -1 117 3 47 4 117 5 155 2 39 -3 109 -6 156 -7z m1976 -316 c21
-43 45 -220 40 -294 -6 -91 -22 -170 -44 -220 -28 -65 -62 -115 -78 -115 -8 0
-25 17 -38 38 -14 20 -42 55 -64 77 -50 50 -58 72 -33 85 22 12 70 81 107 153
35 70 63 176 63 240 0 30 3 57 7 61 11 11 27 1 40 -25z m-4302 -22 c38 -196
84 -302 164 -382 22 -22 40 -43 41 -46 0 -3 -19 -26 -41 -50 -23 -24 -53 -62
-68 -84 -26 -40 -40 -55 -53 -55 -15 0 -71 100 -90 165 -36 116 -28 399 14
478 12 24 25 14 33 -26z m3950 -1459 c28 -17 62 -42 77 -55 l27 -26 30 26 c68
57 165 40 176 -31 4 -20 10 -47 16 -60 5 -13 9 -50 9 -83 0 -57 2 -62 44 -105
78 -79 117 -192 79 -226 -22 -20 -92 -37 -125 -31 -21 4 -27 -5 -61 -77 -40
-86 -116 -174 -145 -168 -25 5 -100 124 -117 186 -24 87 -23 86 -109 94 -94 9
-186 47 -186 77 0 35 44 105 104 164 l59 58 -21 72 c-11 40 -23 102 -27 140
-6 64 -5 68 17 77 35 14 97 1 153 -32z m559 -27 c14 -30 31 -45 82 -71 65 -34
78 -56 49 -80 -8 -7 -15 -23 -15 -36 0 -17 6 -23 26 -26 29 -3 43 -26 68 -108
18 -59 27 -82 76 -205 18 -44 38 -96 45 -115 24 -64 43 -115 65 -170 13 -30
29 -75 36 -100 18 -65 42 -128 58 -153 7 -12 33 -58 56 -102 23 -44 53 -93 65
-110 184 -252 294 -361 443 -435 99 -49 97 -51 -81 -95 -92 -22 -119 -25 -234
-21 -151 5 -199 20 -241 75 -42 54 -56 95 -48 147 4 31 1 52 -8 67 -22 33 -53
134 -65 207 -10 62 -33 167 -44 200 -3 8 -22 69 -42 135 -45 146 -47 149 -74
153 -18 3 -21 -1 -21 -31 0 -19 7 -48 15 -63 8 -16 15 -38 15 -49 0 -12 4 -25
8 -30 15 -17 41 -98 52 -160 6 -33 19 -96 30 -140 41 -177 59 -262 66 -305 3
-25 15 -70 25 -100 47 -139 75 -410 66 -640 -12 -300 -91 -546 -232 -730 -66
-85 -92 -110 -116 -110 -20 0 -21 4 -16 45 4 24 16 70 27 102 12 32 25 75 31
96 5 21 13 45 18 55 5 9 13 40 19 67 6 28 20 88 31 135 21 86 58 580 46 601
-18 28 -34 -3 -65 -126 -20 -77 -67 -210 -109 -308 -22 -50 -27 -87 -13 -87 9
0 52 55 52 67 1 13 37 53 48 53 13 0 18 -19 27 -87 5 -39 3 -53 -8 -60 -16 -9
-32 -56 -42 -123 -4 -25 -19 -88 -32 -140 -14 -52 -28 -106 -31 -120 -3 -14
-11 -28 -17 -32 -7 -4 -16 -20 -20 -35 -19 -76 -105 -212 -105 -165 0 9 4 33
10 52 5 19 11 78 14 130 3 52 11 162 20 245 8 82 13 152 11 155 -2 3 -5 130
-6 281 -1 150 -6 287 -11 304 -5 16 -11 68 -14 115 -6 113 -14 170 -22 170
-19 0 -37 -70 -36 -145 1 -75 27 -435 40 -535 3 -28 0 -57 -8 -75 -30 -66
-118 -186 -118 -159 0 4 18 61 41 126 33 98 41 132 41 201 1 45 -3 91 -10 102
-12 23 -14 19 -30 -55 -27 -125 -57 -208 -129 -358 -19 -40 -32 -80 -29 -89 5
-11 2 -14 -9 -9 -10 3 -18 -1 -22 -12 -7 -19 -30 -46 -121 -142 -54 -58 -74
-71 -143 -99 -72 -28 -91 -31 -185 -31 -59 0 -104 4 -102 9 2 5 26 26 54 48
116 87 235 260 285 416 12 34 27 76 34 92 14 30 29 91 45 177 5 27 11 52 15
58 5 8 28 122 41 200 4 24 25 269 26 300 1 64 -14 355 -22 406 -6 35 -15 94
-20 130 -6 36 -15 74 -21 85 -15 28 -5 36 54 44 72 10 179 68 442 242 60 40
112 74 115 75 3 2 18 20 34 42 l29 38 -18 60 c-11 34 -26 63 -37 69 -27 14
-76 1 -118 -31 -30 -23 -195 -100 -215 -100 -4 0 -47 -19 -96 -42 -105 -48
-127 -43 -75 18 18 22 42 57 52 79 18 37 23 40 69 46 58 7 130 41 139 65 4 9
4 32 0 50 -11 59 -2 66 51 43 64 -28 80 -23 80 26 0 38 1 40 35 43 47 5 51 11
39 56 -10 36 -11 37 -29 21 -19 -17 -32 -17 -74 0 -17 7 -18 5 -12 -27 9 -48
-9 -63 -61 -49 -38 11 -133 84 -169 131 -26 34 -32 151 -11 202 20 47 62 76
87 61 14 -10 21 -6 39 18 29 39 45 37 65 -10z m-3200 -898 c-15 -292 -5 -503
28 -626 15 -59 3 -77 -39 -58 -63 29 -236 52 -365 49 -69 -2 -130 0 -134 4 -4
4 15 34 43 65 27 32 71 90 98 128 26 39 58 81 70 95 80 90 275 436 275 488 0
21 8 32 23 32 7 0 7 -62 1 -177z m3313 139 c-10 -10 -42 -31 -72 -47 -30 -15
-55 -31 -55 -35 0 -9 -143 -94 -184 -110 -23 -8 -31 -8 -38 2 -11 18 -10 36 2
43 17 11 11 24 -15 31 -35 9 -31 16 18 37 49 20 88 22 104 6 7 -7 22 -9 40 -4
l28 7 -34 12 c-28 10 -31 14 -17 19 10 4 36 5 59 2 23 -3 36 -2 30 1 -16 7
-17 24 -2 24 6 0 25 6 42 14 85 38 129 37 94 -2z m-1627 -62 c0 -12 66 -148
88 -182 101 -155 280 -403 332 -460 48 -52 58 -67 43 -68 -5 -1 -71 -2 -148
-3 -137 -3 -230 -16 -310 -43 -23 -8 -46 -14 -53 -14 -16 0 -15 49 2 102 25
79 34 300 20 550 -3 64 -3 122 1 128 7 11 25 4 25 -10z m1206 -75 c-5 -27 -2
-45 15 -75 17 -30 20 -42 11 -53 -16 -19 -87 -41 -102 -32 -19 12 -40 71 -40
112 1 59 23 79 94 82 27 1 28 0 22 -34z m-3131 -735 c185 -31 278 -50 291 -61
8 -6 14 -25 14 -42 0 -17 4 -44 9 -61 48 -158 89 -273 120 -336 106 -216 147
-270 201 -270 41 0 46 -17 15 -50 -16 -17 -24 -33 -20 -40 12 -20 80 -5 121
26 l37 28 200 2 c138 2 208 6 224 15 31 17 107 -2 177 -44 61 -36 118 -42 124
-13 3 12 -7 27 -25 42 -32 25 -25 31 42 36 l39 3 59 115 c32 63 71 140 86 170
16 30 42 96 59 145 27 77 38 123 67 262 4 18 17 24 78 37 159 32 355 55 484
56 l61 0 91 -87 91 -87 0 -60 c0 -34 -5 -110 -11 -171 -6 -60 -14 -153 -19
-205 -5 -52 -11 -107 -15 -121 -6 -22 -3 -27 15 -32 12 -3 32 -2 44 2 29 12
112 102 133 146 22 46 48 43 49 -5 2 -199 2 -200 28 -200 13 0 29 7 36 15 15
18 40 20 40 3 0 -7 -9 -33 -20 -57 l-20 -43 -75 7 c-80 7 -157 30 -240 71 -27
13 -67 27 -88 31 -20 3 -39 9 -42 12 -2 4 5 27 16 51 37 83 11 190 -33 134
-62 -79 -183 -164 -234 -164 -18 0 -54 -14 -159 -61 -11 -5 -33 -18 -50 -29
-16 -11 -46 -28 -65 -39 -52 -29 -151 -101 -202 -146 -35 -31 -50 -54 -67
-107 -13 -38 -27 -68 -32 -68 -5 0 -9 -7 -9 -15 0 -16 55 -22 62 -7 14 33 222
131 388 184 144 45 142 45 195 32 28 -7 66 -13 85 -13 19 -1 52 -7 75 -15 22
-8 60 -20 85 -27 24 -8 64 -31 88 -51 24 -21 50 -38 59 -38 9 0 55 38 102 85
83 83 103 96 116 75 6 -10 -37 -88 -108 -193 -47 -69 -224 -257 -242 -257 -16
0 -29 -35 -20 -50 3 -5 11 -10 17 -10 6 0 20 -8 31 -17 15 -15 37 -18 118 -17
111 0 112 0 80 -70 -11 -23 -27 -59 -36 -81 -84 -203 -196 -310 -482 -461
l-83 -44 -407 -1 c-274 -1 -408 2 -411 9 -2 6 8 28 21 49 13 21 31 61 40 90
20 62 23 198 5 210 -18 11 -639 12 -660 1 -15 -7 -18 -22 -18 -85 0 -84 20
-155 60 -218 15 -23 25 -45 23 -50 -2 -6 -159 -9 -419 -8 l-417 3 -71 35 c-39
20 -78 40 -86 45 -8 5 -49 30 -90 54 -149 89 -265 229 -335 404 -16 40 -32 75
-37 78 -4 3 -8 14 -8 24 0 17 8 19 93 17 74 -2 100 2 134 18 48 23 58 56 22
76 -66 35 -228 228 -308 366 -77 134 -44 139 80 13 49 -49 96 -90 105 -90 8 0
35 16 60 36 51 42 178 88 274 98 35 4 72 12 81 17 11 6 28 5 46 -2 15 -6 46
-14 68 -19 95 -20 336 -122 418 -177 54 -37 71 -43 88 -33 11 7 10 12 -4 28
-9 10 -24 43 -33 73 -21 69 -36 88 -136 163 -168 126 -295 193 -419 220 -61
13 -155 78 -203 140 -15 20 -36 36 -47 36 -16 0 -19 -7 -19 -54 0 -29 7 -70
15 -89 22 -54 19 -64 -22 -71 -21 -4 -60 -18 -88 -31 -84 -40 -166 -62 -248
-68 -89 -6 -107 3 -107 58 0 19 -4 36 -9 39 -4 3 -11 29 -15 58 -4 29 -14 72
-22 96 -13 40 -13 46 6 87 22 49 43 57 60 24 34 -63 113 -138 180 -171 123
-60 186 -61 136 -1 -37 44 -96 240 -96 322 0 22 -4 43 -10 46 -28 17 -3 54
164 245 12 14 33 40 46 58 l24 33 141 -6 c77 -3 167 -10 200 -15z m-851 -392
c20 -29 21 -78 2 -78 -20 0 -24 8 -35 76 -9 61 -3 98 10 52 4 -15 14 -37 23
-50z m2087 -156 c19 -35 39 -73 46 -85 6 -12 32 -44 57 -71 49 -52 51 -56 37
-56 -30 0 -259 164 -260 186 -1 6 9 22 20 35 12 13 28 34 37 47 18 27 20 25
63 -56z m-102 -112 c30 -27 60 -50 67 -50 17 0 19 -30 2 -31 -7 -1 -47 -2 -88
-4 -41 -1 -102 -7 -135 -13 -68 -13 -89 -4 -60 28 10 11 23 20 29 20 7 0 34
23 61 50 27 28 54 50 60 50 5 0 34 -22 64 -50z m1355 -179 c67 -32 142 -68
169 -79 49 -22 56 -32 34 -50 -25 -21 -64 -25 -71 -7 -4 13 -13 15 -32 11 -44
-11 -64 1 -64 39 0 32 -3 35 -37 40 -21 4 -49 11 -63 17 -14 5 -76 12 -137 15
-86 5 -113 9 -113 19 0 10 14 14 45 14 25 0 53 4 63 9 14 7 63 25 81 30 2 1
58 -26 125 -58z m-2649 34 c22 -8 54 -15 72 -15 34 0 180 -59 148 -60 -12 0
-26 5 -33 12 -17 17 -165 22 -252 8 -41 -6 -91 -14 -110 -17 -46 -7 -60 -19
-60 -52 0 -23 -8 -29 -60 -50 l-60 -24 -25 23 c-14 13 -25 27 -25 31 0 10 77
49 98 50 9 0 31 9 47 20 17 10 41 24 55 31 14 6 32 18 41 26 39 32 104 38 164
17z m2540 -104 c3 -6 27 -13 53 -17 50 -7 75 -21 66 -35 -6 -10 -54 -1 -68 12
-6 5 -30 9 -55 10 -57 1 -103 14 -81 22 52 19 76 21 85 8z m-2530 -10 c14 -6
-3 -11 -58 -16 -42 -4 -80 -11 -83 -16 -3 -5 -22 -9 -42 -9 -53 0 -26 22 46
36 68 14 110 15 137 5z m-1102 -123 c8 -18 35 -55 61 -83 55 -59 67 -92 41
-112 -11 -7 -25 -13 -33 -13 -8 0 -22 -10 -33 -22 l-19 -23 -20 24 c-27 31
-25 43 4 35 32 -8 42 12 19 39 -26 31 -50 85 -58 130 -10 63 15 79 38 25z
m4665 -17 c-3 -27 -17 -71 -31 -99 -23 -45 -24 -50 -10 -65 9 -8 13 -23 10
-32 -6 -14 -11 -13 -46 5 -22 11 -42 20 -44 20 -2 0 -13 -14 -26 -30 l-22 -31
23 -19 c13 -11 37 -22 55 -26 17 -3 34 -13 38 -22 10 -28 -11 -34 -59 -18 -62
21 -73 20 -80 -7 -6 -26 -201 -226 -231 -237 -42 -16 -59 15 -30 54 8 11 15
39 15 62 0 40 3 44 53 74 28 18 67 46 85 61 18 16 42 29 52 29 15 0 20 7 20
26 0 17 6 28 19 31 10 2 31 30 47 61 16 32 46 74 66 96 21 21 38 42 38 46 0
10 49 70 57 70 3 0 3 -22 1 -49z m-4444 -281 c4 0 31 -20 59 -45 29 -25 58
-45 65 -45 8 0 27 -9 43 -21 22 -15 28 -26 24 -40 -4 -11 -1 -42 6 -70 10 -37
10 -52 1 -61 -16 -16 -101 51 -202 161 -82 90 -83 91 -131 91 -26 0 -51 -4
-54 -10 -11 -18 -25 -10 -25 15 0 21 5 25 28 25 89 0 122 22 87 56 -8 8 -11
22 -8 30 5 12 17 4 52 -35 25 -28 50 -51 55 -51z m4412 -131 c3 -6 2 -15 -4
-22 -5 -7 -17 -73 -26 -147 -17 -135 -32 -227 -62 -402 -14 -84 -69 -272 -94
-323 -13 -26 -55 -139 -92 -246 -38 -110 -91 -168 -288 -318 -47 -36 -105 -82
-129 -103 -62 -54 -145 -100 -166 -92 -25 10 -15 44 66 211 83 174 82 172 109
243 12 30 35 82 51 114 17 35 29 75 29 99 0 36 7 46 73 111 41 39 86 91 102
116 55 87 145 279 145 309 0 9 6 25 14 36 17 25 42 123 33 131 -15 16 -38 -18
-80 -116 -4 -8 -11 -22 -17 -30 -11 -17 -50 -106 -50 -114 0 -12 -115 -194
-148 -236 -52 -64 -193 -200 -208 -200 -25 0 -22 16 13 70 19 30 62 111 95
180 62 130 65 137 93 210 9 25 23 59 29 75 11 26 32 102 51 185 4 19 22 33 77
59 73 35 174 125 229 205 35 52 55 57 106 28 23 -13 45 -28 49 -33z m-4507 39
c115 -140 217 -237 253 -239 7 0 26 -8 43 -18 24 -14 32 -30 50 -97 49 -185
209 -551 265 -604 3 -3 11 -15 18 -28 22 -39 -12 -39 -61 1 -140 116 -243 249
-326 420 -28 59 -55 107 -60 107 -4 0 -20 33 -36 73 -43 111 -73 172 -95 192
-20 18 -20 17 -20 -7 0 -38 84 -300 107 -333 7 -11 13 -27 13 -37 0 -9 9 -22
20 -28 17 -9 20 -18 16 -48 -3 -20 -3 -29 0 -19 6 18 34 24 34 7 0 -26 143
-215 207 -273 33 -31 44 -50 53 -90 16 -75 49 -176 73 -222 40 -78 97 -203 97
-214 0 -4 15 -29 34 -55 19 -26 42 -73 51 -103 16 -49 16 -56 2 -70 -19 -20
-49 -10 -96 32 -20 17 -54 44 -76 59 -22 14 -60 42 -85 62 -25 19 -78 61 -119
92 -108 84 -184 170 -199 227 -11 43 -25 76 -68 172 -8 17 -14 36 -14 42 0 6
-7 27 -16 48 -24 55 -30 71 -52 143 -35 116 -42 144 -52 205 -5 33 -18 101
-29 150 -10 50 -21 115 -25 145 -4 30 -14 103 -23 162 -19 120 -19 121 43 143
49 18 61 18 73 3z m393 -65 c40 -46 61 -123 34 -123 -36 0 -96 78 -96 125 0
21 43 19 62 -2z m3653 -3 c14 -45 -87 -147 -110 -111 -8 14 47 120 65 125 31
8 39 5 45 -14z m595 -132 c0 -29 19 -30 45 -4 14 15 32 26 39 26 7 0 37 -37
66 -81 68 -105 287 -326 455 -461 104 -84 330 -194 420 -205 22 -3 46 -10 53
-15 7 -6 40 -12 75 -13 80 -4 77 -3 77 -17 -1 -16 -78 -73 -128 -96 -20 -9
-53 -29 -72 -43 -43 -33 -184 -101 -265 -128 -33 -11 -96 -25 -140 -30 -79
-10 -80 -9 -109 17 -62 57 -276 276 -276 283 0 4 -16 26 -35 49 -60 72 -162
233 -215 338 -27 56 -50 106 -50 111 0 5 -11 32 -25 59 -40 79 -40 102 -5 141
16 18 30 38 30 43 0 5 10 22 22 38 22 31 38 26 38 -12z m-4809 -71 c28 -54 29
-60 17 -104 -6 -26 -24 -66 -40 -89 -15 -23 -28 -45 -28 -50 0 -32 -140 -261
-244 -399 -61 -81 -290 -319 -336 -348 -57 -36 -295 26 -445 116 -45 28 -110
71 -122 81 -6 6 -34 27 -62 46 -66 45 -64 66 6 62 28 -1 64 3 79 9 16 7 47 15
69 19 125 24 353 146 487 261 29 25 82 71 118 101 36 30 84 73 107 96 47 47
193 236 193 250 0 5 9 17 20 27 19 17 20 16 50 -9 33 -28 50 -27 50 3 0 52 31
24 81 -72z m616 5 c17 -16 43 -54 58 -84 15 -30 37 -66 48 -79 12 -13 44 -50
71 -82 68 -81 213 -191 323 -244 55 -27 93 -51 93 -60 0 -8 -11 -29 -24 -46
-28 -38 -178 -302 -243 -429 -8 -15 -18 -30 -24 -33 -5 -4 -9 -14 -9 -23 -1
-9 -12 -30 -25 -47 l-24 -29 -11 29 c-6 17 -15 44 -21 60 -6 17 -18 44 -25 62
-8 17 -14 34 -14 38 0 4 -20 47 -45 97 -25 50 -45 97 -45 104 0 18 19 18 39 0
23 -20 111 -66 127 -66 23 0 16 30 -30 124 -160 329 -186 391 -242 568 -19 62
-39 123 -44 135 -17 42 22 45 67 5z m3553 23 c0 -19 -46 -170 -76 -252 -51
-136 -63 -163 -203 -455 -86 -178 -82 -189 34 -113 93 61 105 54 60 -34 -31
-62 -91 -215 -110 -279 -12 -42 -38 -19 -87 78 -27 52 -68 127 -91 165 -22 39
-53 93 -67 120 -14 28 -38 69 -53 92 -15 24 -27 47 -27 52 0 5 -7 14 -16 21
-20 17 -14 64 9 68 32 6 180 93 256 152 108 82 210 200 251 293 20 45 74 96
103 97 9 0 17 -2 17 -5z m-1650 -201 c58 -3 111 -10 118 -16 26 -22 8 -141
-39 -245 l-18 -42 -198 -3 c-109 -2 -207 0 -218 4 -12 3 -27 25 -38 55 -11 26
-24 58 -30 71 -6 12 -11 55 -11 95 l-1 72 117 5 c64 3 120 9 125 13 4 5 26 6
48 2 22 -3 87 -8 145 -11z m2230 -166 c0 -10 29 -83 64 -162 54 -123 80 -166
167 -283 212 -284 417 -448 644 -517 33 -10 76 -25 96 -33 25 -10 67 -14 135
-13 132 3 134 3 134 -18 0 -42 -183 -250 -319 -363 -71 -59 -189 -139 -205
-139 -7 0 -24 -10 -38 -23 -14 -13 -47 -31 -74 -42 -27 -10 -71 -29 -98 -42
-28 -12 -57 -21 -66 -18 -9 3 -33 27 -53 54 -21 27 -53 61 -72 76 -19 14 -35
32 -35 38 0 7 -26 49 -58 92 -84 115 -175 275 -226 395 -8 19 -24 56 -35 82
-12 26 -21 53 -21 60 0 8 -4 18 -9 23 -6 6 -14 28 -20 50 -5 22 -21 81 -35
130 -13 50 -27 111 -31 138 -5 38 -10 47 -26 47 -10 0 -19 -5 -19 -12 0 -35
44 -248 65 -313 7 -22 18 -58 25 -80 7 -22 22 -62 35 -90 12 -27 35 -79 51
-115 16 -36 48 -98 71 -138 24 -40 43 -75 43 -77 0 -16 108 -151 147 -184 67
-57 57 -68 -69 -72 -135 -5 -427 -1 -455 6 -25 6 -29 25 -11 54 9 16 -2 38
-80 154 -50 74 -100 152 -112 173 -12 22 -32 57 -45 79 -14 22 -29 51 -35 65
-6 14 -20 32 -31 40 -26 21 -17 39 33 70 68 41 234 210 246 250 5 19 44 127
87 240 100 264 127 359 141 495 11 107 13 108 55 20 21 -44 39 -88 39 -97z
m-4671 -32 c5 -17 13 -51 16 -76 4 -25 11 -49 15 -55 4 -5 11 -26 14 -45 4
-19 11 -44 16 -55 5 -11 25 -63 45 -115 20 -52 40 -104 45 -115 19 -44 39 -93
60 -151 24 -70 104 -158 223 -246 37 -28 67 -54 67 -59 0 -4 -13 -28 -30 -52
-16 -25 -30 -47 -30 -50 0 -4 -13 -26 -30 -50 -16 -25 -30 -48 -30 -51 0 -4
-9 -19 -19 -34 -11 -15 -49 -72 -85 -127 -36 -55 -76 -112 -88 -127 -20 -26
-21 -29 -5 -46 52 -57 7 -67 -306 -66 -189 1 -231 4 -244 16 -13 14 -19 13
-51 -2 -20 -10 -45 -32 -55 -49 -10 -18 -36 -43 -57 -56 l-38 -24 -59 29 c-32
15 -77 36 -100 45 -23 10 -44 23 -47 30 -2 7 -31 27 -63 44 -71 38 -256 183
-338 266 -98 98 -182 215 -170 235 4 6 61 10 134 10 96 0 132 4 147 15 10 8
32 15 47 15 42 0 192 66 272 118 87 57 209 154 253 201 59 63 212 276 212 294
0 5 11 23 24 40 36 49 122 226 147 303 12 38 25 73 30 79 5 5 9 16 9 26 0 9
10 29 23 45 l22 29 7 -79 c4 -43 12 -93 17 -110z m3391 -273 c24 -43 50 -89
59 -103 9 -14 26 -45 39 -70 12 -25 32 -58 42 -75 11 -16 23 -37 27 -45 4 -8
35 -63 70 -122 60 -101 70 -129 58 -160 -4 -11 -212 -13 -1195 -11 -724 1
-1192 -2 -1195 -7 -10 -17 15 -50 43 -57 15 -3 61 -5 102 -4 117 4 218 5 795
5 554 0 582 0 1035 -3 146 -1 291 1 323 5 l59 7 -5 -59 c-4 -50 -26 -136 -102
-394 -7 -25 -16 -62 -20 -82 -3 -20 -13 -46 -23 -58 -15 -18 -21 -20 -46 -10
-18 6 -96 10 -199 10 l-169 -2 -46 29 c-33 20 -48 37 -52 58 -4 17 -19 54 -33
83 -28 56 -33 82 -18 97 20 21 52 123 58 185 3 36 10 71 16 78 5 7 8 14 6 16
-2 1 -52 0 -111 -3 -83 -5 -111 -11 -120 -23 -7 -9 -49 -33 -93 -53 -44 -20
-87 -43 -97 -52 -16 -15 -26 -14 -118 6 -135 28 -295 28 -432 0 -99 -20 -101
-20 -127 -2 -14 10 -61 34 -104 53 -44 18 -81 39 -84 47 -6 15 -40 21 -150 26
-61 3 -80 1 -73 -8 5 -6 12 -30 15 -54 8 -67 26 -132 53 -189 l25 -53 -31 -67
c-17 -37 -34 -78 -37 -92 -4 -15 -24 -36 -53 -53 -46 -29 -47 -29 -204 -28
-111 1 -163 -2 -177 -11 -35 -21 -49 7 -95 188 -24 93 -52 194 -61 224 -9 30
-19 75 -22 100 -3 25 -10 50 -15 57 -21 26 3 32 97 26 82 -5 95 -4 101 11 10
25 20 19 36 -21 9 -25 27 -45 50 -57 l36 -20 26 25 c19 18 26 34 26 65 0 38
-3 43 -34 58 -34 16 -49 15 -93 -6 -17 -8 -26 -8 -38 2 -12 10 -41 11 -119 7
-102 -7 -104 -6 -120 18 -15 23 -14 27 40 117 31 50 60 101 65 113 5 11 18 34
29 50 11 17 24 39 30 50 6 11 21 38 34 60 13 22 44 78 70 125 27 47 54 95 62
108 l14 22 1063 0 1063 0 44 -77z m-2162 -637 c3 -13 -1 -17 -14 -14 -11 2
-20 11 -22 22 -3 13 1 17 14 14 11 -2 20 -11 22 -22z m-659 -46 c25 -13 34
-39 20 -56 -18 -22 -29 -17 -44 18 -18 45 -10 57 24 38z m3439 -32 c-2 -25 -8
-34 -26 -36 -30 -4 -39 23 -17 48 28 31 47 25 43 -12z m-2361 -34 c21 -9 66
-30 100 -45 35 -16 67 -29 72 -29 5 0 22 -11 38 -24 52 -43 92 -59 122 -47 51
20 199 41 289 41 71 0 224 -21 298 -42 16 -4 57 14 97 43 22 16 44 29 48 29 5
0 39 14 76 31 123 55 132 59 148 53 8 -4 15 -14 15 -23 0 -24 -27 -98 -63
-169 l-31 -64 37 -71 c48 -93 48 -107 0 -107 -21 0 -65 -13 -99 -29 l-61 -29
-479 1 -479 0 -35 23 c-19 12 -57 26 -83 30 -27 3 -51 13 -54 20 -3 8 12 47
33 87 21 42 35 80 31 88 -4 8 -15 28 -25 44 -27 44 -66 170 -59 189 8 20 17
20 64 0z m-1109 -38 c3 -26 -10 -51 -50 -101 -5 -5 -32 -42 -61 -81 -78 -106
-122 -154 -140 -154 -10 0 -17 3 -17 6 0 11 23 48 42 68 11 12 35 46 55 76 19
30 43 66 52 80 10 14 28 48 41 75 13 28 28 53 34 57 21 15 41 3 44 -26z m3561
-31 c34 -66 149 -245 179 -278 12 -14 13 -20 3 -30 -10 -9 -22 -2 -57 38 -25
28 -57 68 -71 90 -14 22 -47 65 -73 95 -68 79 -75 96 -55 126 8 13 21 24 28
24 6 0 27 -29 46 -65z m-3417 38 c26 -23 23 -37 -16 -67 -40 -30 -52 -32 -64
-10 -7 12 -2 28 16 55 28 43 37 46 64 22z m3257 -22 c25 -34 26 -45 7 -60 -11
-9 -22 -6 -52 14 -52 36 -52 34 -24 55 34 26 45 25 69 -9z m-3065 -47 c9 -8
16 -27 16 -42 0 -15 7 -52 16 -82 9 -30 27 -93 40 -140 l23 -85 -24 -20 c-14
-12 -25 -26 -25 -32 0 -20 44 -82 63 -88 19 -7 22 -21 7 -30 -16 -10 6 -41 37
-53 15 -6 44 -13 63 -14 29 -2 36 -8 38 -27 7 -47 -55 -67 -104 -34 -21 13
-30 14 -45 5 -39 -25 -55 -14 -138 95 -45 58 -84 116 -87 128 -7 30 22 127 47
153 22 25 32 27 60 11 15 -7 24 -7 35 1 12 11 10 17 -14 45 -15 19 -34 34 -44
34 -9 1 -40 -15 -69 -34 -89 -58 -186 -41 -177 31 2 22 19 41 73 81 63 47 169
111 187 112 4 1 14 -6 22 -15z m2903 -19 c26 -14 80 -49 118 -78 79 -59 90
-85 54 -123 -35 -37 -97 -33 -163 11 -29 19 -57 35 -62 35 -5 -1 -24 -14 -43
-30 -41 -35 -34 -55 19 -46 43 7 55 -3 90 -77 16 -35 20 -57 16 -82 -4 -19
-11 -35 -16 -35 -5 0 -30 -33 -57 -72 -84 -127 -132 -171 -147 -133 -7 19 -40
19 -56 0 -30 -37 -117 -3 -108 42 3 15 15 19 66 21 l63 3 29 62 c16 34 37 75
47 90 18 28 18 29 -12 53 -27 21 -29 26 -17 44 7 12 17 40 22 63 5 23 18 78
30 122 12 44 24 91 27 105 8 44 12 50 32 50 10 0 41 -11 68 -25z m-3202 -44
c3 -5 -13 -35 -35 -67 -22 -32 -40 -63 -40 -70 0 -7 23 -35 50 -62 53 -52 58
-67 36 -97 -13 -18 -15 -18 -39 -2 -30 20 -93 83 -114 114 -16 24 -12 62 10
85 6 7 29 34 50 61 36 44 68 59 82 38z m3499 -46 c89 -90 84 -124 -29 -220
-46 -40 -57 -45 -74 -35 -31 16 -26 36 24 87 59 59 64 81 31 138 -15 25 -31
45 -36 45 -6 0 -10 9 -10 20 0 36 38 22 94 -35z m162 -200 c19 -63 12 -82 -30
-71 -58 14 -68 126 -11 126 19 0 26 -9 41 -55z m-3850 37 c27 -17 25 -49 -5
-81 -55 -59 -94 -16 -51 54 22 35 35 41 56 27z m308 -64 c27 -43 -32 -101 -64
-63 -11 13 -11 22 4 51 17 38 40 42 60 12z m3221 6 c22 -22 16 -78 -8 -82 -27
-5 -47 17 -47 53 0 48 23 60 55 29z m-3437 -34 c15 -25 8 -40 -19 -40 -22 0
-34 22 -25 45 8 21 29 19 44 -5z m3651 2 c12 -22 -3 -42 -31 -42 -27 0 -35 30
-13 46 25 18 32 18 44 -4z m-2549 -17 c0 -8 -3 -15 -7 -15 -5 0 -25 -15 -45
-34 -21 -19 -45 -36 -55 -39 -13 -3 -11 -5 6 -6 14 0 44 8 68 20 39 19 44 19
65 5 12 -9 28 -16 35 -16 23 0 14 19 -18 35 -22 12 -29 22 -27 38 2 12 11 23
21 25 25 5 87 -36 87 -58 0 -11 9 -24 21 -30 17 -10 24 -7 43 13 18 20 31 24
72 22 59 -2 74 -9 74 -36 0 -12 7 -19 19 -19 14 0 18 5 14 19 -8 29 23 38 112
32 73 -6 80 -8 83 -28 2 -15 10 -23 22 -23 11 0 17 5 15 13 -11 28 11 38 81
35 63 -3 69 -5 72 -25 2 -15 10 -23 22 -23 12 0 20 8 22 23 3 21 7 22 98 22
92 0 95 -1 94 -22 0 -15 5 -23 17 -23 12 0 16 6 12 20 -7 25 25 38 91 35 38
-2 53 -7 66 -25 20 -26 50 -22 50 8 0 41 105 94 125 62 10 -16 -13 -47 -40
-54 -14 -4 -25 -13 -25 -21 0 -19 20 -19 48 1 21 14 26 14 67 -6 25 -12 53
-19 62 -17 14 4 13 5 -4 6 -13 1 -23 7 -23 16 0 8 -5 15 -10 15 -17 0 -62 49
-55 60 9 15 51 12 65 -5 7 -8 18 -15 26 -15 7 0 18 -16 25 -35 15 -40 53 -50
62 -15 4 18 14 20 74 20 65 0 71 -2 81 -26 13 -28 32 -24 32 7 0 17 7 19 75
19 83 0 96 -9 79 -59 l-9 -26 -1184 0 c-920 0 -1185 3 -1193 12 -5 7 -11 27
-11 45 l-2 33 60 -3 c46 -3 64 -8 78 -25 15 -17 20 -19 28 -6 5 7 9 17 9 22 0
4 31 7 70 7 59 0 71 -3 80 -20 17 -31 47 -25 55 11 4 19 16 34 30 39 13 5 26
14 30 19 10 17 65 14 65 -4z"/>
<path d="M5832 8294 c2 -11 11 -20 22 -22 13 -3 17 1 14 14 -2 11 -11 20 -22
22 -13 3 -17 -1 -14 -14z"/>
<path d="M5720 8284 c0 -3 9 -18 20 -34 l20 -28 -28 -18 c-16 -10 -47 -18 -74
-18 -59 -1 -64 -21 -7 -30 31 -5 52 -2 83 14 23 11 47 20 53 20 6 0 17 7 24
17 12 13 12 17 1 21 -8 2 -29 17 -47 33 -32 28 -45 35 -45 23z"/>
<path d="M5936 8268 c-8 -33 -8 -38 8 -38 20 0 37 25 30 44 -9 23 -31 20 -38
-6z"/>
<path d="M5580 8205 c0 -8 5 -15 10 -15 6 0 10 7 10 15 0 8 -4 15 -10 15 -5 0
-10 -7 -10 -15z"/>
<path d="M5939 8163 c-4 -24 5 -60 17 -74 8 -8 14 -21 14 -28 0 -6 7 -14 15
-17 8 -4 15 -12 15 -20 0 -8 5 -14 10 -14 14 0 12 22 -5 44 -8 11 -15 39 -15
62 0 29 -5 44 -16 48 -21 8 -34 8 -35 -1z"/>
<path d="M5835 8148 c-11 -7 -26 -18 -33 -25 -7 -7 -19 -13 -26 -13 -6 0 -27
-12 -45 -27 -27 -24 -33 -36 -35 -76 -2 -34 2 -51 11 -54 21 -8 26 3 13 27 -6
11 -9 29 -5 39 7 22 52 56 86 64 25 6 27 4 32 -36 7 -52 -9 -87 -47 -105 -32
-16 -23 -33 14 -25 44 9 60 43 67 148 3 54 2 95 -3 95 -5 0 -18 -6 -29 -12z"/>
<path d="M5935 7977 c-4 -10 -3 -23 4 -30 16 -16 26 0 14 25 -10 21 -11 22
-18 5z"/>
<path d="M3860 7552 c0 -5 11 -19 25 -32 29 -27 33 -15 6 18 -20 23 -31 28
-31 14z"/>
<path d="M6010 7540 c0 -11 68 -25 78 -16 3 4 0 11 -8 16 -20 13 -70 13 -70 0z"/>
<path d="M6120 7511 c0 -11 39 -25 47 -18 3 3 2 10 -2 16 -8 13 -45 15 -45 2z"/>
<path d="M6033 7253 c-7 -2 -13 -9 -13 -15 0 -6 -11 -19 -25 -30 -33 -26 -58
-81 -50 -108 6 -19 4 -21 -14 -15 -16 5 -22 1 -27 -19 -14 -55 38 -65 74 -13
18 27 21 42 17 78 -4 35 -1 49 14 67 19 22 21 22 45 7 30 -20 45 -77 26 -100
-6 -8 -9 -22 -6 -33 10 -30 45 -62 61 -56 20 8 19 33 -1 41 -12 5 -14 15 -9
54 6 45 4 52 -24 84 -17 20 -31 42 -31 50 0 15 -14 18 -37 8z"/>
<path d="M6017 6974 c-13 -13 -7 -24 14 -24 11 0 19 5 17 12 -5 14 -22 21 -31
12z"/>
<path d="M6060 6935 c0 -14 25 -83 33 -91 17 -17 5 54 -13 76 -11 14 -20 21
-20 15z"/>
<path d="M3905 6530 c-74 -9 -157 -33 -224 -65 -28 -14 -55 -25 -60 -25 -18 0
-216 -153 -284 -219 -38 -36 -92 -95 -120 -131 -28 -36 -54 -67 -57 -70 -3 -3
-18 -25 -34 -50 -16 -25 -53 -74 -81 -110 -28 -36 -68 -92 -89 -125 -20 -33
-61 -94 -91 -135 -30 -41 -66 -97 -80 -124 -24 -44 -25 -50 -11 -64 14 -14 17
-14 35 2 11 10 30 39 43 65 25 52 36 69 133 201 85 116 283 322 386 400 148
114 305 200 449 246 120 39 162 47 264 50 85 2 112 6 127 20 10 9 19 21 19 25
0 12 -220 119 -244 118 -11 -1 -48 -5 -81 -9z m140 -63 l40 -12 -35 -7 c-152
-31 -194 -42 -260 -64 -95 -33 -247 -108 -342 -169 -40 -26 -75 -51 -78 -54
-7 -10 -97 -71 -104 -71 -3 0 -6 5 -6 10 0 6 4 10 9 10 5 0 33 23 62 51 174
165 344 264 534 312 63 15 113 14 180 -6z"/>
<path d="M4655 6519 c-22 -11 -49 -26 -60 -33 -11 -7 -41 -21 -67 -31 -54 -20
-57 -29 -27 -61 19 -20 28 -22 93 -17 94 7 224 -18 351 -67 63 -24 208 -98
258 -131 32 -22 61 -39 63 -39 3 0 24 -15 46 -32 140 -111 309 -288 428 -448
54 -74 105 -142 113 -151 7 -8 17 -24 20 -34 4 -10 10 -15 14 -11 12 11 -21
90 -72 174 -27 46 -58 97 -68 113 -9 17 -45 66 -80 109 -34 43 -89 115 -122
161 -108 149 -301 327 -439 404 -96 54 -215 94 -313 105 -49 5 -90 10 -93 10
-3 0 -23 -9 -45 -21z m191 -54 c63 -13 106 -28 189 -66 25 -12 86 -49 117 -71
12 -10 50 -37 84 -61 76 -55 197 -168 188 -176 -3 -3 -11 2 -18 12 -7 9 -18
17 -25 17 -6 0 -11 4 -11 8 0 15 -119 95 -205 137 -16 9 -37 19 -45 24 -8 5
-22 12 -30 15 -8 3 -22 10 -30 15 -16 9 -76 37 -125 57 -53 21 -109 37 -155
45 -25 4 -70 14 -100 22 l-55 14 35 11 c51 15 105 14 186 -3z"/>
<path d="M5806 6522 c-3 -6 0 -16 7 -24 23 -23 57 -76 57 -87 0 -6 12 -30 27
-52 22 -34 25 -44 15 -59 -17 -28 -6 -47 72 -129 110 -115 137 -141 147 -141
16 0 10 12 -43 94 -29 45 -76 119 -106 166 -132 206 -165 250 -176 232z"/>
<path d="M2538 6255 c-10 -13 -18 -26 -18 -29 0 -3 -13 -24 -29 -48 -25 -38
-44 -76 -83 -168 -30 -73 -37 -90 -58 -145 -12 -33 -28 -74 -36 -92 -8 -17
-14 -36 -14 -41 0 -6 -13 -40 -30 -77 -16 -37 -30 -75 -30 -85 0 -11 -4 -22
-10 -25 -5 -3 -10 -15 -10 -27 0 -19 1 -19 25 3 13 13 25 28 25 32 0 12 119
207 161 262 42 57 102 166 94 173 -4 4 -36 -29 -99 -103 l-25 -30 -1 27 c0 15
4 29 9 32 4 3 11 20 15 38 7 36 9 42 90 206 31 62 56 115 56 117 0 12 -17 2
-32 -20z"/>
<path d="M5797 6217 c-10 -24 -40 -68 -67 -97 -53 -58 -59 -70 -34 -70 29 0
54 21 94 80 28 41 40 69 40 94 0 48 -11 45 -33 -7z"/>
<path d="M2618 5934 c-5 -4 -8 -34 -8 -66 0 -109 70 -198 156 -198 38 0 29 15
-35 55 -53 34 -60 43 -79 99 -12 33 -23 74 -24 89 -2 16 -6 25 -10 21z"/>
<path d="M5290 5884 c0 -4 14 -29 30 -56 17 -26 30 -52 30 -57 0 -5 6 -16 13
-23 7 -7 26 -47 41 -88 22 -62 25 -81 16 -104 -21 -55 12 -64 35 -8 15 34 15
41 -1 92 -18 58 -99 199 -121 213 -7 4 -13 15 -13 22 0 8 -7 15 -15 15 -8 0
-15 -3 -15 -6z"/>
<path d="M6500 5803 c0 -5 4 -15 10 -23 11 -18 25 -7 17 15 -6 15 -27 21 -27
8z"/>
<path d="M5870 5779 l-25 -20 40 6 c57 9 75 15 75 26 0 17 -65 9 -90 -12z"/>
<path d="M5081 5652 c6 -19 81 -107 102 -121 15 -10 17 -8 17 14 0 15 -7 28
-17 32 -10 4 -29 19 -43 33 -38 40 -64 58 -59 42z"/>
<path d="M3158 5618 c-3 -43 2 -62 25 -96 48 -72 140 -85 235 -32 31 18 61 39
65 46 4 8 12 14 17 14 14 0 53 40 46 47 -3 3 -21 -6 -40 -21 -19 -14 -39 -26
-45 -26 -5 0 -16 -6 -23 -13 -15 -14 -96 -37 -132 -37 -40 0 -89 41 -106 89
-17 50 -39 65 -42 29z"/>
<path d="M4711 5503 c-13 -38 -32 -80 -42 -95 -25 -35 -25 -58 1 -51 11 3 20
9 20 13 0 5 6 15 13 22 29 29 62 178 39 178 -4 0 -18 -30 -31 -67z"/>
<path d="M3930 5531 c0 -27 51 -114 85 -144 47 -41 95 -58 169 -59 83 -1 142
22 197 76 31 30 74 114 64 124 -2 3 -15 -8 -27 -23 -76 -96 -128 -131 -211
-141 -87 -10 -174 40 -238 138 -23 36 -39 48 -39 29z"/>
<path d="M2914 5438 c-16 -24 -32 -45 -35 -48 -5 -5 -56 -110 -85 -175 -22
-52 -44 -125 -44 -149 0 -13 -7 -29 -15 -36 -17 -14 -22 -105 -5 -95 6 3 10
15 10 26 0 24 26 109 50 164 49 112 126 279 152 328 19 37 0 27 -28 -15z"/>
<path d="M2723 5396 c-23 -26 -63 -106 -63 -125 0 -33 43 14 74 81 10 20 16
44 14 53 -2 14 -7 12 -25 -9z"/>
<path d="M5685 5200 c-7 -12 18 -24 37 -18 8 3 5 9 -9 16 -14 8 -24 9 -28 2z"/>
<path d="M3235 5181 c-22 -4 -56 -15 -75 -25 -89 -46 -287 -211 -322 -268 -39
-61 -16 -51 72 33 41 39 83 75 93 81 10 5 35 24 55 42 21 18 64 48 97 66 50
28 74 34 138 38 42 3 77 8 77 12 0 11 -49 30 -73 29 -12 -1 -40 -5 -62 -8z"/>
<path d="M4715 5120 l-30 -20 31 0 c17 0 46 -5 65 -11 41 -14 119 -75 119 -93
0 -8 7 -20 16 -27 9 -7 21 -25 27 -39 l11 -25 4 23 c9 55 -75 165 -150 197
-48 19 -57 19 -93 -5z"/>
<path d="M4010 5054 c-14 -3 -39 -12 -57 -20 -17 -8 -36 -14 -42 -14 -6 0 -11
-4 -11 -10 0 -5 -6 -10 -13 -10 -23 0 -110 -84 -106 -102 3 -14 12 -10 48 22
25 22 52 40 62 40 9 0 19 6 22 13 2 7 32 21 66 31 134 40 250 -2 405 -147 87
-81 61 -21 -30 68 -78 78 -166 122 -254 129 -36 2 -76 2 -90 0z"/>
<path d="M4563 4079 c-35 -44 -63 -85 -63 -92 0 -7 -5 -18 -12 -25 -9 -9 -9
-12 0 -12 18 0 56 43 108 121 42 64 53 90 37 88 -5 0 -36 -36 -70 -80z"/>
<path d="M3834 4086 c-8 -21 2 -156 19 -261 51 -305 117 -538 147 -520 15 9
11 66 -5 95 -8 14 -14 37 -15 52 0 14 -6 53 -14 85 -16 67 -41 185 -62 293 -8
41 -21 104 -30 140 -8 36 -14 77 -14 92 0 30 -17 47 -26 24z"/>
<path d="M4040 4078 c0 -26 24 -65 72 -116 57 -61 78 -78 106 -86 44 -14 22
19 -78 119 -58 57 -100 93 -100 83z"/>
<path d="M2840 4005 c-34 -36 -59 -69 -56 -73 6 -6 136 121 136 133 0 16 -24
-3 -80 -60z"/>
<path d="M1289 3938 c-46 -49 -58 -68 -43 -68 15 0 86 65 100 91 23 46 -2 35
-57 -23z"/>
<path d="M1475 3948 c-29 -29 -117 -98 -187 -145 -26 -18 -29 -23 -13 -23 58
0 190 99 238 177 16 25 -10 19 -38 -9z"/>
<path d="M1747 3453 c-2 -5 -1 -57 4 -118 4 -60 8 -168 9 -240 0 -71 4 -136 9
-144 12 -18 31 -5 31 22 0 12 4 28 9 36 7 11 13 9 30 -8 11 -11 23 -21 26 -21
9 0 5 82 -4 114 -33 109 -46 166 -77 344 -4 21 -28 31 -37 15z"/>
<path d="M1575 3330 c2 -69 12 -159 20 -200 17 -82 57 -196 80 -226 14 -18 14
-18 15 9 0 15 -10 56 -21 90 -31 90 -49 171 -59 267 -8 73 -21 137 -36 175 -2
6 -2 -46 1 -115z"/>
<path d="M2042 3260 c0 -19 2 -27 5 -17 2 9 2 25 0 35 -3 9 -5 1 -5 -18z"/>
<path d="M6425 6600 c-3 -5 1 -10 9 -10 8 0 18 5 21 10 3 6 -1 10 -9 10 -8 0
-18 -4 -21 -10z"/>
<path d="M6083 5478 c4 -41 16 -96 27 -122 27 -64 26 -72 -14 -91 -42 -20
-106 -88 -106 -112 0 -40 62 -74 159 -88 l74 -10 18 -67 c20 -72 52 -133 74
-142 27 -10 95 88 95 137 0 12 7 32 15 44 13 19 22 21 64 16 36 -4 55 -1 74
12 30 19 36 55 12 75 -8 7 -15 18 -15 25 0 12 -37 50 -95 98 l-30 25 19 56
c18 52 18 57 3 74 -10 10 -17 28 -17 39 0 36 -11 53 -35 53 -35 0 -79 -26 -98
-60 -22 -36 -32 -38 -52 -6 -22 33 -116 103 -151 112 l-27 7 6 -75z m117 -48
c28 -28 50 -57 50 -65 0 -34 25 -22 81 37 58 61 60 62 75 43 26 -34 27 -63 6
-113 -22 -50 -20 -102 4 -102 24 0 134 -113 134 -137 0 -28 -32 -31 -76 -8
-16 8 -41 15 -55 15 -18 0 -29 8 -37 25 -12 25 -32 34 -32 14 0 -6 7 -26 16
-45 20 -42 12 -127 -16 -164 -17 -22 -21 -23 -33 -10 -21 22 -40 116 -38 190
2 70 15 88 43 63 17 -15 18 -14 18 11 0 19 6 29 20 33 11 3 20 9 20 14 0 12
-7 11 -46 -7 -32 -15 -35 -15 -64 6 -21 15 -39 20 -55 16 -39 -10 -29 -26 15
-26 47 0 60 -18 36 -52 -9 -12 -16 -33 -16 -45 0 -13 -4 -23 -10 -23 -5 0 -10
7 -10 15 0 17 -26 20 -36 4 -8 -13 -93 -6 -124 11 -44 23 -18 58 88 121 29 17
33 24 27 47 -4 15 -13 34 -20 42 -8 8 -18 33 -24 55 -5 22 -13 50 -16 63 -12
39 22 26 75 -28z"/>
<path d="M6290 5288 c0 -13 5 -30 10 -38 7 -11 10 -5 10 23 0 20 -4 37 -10 37
-5 0 -10 -10 -10 -22z"/>
<path d="M6681 5473 c-21 -88 -21 -87 7 -115 15 -14 37 -40 50 -57 18 -24 31
-31 57 -31 33 0 60 20 38 27 -6 2 -25 17 -42 34 -17 16 -42 29 -56 29 -29 0
-31 7 -8 32 22 25 21 88 -3 105 -27 20 -32 16 -43 -24z"/>
<path d="M6589 5464 c-7 -8 -16 -41 -20 -72 -7 -47 -5 -62 11 -87 26 -41 68
-65 80 -45 10 16 -5 40 -25 40 -7 0 -18 6 -24 13 -8 11 -6 18 9 32 25 23 25
35 0 35 -11 0 -20 7 -20 15 0 8 9 24 20 35 11 11 20 27 20 35 0 20 -34 19 -51
-1z"/>
<path d="M6807 5413 c-11 -10 -8 -20 8 -27 10 -4 15 1 15 14 0 20 -11 26 -23
13z"/>
<path d="M6676 5230 c15 -15 56 -17 61 -2 3 8 -7 12 -33 12 -25 0 -35 -3 -28
-10z"/>
<path d="M6790 5018 c0 -26 25 -49 43 -42 29 11 17 48 -15 52 -19 2 -28 -1
-28 -10z"/>
<path d="M7391 3968 c54 -75 129 -140 129 -110 0 7 -94 105 -124 130 -26 21
-28 13 -5 -20z"/>
<path d="M7190 3937 c0 -15 47 -85 71 -103 24 -20 89 -54 102 -54 7 0 -1 10
-18 22 -16 12 -58 51 -92 86 -35 35 -63 57 -63 49z"/>
<path d="M7128 3395 c-4 -16 -10 -61 -13 -100 -4 -38 -13 -110 -20 -160 -21
-141 -26 -205 -16 -205 6 0 13 17 16 38 3 20 15 87 26 148 13 75 19 143 17
210 -2 66 -5 89 -10 69z"/>
<path d="M6535 4690 c-11 -17 5 -32 21 -19 7 6 11 15 8 20 -7 12 -21 11 -29
-1z"/>
<path d="M3344 3305 c-10 -26 0 -36 76 -69 98 -42 170 -93 251 -178 62 -65 78
-76 92 -62 30 30 -146 207 -264 267 -41 20 -82 37 -91 37 -9 0 -20 5 -23 10
-9 15 -35 12 -41 -5z"/>
<path d="M5325 3310 c-3 -5 -15 -10 -25 -10 -18 0 -108 -38 -120 -50 -3 -3
-25 -19 -49 -35 -84 -57 -191 -176 -191 -212 0 -31 37 -7 113 70 70 71 169
146 195 147 4 1 25 9 47 20 22 11 45 19 52 20 14 0 27 36 18 50 -8 13 -32 13
-40 0z"/>
<path d="M4324 2339 c-13 -15 -16 -24 -8 -36 20 -32 41 -38 63 -19 26 24 27
52 2 66 -28 14 -35 13 -57 -11z"/>
<path d="M2390 1709 c0 -19 71 -152 125 -234 63 -95 105 -146 105 -126 0 21
-49 121 -78 161 -43 56 -132 193 -132 202 0 4 -4 8 -10 8 -5 0 -10 -5 -10 -11z"/>
<path d="M7208 1582 c4 -11 48 -63 97 -117 128 -139 115 -129 130 -109 7 10
19 15 29 11 10 -4 16 -1 16 8 0 8 -4 15 -8 15 -9 0 -35 21 -156 126 -39 33
-81 66 -93 73 -20 10 -22 9 -15 -7z"/>
<path d="M1086 1499 c-73 -37 -96 -53 -87 -62 8 -8 36 2 108 38 88 46 126 76
91 74 -7 0 -57 -23 -112 -50z"/>
<path d="M1295 1437 c-47 -45 -85 -86 -85 -90 0 -4 13 -7 28 -7 20 0 38 10 58
33 16 18 46 52 67 75 36 40 48 72 27 72 -5 0 -48 -37 -95 -83z"/>
<path d="M6980 1261 c0 -12 5 -21 10 -21 6 0 10 -6 10 -13 0 -40 236 -317 270
-317 7 0 30 -14 51 -31 22 -17 59 -39 82 -48 46 -18 131 -72 214 -134 l53 -39
55 26 c53 25 71 46 40 46 -8 0 -29 6 -47 14 -18 8 -53 22 -78 32 -210 83 -340
158 -438 252 -94 90 -202 213 -202 228 0 7 -4 16 -10 19 -5 3 -10 -3 -10 -14z"/>
<path d="M6950 925 c0 -13 6 -28 13 -32 7 -4 30 -33 50 -64 87 -132 251 -301
335 -344 20 -10 44 -24 52 -30 19 -15 100 -38 107 -31 8 8 -17 36 -42 47 -35
16 -119 72 -183 123 -71 56 -159 154 -247 273 -62 85 -85 101 -85 58z"/>
<path d="M2131 1368 c-4 -13 -11 -45 -15 -73 -4 -27 -11 -63 -16 -80 -4 -16
-16 -57 -25 -90 -9 -33 -23 -73 -31 -88 -8 -16 -14 -35 -14 -43 0 -13 -24 -69
-93 -214 -17 -35 -47 -89 -67 -120 -20 -30 -47 -75 -61 -100 -13 -24 -45 -73
-72 -108 -42 -56 -51 -82 -29 -82 18 0 91 82 143 160 36 55 119 198 119 206 0
2 14 34 31 71 62 139 73 165 98 241 27 80 49 177 56 247 3 33 8 68 11 78 8 26
-25 21 -35 -5z"/>
<path d="M1255 854 c-55 -47 -107 -90 -115 -97 -96 -77 -117 -94 -132 -109
-20 -20 -24 -38 -7 -38 27 0 146 84 219 155 66 63 160 163 160 169 0 18 -36
-5 -125 -80z"/>
<path d="M1424 847 c-6 -7 -37 -34 -69 -62 -32 -27 -65 -58 -74 -67 -8 -10
-21 -18 -28 -18 -7 0 -13 -4 -13 -10 0 -5 7 -10 15 -10 8 0 15 -4 15 -9 0 -5
-7 -11 -15 -15 -19 -7 -20 -26 -1 -26 15 0 199 194 204 216 4 17 -19 18 -34 1z"/>
<path d="M1173 648 c-39 -23 -44 -42 -9 -28 34 13 66 33 66 42 0 13 -23 7 -57
-14z"/>
<path d="M1396 539 c-47 -53 -71 -98 -58 -111 10 -10 65 59 96 120 23 44 7 40
-38 -9z"/>
<path d="M3121 891 c-26 -17 -5 -40 35 -38 48 3 54 21 13 36 -18 6 -32 11 -33
11 -1 0 -7 -4 -15 -9z"/>
<path d="M3385 880 c-11 -18 5 -30 41 -30 27 0 34 4 34 20 0 16 -7 20 -34 20
-19 0 -38 -4 -41 -10z"/>
<path d="M3915 880 c-10 -17 5 -30 33 -29 15 1 34 0 42 -2 9 -3 16 4 18 19 3
20 -1 22 -42 22 -25 0 -48 -4 -51 -10z"/>
<path d="M4076 874 c-11 -29 -6 -33 47 -31 46 2 52 5 55 25 3 20 0 22 -46 22
-36 0 -52 -4 -56 -16z"/>
<path d="M4260 875 c0 -8 0 -18 0 -22 0 -4 33 -7 73 -7 65 0 72 2 72 19 0 18
-8 20 -72 22 -59 2 -73 0 -73 -12z"/>
<path d="M4490 866 c0 -22 4 -23 55 -24 30 0 55 3 55 8 0 21 -34 40 -71 40
-34 0 -39 -3 -39 -24z"/>
<path d="M4655 881 c-12 -21 7 -31 53 -29 34 2 47 7 47 18 0 18 -89 27 -100
11z"/>
<path d="M5205 880 c-12 -20 6 -28 65 -29 53 0 60 2 60 20 0 17 -7 19 -59 19
-33 0 -63 -4 -66 -10z"/>
<path d="M5422 873 c3 -15 14 -18 68 -18 54 0 65 3 68 18 3 15 -5 17 -68 17
-63 0 -71 -2 -68 -17z"/>
<path d="M5630 875 c0 -10 7 -15 18 -13 21 4 19 22 -2 26 -10 2 -16 -3 -16
-13z"/>
<path d="M3819 509 c-34 -34 -11 -43 104 -44 96 0 106 -2 169 -34 66 -33 98
-35 98 -8 0 22 -30 42 -114 76 -65 25 -92 31 -157 31 -67 0 -82 -3 -100 -21z"/>
<path d="M4615 510 c-101 -35 -141 -64 -129 -94 7 -19 46 -15 74 8 40 32 121
49 207 43 72 -5 85 -4 90 10 4 10 -2 23 -16 35 -30 24 -155 23 -226 -2z"/>
<path d="M7261 7331 c-6 -11 -11 -29 -11 -40 0 -20 -19 -69 -46 -123 -8 -14
-14 -33 -14 -41 0 -9 -7 -28 -15 -44 -8 -15 -35 -82 -60 -148 -62 -162 -120
-305 -151 -368 -8 -16 -14 -35 -14 -42 0 -7 -6 -26 -14 -42 -20 -39 -41 -91
-56 -138 -7 -22 -26 -69 -42 -103 -31 -70 -34 -91 -15 -96 6 -2 41 -12 77 -22
36 -10 74 -24 85 -31 11 -7 27 -13 37 -13 17 0 66 -19 122 -46 16 -8 32 -11
36 -7 4 4 49 64 100 133 52 69 96 127 100 130 6 5 50 63 142 190 18 25 38 50
44 55 6 6 36 44 66 85 31 41 65 84 77 94 11 11 21 25 21 33 0 8 -46 71 -103
141 -152 189 -285 366 -311 413 -26 50 -41 58 -55 30z m79 -257 c0 -7 6 -19
13 -26 6 -7 41 -51 77 -98 35 -47 77 -98 92 -115 15 -16 28 -35 28 -42 0 -7 9
-17 20 -23 30 -16 24 -52 -15 -101 -19 -24 -61 -78 -95 -120 -33 -43 -60 -80
-60 -83 0 -3 -47 -69 -105 -146 -58 -76 -105 -144 -105 -149 0 -6 -9 -15 -21
-21 -16 -9 -25 -8 -37 2 -17 15 -60 33 -144 64 -51 18 -59 34 -33 70 8 12 20
39 28 60 8 21 38 98 66 169 29 72 59 148 68 170 8 22 21 54 29 70 7 17 22 55
34 85 11 30 25 64 31 75 18 39 59 160 59 175 0 9 5 21 12 28 9 9 17 7 35 -10
13 -12 23 -27 23 -34z"/>
<path d="M997 7025 c-22 -25 -46 -45 -53 -45 -6 0 -18 -8 -25 -19 -42 -56
-113 -139 -211 -242 -209 -223 -205 -215 -155 -268 18 -20 49 -56 68 -81 18
-25 38 -49 44 -55 6 -5 29 -32 50 -60 22 -27 42 -52 45 -55 3 -3 28 -34 55
-70 27 -36 56 -73 64 -82 20 -21 25 -27 91 -113 50 -64 138 -173 150 -185 3
-3 26 -31 53 -62 60 -72 83 -80 114 -42 13 16 23 36 23 45 0 9 7 22 15 29 8 7
15 18 15 26 0 7 18 50 39 96 22 46 56 121 75 167 33 77 35 86 21 110 -8 14
-46 100 -85 191 -39 91 -87 198 -106 238 -19 40 -34 77 -34 81 0 8 -18 50 -71
171 -11 25 -27 61 -35 80 -9 19 -22 48 -30 63 -8 16 -14 35 -14 42 0 20 -40
85 -52 85 -6 0 -29 -20 -51 -45z m57 -195 c12 -36 27 -74 33 -85 5 -11 18 -38
28 -60 23 -54 38 -88 74 -167 17 -37 39 -88 50 -115 25 -63 96 -218 121 -265
11 -20 20 -42 20 -49 0 -7 -15 -44 -33 -83 -52 -109 -67 -145 -67 -161 0 -8
-11 -26 -23 -41 l-24 -27 -19 27 c-33 47 -157 211 -164 216 -3 3 -35 43 -70
90 -66 87 -76 99 -120 154 -14 17 -50 63 -80 101 -29 39 -64 80 -77 92 -27 26
-30 56 -5 81 60 63 229 264 263 312 47 69 63 65 93 -20z"/>
<path d="M8083 7013 c-28 -27 -65 -68 -84 -93 -18 -25 -66 -85 -106 -135 -40
-49 -77 -94 -81 -100 -27 -37 -118 -151 -122 -155 -7 -6 -171 -210 -277 -344
-39 -50 -94 -119 -122 -152 -53 -65 -55 -79 -23 -140 11 -21 27 -60 72 -184
17 -47 38 -98 46 -113 8 -16 14 -35 14 -44 0 -8 8 -28 17 -44 22 -37 54 -38
102 -1 20 16 54 39 76 52 22 13 42 27 45 30 3 4 12 10 20 14 21 10 40 22 160
100 58 38 121 79 140 91 19 12 87 56 150 97 63 41 151 97 195 124 44 26 82 51
85 54 3 4 12 10 20 13 8 4 29 16 45 27 17 11 40 24 53 30 12 5 25 17 28 25 5
13 -21 78 -72 178 -8 16 -14 34 -14 40 0 7 -6 23 -13 37 -7 14 -23 52 -36 85
-13 33 -34 84 -47 113 -13 29 -24 57 -24 63 0 10 -11 34 -41 89 -4 8 -18 35
-29 60 -46 97 -68 146 -75 170 -8 26 -33 60 -45 60 -4 0 -30 -21 -57 -47z m61
-188 c11 -36 94 -243 106 -266 4 -9 27 -61 50 -115 23 -54 46 -103 51 -108 5
-6 9 -16 9 -23 0 -8 9 -26 20 -41 26 -36 18 -58 -28 -78 -19 -8 -78 -42 -131
-77 -53 -34 -103 -67 -113 -72 -9 -6 -49 -32 -90 -60 -40 -27 -77 -52 -83 -54
-5 -2 -57 -36 -115 -75 -58 -39 -113 -75 -122 -81 -38 -22 -193 -130 -199
-138 -4 -5 -17 -7 -30 -5 -18 2 -25 13 -35 48 -28 105 -44 158 -63 210 -26 67
-26 85 -3 102 11 7 117 128 237 268 120 140 225 262 234 271 21 21 54 59 116
134 59 70 95 113 112 131 7 7 17 24 23 39 13 35 42 29 54 -10z"/>
<path d="M615 5880 c-9 -10 -21 -38 -26 -61 -12 -50 -84 -253 -105 -291 -8
-14 -14 -35 -14 -46 0 -11 -7 -25 -16 -32 -9 -8 -14 -25 -12 -43 3 -28 11 -33
133 -84 72 -30 145 -61 163 -68 17 -8 47 -21 65 -29 17 -8 61 -28 97 -45 36
-17 69 -31 74 -31 4 0 28 -13 53 -30 24 -16 50 -30 57 -30 22 0 46 35 46 65 0
16 6 47 14 70 8 22 19 58 25 80 6 22 23 79 37 128 21 69 24 90 14 102 -6 8
-48 36 -92 62 -44 26 -92 56 -106 65 -15 9 -38 23 -52 30 -29 16 -158 94 -198
120 -15 10 -34 21 -42 25 -8 3 -28 16 -45 28 -48 35 -51 36 -70 15z m169 -194
c145 -96 169 -111 261 -160 27 -15 53 -32 57 -39 9 -14 0 -55 -18 -82 -8 -11
-14 -27 -14 -37 0 -9 -8 -42 -17 -73 -14 -45 -21 -55 -39 -55 -12 0 -27 7 -34
15 -7 8 -16 15 -21 15 -7 0 -66 26 -207 91 -34 16 -69 29 -76 29 -8 0 -18 4
-21 10 -3 5 -24 14 -46 20 -47 13 -58 32 -37 69 42 73 76 139 83 160 13 43 35
91 42 91 3 0 42 -24 87 -54z"/>
</g>
</svg>
