<?xml version="1.0" standalone="no"?>
<!DOCTYPE svg PUBLIC "-//W3C//DTD SVG 20010904//EN"
 "http://www.w3.org/TR/2001/REC-SVG-20010904/DTD/svg10.dtd">
<svg version="1.0" xmlns="http://www.w3.org/2000/svg"
 width="900.000000pt" height="900.000000pt" viewBox="0 0 900.000000 900.000000"
 preserveAspectRatio="xMidYMid meet">
<metadata>
Created by potrace 1.10, written by Peter Selinger 2001-2011
</metadata>
<g transform="translate(0.000000,900.000000) scale(0.100000,-0.100000)"
fill="#000000" stroke="none">
<path d="M3406 8769 l-26 -21 4 -261 c5 -263 7 -292 26 -394 11 -61 5 -77 -33
-89 -12 -3 -59 -24 -105 -45 -70 -34 -85 -38 -104 -28 -30 16 -302 6 -343 -13
-64 -29 -135 -120 -135 -174 0 -16 15 -45 35 -70 19 -23 35 -47 35 -52 0 -6
-19 -25 -42 -43 -24 -18 -55 -45 -70 -61 -33 -34 -43 -35 -64 -3 -30 46 -3
215 47 290 33 49 83 95 129 119 19 11 42 23 50 27 8 5 22 12 30 15 8 3 29 11
45 19 47 21 131 45 181 52 54 7 99 41 107 80 3 15 -2 49 -10 77 -16 59 -25 98
-47 216 -33 180 -71 271 -139 332 -35 32 -49 38 -86 38 -47 0 -139 -23 -183
-46 -14 -8 -31 -14 -37 -14 -14 0 -146 -64 -186 -90 -16 -11 -37 -23 -45 -27
-54 -24 -195 -126 -246 -178 -62 -63 -134 -171 -134 -203 0 -9 -7 -26 -15 -36
-8 -11 -15 -32 -15 -46 0 -33 -17 -50 -50 -51 -31 0 -97 -27 -134 -55 -25 -18
-30 -30 -37 -95 -30 -262 -28 -483 5 -545 16 -31 13 -64 -6 -64 -15 0 -107 38
-170 71 -32 16 -65 29 -73 29 -8 0 -29 6 -47 14 -50 21 -125 38 -203 47 -38 4
-98 11 -133 15 -86 9 -135 -7 -150 -50 -15 -41 -16 -286 -1 -375 26 -167 107
-376 175 -457 58 -68 81 -91 124 -124 25 -18 63 -50 86 -69 116 -101 142 -114
244 -114 66 0 95 5 132 21 50 24 88 28 88 12 0 -6 -12 -29 -27 -53 -30 -46
-69 -116 -103 -187 -12 -25 -26 -52 -31 -60 -5 -8 -12 -22 -15 -30 -7 -17
-104 -211 -120 -241 -7 -12 -17 -26 -23 -32 -6 -6 -11 -17 -11 -25 0 -8 -12
-31 -27 -51 -32 -42 -50 -70 -60 -91 -3 -8 -19 -31 -35 -51 -15 -20 -28 -40
-28 -43 0 -22 -285 -384 -438 -556 -117 -130 -265 -281 -327 -332 -33 -26 -67
-54 -75 -61 -31 -26 -189 -131 -305 -204 -47 -30 -95 -53 -110 -53 -8 0 -44
-30 -80 -67 -62 -65 -80 -103 -55 -118 6 -3 10 -17 10 -30 0 -65 51 -150 105
-175 11 -6 27 -14 35 -19 107 -61 338 -114 411 -93 37 10 79 0 79 -19 0 -16
42 -48 63 -49 10 0 28 -5 40 -11 11 -7 70 -12 131 -13 85 -1 118 -5 143 -18
20 -11 54 -18 88 -18 31 0 76 -5 101 -11 31 -8 48 -8 57 -1 8 7 71 10 164 10
126 -1 156 2 177 15 29 19 56 22 56 6 0 -5 -26 -49 -57 -97 -65 -99 -79 -121
-90 -142 -16 -34 -93 -140 -151 -209 -64 -76 -72 -101 -47 -135 8 -11 15 -28
15 -38 0 -17 15 -55 54 -137 26 -53 109 -147 139 -157 12 -4 35 -16 50 -27
l29 -20 -29 -23 c-15 -13 -35 -23 -44 -24 -8 0 -26 -10 -38 -22 -20 -18 -23
-28 -18 -72 8 -83 69 -176 113 -176 9 0 14 -11 14 -30 0 -17 -5 -30 -12 -30
-16 0 -168 -157 -168 -173 0 -7 -19 -35 -43 -62 -23 -28 -51 -70 -62 -95 -10
-25 -24 -52 -30 -60 -39 -53 -82 -214 -72 -273 16 -94 69 -222 119 -288 15
-20 28 -41 28 -46 0 -15 169 -173 185 -173 8 0 18 -6 22 -13 9 -14 119 -99
143 -110 8 -4 29 -16 45 -26 17 -11 65 -37 107 -58 43 -21 77 -44 78 -50 0 -7
-15 -19 -34 -27 -32 -13 -35 -18 -43 -78 -16 -123 24 -234 122 -334 44 -45
153 -85 274 -100 25 -3 43 -22 35 -36 -3 -5 -6 -26 -6 -49 0 -34 6 -47 38 -80
43 -44 67 -48 128 -20 115 52 136 63 141 72 4 5 12 9 20 9 7 0 41 17 75 37 33
21 69 43 79 48 33 19 146 140 163 175 10 19 19 53 20 75 4 56 26 49 103 -31
34 -35 67 -64 74 -64 10 0 11 -12 6 -48 -6 -47 -5 -50 30 -81 61 -53 106 -77
190 -97 71 -17 115 -19 395 -18 251 2 328 5 380 18 36 9 80 16 99 16 33 0 117
23 156 43 30 15 214 16 227 0 6 -7 22 -13 37 -13 14 -1 37 -7 51 -15 27 -15
72 -20 84 -8 20 20 313 21 411 2 22 -5 121 -10 220 -13 99 -2 191 -8 205 -13
14 -5 113 -11 220 -12 107 -1 267 -7 355 -13 88 -5 255 -12 370 -14 l211 -5
36 36 c20 20 38 48 41 64 3 15 15 38 26 52 21 24 21 24 27 3 12 -45 55 -62
186 -78 68 -8 146 -21 173 -29 141 -42 339 -60 400 -37 14 5 49 14 78 19 92
17 152 33 172 47 11 8 27 14 35 14 25 0 67 50 84 100 20 58 21 205 1 240 -8
14 -15 36 -15 50 0 14 -7 34 -15 44 -8 11 -15 30 -15 42 0 12 -7 27 -16 35
-10 9 -14 21 -9 38 3 14 8 44 10 66 2 22 6 72 10 110 10 114 -44 451 -76 471
-17 10 -9 42 14 61 13 10 26 24 30 30 11 18 -10 52 -39 63 -30 12 -30 25 -3
48 33 26 79 76 79 85 0 18 29 4 61 -29 18 -20 43 -40 54 -45 11 -5 27 -13 35
-18 115 -65 240 -63 389 8 41 20 121 107 121 132 0 28 -31 59 -60 59 -36 0
-71 27 -121 90 -62 80 -93 105 -158 130 -53 19 -64 20 -117 10 -148 -31 -154
-25 -66 59 58 56 66 67 110 158 51 104 62 131 62 147 0 22 -64 91 -99 106 -48
19 -130 -3 -175 -47 -20 -20 -36 -40 -36 -45 0 -14 -28 -9 -33 7 -4 8 -25 28
-48 45 -31 22 -53 30 -85 30 -40 0 -46 3 -69 40 -14 23 -36 45 -49 50 -35 13
-38 36 -11 80 14 22 25 45 25 51 0 6 6 23 14 37 25 49 44 97 60 157 10 33 22
74 28 90 5 17 13 46 17 66 4 19 12 42 17 50 4 8 12 37 15 64 4 28 12 82 19
120 34 208 39 269 37 425 -2 91 -7 175 -11 188 -7 19 -5 22 17 22 14 0 28 -4
31 -9 9 -14 84 -51 104 -51 10 0 27 -7 39 -15 16 -11 51 -16 135 -16 125 -2
170 11 190 56 9 20 6 30 -18 67 -16 24 -38 63 -48 88 -10 25 -24 60 -32 78 -8
18 -14 39 -14 47 0 7 -6 26 -14 42 -13 26 -21 44 -63 140 -9 21 -20 45 -25 53
-4 8 -11 22 -14 30 -3 8 -12 27 -20 42 -8 14 -14 33 -14 41 0 8 -7 20 -15 27
-8 7 -15 20 -15 30 0 10 -7 23 -15 30 -8 7 -15 29 -15 50 0 21 -7 43 -15 50
-8 7 -15 18 -15 25 0 7 -7 18 -15 25 -8 7 -15 25 -15 40 0 15 -7 33 -15 40 -8
7 -15 20 -15 29 -1 24 -36 121 -49 134 -32 32 1 67 63 67 34 0 70 15 127 53
31 21 105 120 124 167 4 8 15 33 26 56 10 23 19 46 19 51 0 20 -42 63 -60 63
-38 0 -103 44 -210 141 -143 130 -220 236 -220 302 0 15 -6 40 -13 55 -7 15
-21 70 -31 122 -18 100 -38 186 -61 260 -7 25 -23 78 -35 118 -12 40 -26 75
-31 78 -5 3 -9 18 -9 33 0 15 -7 36 -15 47 -8 10 -15 25 -15 32 0 11 -56 128
-125 262 -13 25 -33 65 -45 90 -29 62 -66 125 -109 188 -20 29 -42 64 -49 77
-12 23 -197 214 -257 266 -17 14 -59 48 -95 74 -36 27 -69 55 -73 62 -4 7 -13
13 -19 13 -5 0 -27 12 -47 28 -52 39 -61 44 -216 121 -77 39 -162 89 -189 111
-26 22 -53 40 -58 40 -6 0 -27 12 -47 28 -108 81 -304 167 -451 197 -47 9 -98
22 -115 27 -41 14 -128 18 -425 20 -238 1 -422 -6 -440 -17 -5 -3 -46 -9 -92
-15 -86 -10 -138 -21 -223 -47 -29 -9 -97 -17 -163 -19 -74 -2 -128 -8 -156
-19 -48 -19 -86 -9 -86 22 0 17 -39 86 -52 91 -4 2 -8 8 -8 13 0 19 -67 98
-116 137 -27 22 -74 65 -104 96 -30 31 -59 56 -66 56 -6 0 -29 12 -50 28 -54
38 -105 57 -209 76 -49 10 -97 19 -106 22 -9 2 -28 -5 -43 -17z m-500 -107
c12 -8 54 -93 54 -110 0 -8 -18 -12 -47 -12 -61 -1 -178 -32 -244 -64 -109
-55 -190 -133 -274 -266 -99 -153 -139 -331 -128 -565 2 -55 11 -117 19 -138
8 -20 14 -52 14 -70 0 -55 55 -207 81 -222 19 -12 8 -38 -49 -113 -58 -75
-102 -145 -122 -189 -19 -45 -39 -32 -135 90 -34 43 -123 227 -141 291 -22 76
-43 172 -55 251 -11 72 -4 341 10 378 8 22 68 51 76 37 3 -5 -1 -20 -9 -32
-17 -26 -36 -145 -38 -233 -2 -104 35 -325 68 -403 8 -18 14 -43 14 -56 0 -13
7 -29 15 -36 8 -7 15 -23 15 -35 0 -12 7 -28 15 -35 8 -7 15 -21 15 -31 0 -10
6 -22 13 -26 8 -4 17 -15 21 -23 23 -49 62 -97 72 -87 3 2 -4 20 -15 38 -12
19 -25 44 -30 56 -5 11 -15 24 -20 28 -6 3 -11 14 -11 24 0 10 -7 24 -15 31
-8 7 -15 21 -15 31 0 10 -6 33 -14 51 -24 59 -46 132 -46 158 0 14 -7 45 -16
70 -22 63 -22 376 0 438 9 24 15 46 15 50 -4 27 5 42 35 56 19 9 39 16 45 16
15 0 14 -45 -2 -78 -21 -41 -41 -186 -41 -287 0 -132 32 -332 64 -410 5 -11
19 -45 31 -75 12 -30 32 -66 45 -79 21 -22 24 -23 30 -7 4 10 0 24 -10 35 -9
10 -16 24 -16 32 0 9 -7 24 -15 35 -8 10 -15 28 -15 39 0 12 -5 26 -11 32 -6
6 -14 35 -19 64 -5 30 -13 72 -19 94 -15 58 -16 422 0 460 6 17 15 48 19 70 8
43 27 101 41 125 5 8 13 25 18 37 6 11 15 24 20 28 13 7 15 45 3 45 -12 0 -37
-33 -62 -83 -21 -41 -50 -63 -50 -38 0 5 -3 16 -6 24 -3 8 1 21 8 28 16 17 47
62 106 149 51 77 174 198 252 248 109 71 201 112 335 147 102 27 106 27 121
17z m754 -80 c108 -52 207 -123 295 -210 61 -60 165 -187 165 -202 0 -10 -52
-20 -105 -20 -41 0 -45 3 -87 59 -93 125 -180 203 -277 247 -31 15 -63 30 -71
34 -9 4 -17 26 -20 51 -7 59 -25 47 -24 -16 7 -240 1 -424 -14 -434 -6 -4 -15
-16 -19 -28 -6 -16 -12 -20 -23 -13 -11 7 -13 15 -5 37 6 16 7 66 4 118 -9
122 -11 420 -2 428 14 15 93 -7 183 -51z m-632 -206 c8 -23 20 -56 28 -71 16
-30 33 -89 41 -143 l5 -32 -43 1 c-165 6 -353 -89 -461 -234 -81 -108 -91
-140 -90 -280 1 -102 5 -124 23 -153 11 -19 25 -34 30 -34 22 0 5 -49 -31 -88
-56 -63 -73 -55 -81 34 -4 39 -12 80 -18 92 -17 32 -14 308 4 368 8 27 15 59
15 71 0 25 15 62 67 172 71 148 220 263 418 324 76 23 79 22 93 -27z m632
-119 c25 -12 56 -30 70 -39 14 -9 45 -28 70 -41 60 -32 63 -62 5 -62 -40 -1
-79 -11 -167 -46 -72 -29 -77 -24 -73 92 2 54 6 103 10 109 10 15 36 12 85
-13z m1985 4 c28 -5 77 -14 110 -20 80 -14 234 -59 271 -79 11 -6 66 -34 124
-62 129 -63 189 -96 209 -114 31 -27 152 -106 163 -106 5 0 30 -13 55 -30 24
-16 46 -30 49 -30 3 0 32 -20 64 -45 32 -25 61 -45 65 -45 3 0 18 -11 33 -25
15 -14 48 -36 74 -49 30 -15 95 -72 171 -148 150 -151 184 -194 314 -403 7
-11 24 -42 38 -70 14 -27 30 -57 35 -65 11 -18 79 -165 109 -234 12 -27 21
-55 21 -63 0 -8 6 -27 14 -41 21 -42 46 -127 46 -157 0 -15 6 -39 14 -53 19
-37 76 -222 76 -248 0 -12 7 -41 15 -64 8 -23 15 -64 15 -89 0 -26 7 -56 15
-67 8 -10 15 -27 15 -36 0 -27 60 -150 84 -173 133 -128 275 -228 368 -258 45
-15 -61 -165 -145 -206 -43 -21 -92 -26 -134 -15 -27 7 -47 54 -41 96 3 18 -3
60 -12 94 -10 33 -21 88 -25 122 -7 60 -24 90 -45 77 -30 -19 15 -361 59 -442
6 -12 11 -41 11 -65 0 -24 5 -49 11 -55 6 -6 14 -26 19 -44 9 -36 58 -173 79
-224 27 -64 44 -101 57 -127 8 -14 14 -33 14 -42 0 -8 6 -30 14 -48 8 -18 28
-69 46 -113 17 -44 38 -93 46 -108 8 -16 14 -33 14 -37 0 -9 61 -137 84 -175
31 -53 66 -104 76 -110 5 -3 10 -15 10 -27 0 -18 -5 -19 -52 -15 -102 10 -138
21 -263 78 -11 5 -33 18 -50 29 -16 11 -37 23 -45 27 -8 4 -67 46 -131 94
-127 96 -200 175 -283 309 -59 94 -146 270 -146 294 0 8 -4 18 -10 21 -5 3
-10 33 -10 65 0 32 -4 62 -10 65 -5 3 -10 17 -10 29 0 22 -11 64 -45 176 -7
25 -16 60 -20 78 -10 50 -25 38 -25 -20 -1 -43 -3 -50 -11 -34 -7 11 -9 45 -5
90 6 62 5 69 -8 53 -12 -16 -14 -16 -20 -1 -3 8 -6 26 -6 39 0 12 -7 28 -15
35 -8 7 -15 25 -15 40 0 51 -53 295 -88 405 -10 32 -30 101 -57 200 -9 33 -22
76 -28 95 -6 19 -14 55 -18 80 -13 88 -30 165 -39 185 -5 11 -14 70 -19 130
-15 160 -43 305 -91 465 -16 52 -36 122 -45 155 -26 93 -77 225 -114 295 -42
81 -64 116 -116 184 -33 43 -67 88 -75 100 -31 47 -80 96 -95 96 -26 0 -17
-25 35 -94 28 -37 50 -69 50 -71 0 -2 20 -33 45 -70 48 -69 165 -302 165 -326
0 -8 4 -19 9 -24 8 -9 27 -70 66 -210 8 -27 21 -84 30 -125 9 -41 21 -93 26
-115 5 -22 16 -92 24 -155 8 -63 20 -146 26 -185 22 -129 9 -516 -21 -665 -5
-25 -12 -67 -15 -95 -17 -150 -77 -330 -198 -590 -91 -194 -253 -509 -265
-513 -10 -3 -12 107 -10 535 2 388 -1 560 -10 618 -6 44 -16 171 -22 283 -5
111 -11 206 -14 210 -3 5 -8 68 -12 142 -8 168 -13 184 -47 188 -32 4 -32 10
-12 -139 14 -102 21 -241 40 -779 7 -222 19 -1048 16 -1155 -5 -207 -1 -423
11 -467 6 -26 9 -50 5 -54 -7 -7 -42 19 -102 75 -22 20 -105 93 -184 161 -79
69 -157 136 -172 150 -28 25 -142 157 -189 219 -14 18 -40 49 -57 69 -18 20
-33 43 -33 50 0 6 -5 12 -10 12 -6 0 -15 10 -21 23 -5 12 -17 33 -25 47 -8 14
-25 43 -38 65 -24 40 -56 59 -56 33 0 -7 20 -44 45 -81 25 -38 45 -71 45 -73
0 -10 186 -252 243 -317 32 -37 70 -91 84 -118 21 -45 23 -59 17 -120 -4 -38
-10 -69 -14 -69 -4 0 -27 33 -51 73 -23 39 -66 106 -94 147 -28 41 -70 107
-93 146 -23 39 -51 80 -62 92 -11 12 -20 24 -20 28 0 3 -26 45 -57 92 -62 93
-76 115 -93 147 -6 11 -26 47 -44 80 -64 115 -226 443 -226 459 0 9 -23 63
-47 113 -11 23 -13 45 -9 77 5 30 4 46 -3 46 -6 0 -11 -9 -11 -21 0 -12 -4
-18 -11 -13 -7 4 -9 24 -6 51 4 36 2 42 -9 32 -11 -9 -16 -5 -25 20 -6 17 -15
31 -20 31 -5 0 -12 18 -15 40 -4 22 -11 43 -15 46 -5 3 -9 29 -9 58 0 30 -7
70 -15 89 -8 20 -15 49 -15 65 0 16 -6 48 -14 73 -7 24 -21 87 -30 139 -9 52
-20 122 -26 155 -43 249 -40 590 6 799 9 39 20 91 24 116 9 50 37 146 49 170
5 9 12 30 15 48 4 17 12 34 17 37 13 9 11 55 -2 55 -7 0 -18 -8 -25 -17 -23
-30 -94 -184 -94 -203 0 -5 -4 -18 -9 -28 -13 -26 -32 -83 -41 -122 -5 -19
-16 -69 -26 -110 -11 -49 -18 -118 -18 -198 -1 -68 -6 -126 -11 -130 -6 -4
-11 -47 -13 -97 -2 -49 -7 -94 -11 -100 -4 -5 -16 -44 -26 -85 -9 -41 -23 -86
-30 -100 -6 -14 -19 -41 -28 -60 -92 -207 -134 -294 -169 -346 -16 -23 -28
-51 -28 -63 0 -11 -13 -43 -30 -71 -16 -28 -30 -55 -30 -59 0 -5 -6 -11 -13
-14 -7 -3 -28 -36 -46 -73 -18 -38 -58 -109 -90 -157 -56 -88 -253 -356 -302
-412 -14 -17 -61 -70 -105 -120 -198 -226 -430 -434 -554 -498 -8 -4 -28 -16
-45 -27 -33 -21 -47 -29 -145 -82 -151 -83 -370 -188 -390 -188 -5 0 -24 -6
-42 -14 -210 -91 -207 -75 36 199 111 125 132 149 157 185 48 70 104 105 151
95 17 -4 28 -2 28 4 0 6 -4 11 -10 11 -5 0 -10 5 -10 10 0 6 10 8 24 4 13 -3
27 -1 30 5 4 6 2 11 -3 11 -6 0 -11 5 -11 11 0 8 5 8 15 -1 17 -14 28 -8 145
80 66 51 173 159 234 238 11 15 26 32 32 37 6 6 42 46 79 90 38 44 72 82 77
83 4 2 8 8 8 14 0 6 8 17 17 24 10 7 15 16 11 19 -4 4 -49 -26 -100 -67 -51
-41 -127 -95 -168 -120 -90 -53 -314 -164 -353 -173 -15 -4 -30 -11 -33 -16
-3 -5 -12 -9 -21 -9 -8 0 -29 -6 -46 -14 -72 -30 -94 -39 -137 -51 -25 -7 -70
-21 -100 -30 -117 -35 -276 -70 -405 -90 -49 -7 -112 -18 -140 -24 -27 -6 -66
-12 -85 -14 -81 -9 135 -6 240 3 169 14 423 66 515 105 40 16 149 54 205 71
25 7 70 22 100 33 54 21 90 27 90 15 0 -3 -16 -22 -36 -42 -64 -65 -74 -77
-74 -92 0 -11 -3 -11 -12 -2 -20 20 -51 13 -88 -18 -50 -42 -48 -41 -120 -79
-67 -35 -107 -44 -270 -61 -124 -12 -441 -12 -505 1 -27 5 -78 14 -112 19 -34
5 -70 13 -80 19 -10 5 -74 24 -143 42 -134 35 -193 61 -283 128 -62 45 -71 74
-27 79 43 5 85 23 345 147 39 18 88 41 110 50 35 15 329 156 361 174 23 12
245 164 257 175 7 6 43 35 80 64 110 86 186 170 172 192 -12 19 -27 10 -88
-52 -34 -34 -105 -93 -159 -132 -244 -177 -238 -174 -238 -131 0 13 6 44 14
67 8 24 19 70 25 103 24 138 32 179 41 196 6 10 10 28 10 39 0 12 16 56 35 97
19 41 35 83 35 93 0 10 7 23 15 30 8 7 15 23 15 36 0 25 12 51 43 93 9 13 17
32 17 42 0 24 66 89 90 89 26 0 26 -1 -12 -42 -18 -19 -40 -48 -48 -64 -8 -16
-21 -35 -27 -42 -7 -7 -13 -19 -13 -26 0 -8 -7 -19 -15 -26 -17 -14 -20 -30
-6 -30 5 0 26 26 47 58 22 31 41 59 44 62 3 3 17 23 32 45 40 59 82 101 119
122 130 72 333 232 316 249 -7 7 -15 4 -82 -36 -55 -33 -163 -86 -252 -124
-32 -13 -71 -31 -88 -40 -16 -9 -38 -16 -47 -16 -9 0 -20 -4 -23 -10 -3 -5 3
-10 14 -10 12 0 21 -4 21 -10 0 -12 -33 -13 -45 -1 -6 5 -30 5 -55 1 l-45 -7
53 -2 c39 -1 52 -5 52 -16 0 -8 -10 -17 -22 -19 -13 -3 -39 -8 -58 -12 -19 -4
-78 -7 -130 -7 -146 0 -307 37 -416 96 -81 43 -190 206 -182 273 3 26 6 29 38
28 19 -1 61 -6 92 -12 153 -29 488 65 803 224 28 14 77 39 110 56 33 16 79 39
103 51 23 12 42 25 42 29 0 3 10 10 22 14 12 3 43 22 70 42 41 29 48 39 44 58
-7 27 -9 26 119 111 120 80 209 147 303 228 198 172 344 280 447 332 33 16 87
43 120 60 103 52 249 119 325 148 25 9 60 23 78 31 18 8 40 14 48 14 16 0 96
23 157 46 20 8 51 14 68 14 17 0 54 6 82 14 29 8 111 17 182 20 72 3 177 11
235 16 208 20 312 20 415 1z m-1367 -122 c-5 -16 -148 -89 -173 -89 -11 0
-189 -91 -245 -126 -30 -18 -62 -37 -70 -41 -26 -13 -144 -95 -189 -132 -24
-20 -72 -58 -105 -85 -34 -28 -72 -60 -86 -73 -14 -13 -29 -23 -34 -23 -15 0
-115 -79 -221 -175 -135 -122 -137 -125 -131 -141 6 -15 -26 -54 -43 -54 -5 0
-16 -6 -23 -13 -11 -11 -242 -127 -313 -157 -44 -19 -112 -47 -150 -62 -22 -9
-73 -30 -114 -47 -129 -55 -142 -40 -48 59 34 36 97 108 139 160 134 163 250
278 431 423 119 96 201 152 304 208 26 15 64 36 83 48 19 11 42 24 50 27 8 4
58 26 110 51 52 25 109 50 125 57 17 7 47 21 68 30 21 9 45 16 53 16 18 0 102
26 152 46 18 8 44 14 58 14 14 0 40 6 57 14 18 7 77 23 132 35 55 12 111 26
125 30 37 13 62 13 58 0z m-1165 -295 c13 -13 -15 -45 -61 -69 -61 -32 -130
-83 -160 -117 -29 -34 -49 -36 -57 -5 -10 35 -28 70 -47 89 -23 23 -23 43 2
68 22 22 52 27 45 8 -3 -7 2 -24 10 -38 8 -14 19 -35 25 -48 5 -13 14 -20 20
-17 13 8 13 65 0 65 -5 0 -16 13 -25 30 l-15 29 107 4 c60 1 117 4 129 5 11 1
24 -1 27 -4z m-1792 -459 c31 -8 68 -15 82 -15 35 0 50 -22 37 -51 -14 -31 16
-164 54 -239 14 -28 26 -60 26 -69 0 -28 94 -116 137 -129 82 -24 110 -25 137
-5 32 23 32 54 1 113 -49 92 -83 166 -94 207 -6 23 -16 45 -21 48 -22 14 -10
35 20 35 17 0 30 -4 30 -10 0 -5 17 -14 39 -20 48 -13 57 -24 64 -75 8 -63 23
-117 41 -152 25 -47 90 -112 126 -124 28 -10 58 -45 47 -55 -2 -3 -75 -6 -161
-8 -97 -2 -161 -8 -170 -15 -7 -6 -16 -39 -19 -73 -8 -87 22 -172 86 -243 32
-36 44 -56 35 -59 -7 -2 -26 -7 -42 -11 -17 -3 -43 -16 -59 -27 -25 -18 -32
-19 -55 -8 -15 7 -43 20 -62 29 -106 48 -215 132 -272 209 -52 69 -57 78 -101
167 -33 66 -47 101 -76 185 -23 64 -48 204 -54 292 -5 78 -4 89 13 101 26 18
143 19 211 2z m236 -59 c21 -8 47 -16 58 -18 13 -2 22 -14 27 -38 4 -19 12
-60 18 -90 6 -30 16 -59 21 -64 5 -6 9 -17 9 -26 0 -9 20 -47 45 -84 25 -38
45 -70 45 -72 0 -2 -9 -8 -19 -13 -22 -12 -61 0 -127 38 -29 16 -48 37 -63 70
-12 25 -26 54 -32 63 -5 10 -9 23 -9 30 0 7 -7 25 -14 40 -8 16 -18 49 -22 75
-3 27 -11 56 -16 67 -7 13 -6 21 3 27 19 12 33 11 76 -5z m867 -31 c15 -27 17
-38 8 -47 -16 -16 -28 -1 -35 45 -7 47 3 47 27 2z m2328 -870 c4 -66 15 -156
23 -200 34 -171 48 -231 62 -263 24 -55 15 -67 -47 -69 -132 -6 -296 -26 -322
-39 -30 -15 -48 -12 -48 9 0 7 15 35 32 62 17 28 41 68 53 90 12 23 27 50 33
60 12 22 24 51 69 170 17 44 45 115 62 159 17 43 31 87 31 96 0 31 12 51 29
48 13 -3 17 -24 23 -123z m-2742 -90 c7 -8 28 -15 48 -15 20 0 64 -7 99 -16
70 -17 137 -15 246 9 87 19 93 8 39 -65 -56 -75 -77 -118 -118 -238 -36 -104
-73 -318 -82 -470 l-7 -104 -162 -81 c-88 -44 -181 -89 -205 -99 -70 -32 -169
-77 -233 -106 -33 -16 -80 -36 -105 -45 -25 -9 -56 -23 -70 -29 -14 -7 -51
-21 -83 -31 -67 -20 -77 -34 -52 -72 52 -79 251 -243 295 -243 4 0 21 -6 37
-14 58 -28 187 -66 258 -75 28 -4 56 -10 63 -15 7 -4 82 -11 165 -14 l152 -7
3 -55 c2 -51 -1 -58 -34 -95 -20 -22 -43 -50 -51 -62 -22 -33 -48 -28 -73 12
-30 49 -59 63 -77 39 -7 -11 -39 -47 -71 -81 -76 -81 -82 -90 -82 -108 0 -8 6
-24 13 -36 10 -17 9 -22 -3 -29 -8 -5 -39 -27 -69 -49 -30 -23 -59 -41 -63
-41 -5 0 -30 -16 -55 -35 -25 -19 -50 -35 -55 -35 -4 0 -32 25 -62 55 -29 30
-60 55 -69 55 -15 0 -87 -98 -87 -119 0 -5 -11 -22 -25 -37 -17 -18 -25 -37
-23 -53 3 -22 -3 -26 -47 -39 -52 -14 -128 -34 -230 -58 -55 -13 -209 -27
-280 -26 -46 2 -115 23 -115 37 0 6 20 22 45 34 25 12 45 27 45 32 0 15 -54
10 -89 -7 -45 -22 -259 -22 -365 0 -140 30 -270 118 -270 182 0 41 15 59 73
85 184 84 290 152 380 240 9 8 54 44 101 79 169 125 585 570 720 770 13 19 27
37 30 40 13 12 95 135 107 160 3 8 9 17 12 20 5 4 77 119 136 218 6 9 22 35
36 57 25 38 38 66 109 220 56 123 74 159 98 194 12 19 28 55 36 80 31 103 41
116 66 86z m4954 -242 c10 -38 23 -90 31 -118 8 -27 17 -63 20 -80 35 -177 57
-261 75 -294 6 -12 8 -26 5 -32 -8 -11 -45 -2 -60 16 -10 11 -63 34 -120 52
l-30 9 4 74 c2 41 8 84 14 95 6 11 12 90 14 175 3 85 6 161 9 168 8 25 22 2
38 -65z m-2086 -265 c3 -15 -15 -17 -170 -22 -95 -3 -207 -8 -248 -12 -41 -3
-72 -3 -69 0 3 3 34 8 67 10 34 2 68 9 76 15 8 7 73 16 153 20 175 11 187 10
191 -11z m21 -100 c21 -54 72 -180 106 -263 51 -125 187 -399 230 -463 19 -30
35 -56 35 -59 0 -3 19 -38 43 -77 24 -39 53 -91 66 -116 12 -25 31 -58 42 -75
10 -16 22 -37 26 -45 6 -13 38 -63 122 -190 20 -30 61 -89 91 -130 30 -42 60
-83 65 -92 6 -8 33 -50 60 -91 28 -41 55 -83 61 -94 11 -17 13 -17 33 7 19 22
21 36 19 130 -2 120 8 135 55 76 15 -19 53 -54 85 -77 31 -24 73 -59 92 -77
19 -18 63 -54 98 -80 54 -40 62 -50 62 -79 0 -18 -3 -33 -6 -33 -3 0 -27 11
-53 24 -88 45 -116 54 -191 65 -98 13 -209 -4 -240 -37 -30 -32 -39 -27 -33
18 5 35 2 43 -27 70 -40 37 -97 41 -125 10 -18 -20 -18 -22 -2 -49 9 -16 17
-43 17 -61 0 -29 -2 -31 -28 -26 -23 6 -34 -1 -76 -43 -37 -37 -47 -55 -43
-71 8 -30 -28 -50 -125 -67 -153 -28 -321 -20 -473 22 -27 8 -61 16 -75 19
-71 13 -203 73 -269 123 -50 38 -115 117 -109 134 3 9 93 12 357 11 194 -1
362 -4 373 -8 28 -8 68 4 68 21 0 16 -12 18 -67 15 -26 -1 -33 2 -33 17 0 11
5 24 11 30 6 6 9 23 7 39 -3 26 -7 29 -34 27 -19 -2 -37 4 -44 12 -7 8 -24 15
-39 15 -25 -1 -25 -1 -7 -15 10 -8 22 -16 26 -17 4 -2 10 -17 13 -34 5 -26 2
-33 -21 -46 -22 -12 -36 -13 -77 -4 -54 12 -69 34 -42 64 13 15 13 24 0 79
-17 70 -63 132 -112 153 -25 10 -33 9 -53 -6 -46 -34 -62 -66 -66 -130 -4 -52
-1 -64 17 -81 11 -10 22 -30 23 -44 l3 -24 -152 -3 -153 -3 0 50 c0 31 -5 53
-15 61 -13 10 -15 32 -13 104 l3 90 51 26 c29 16 48 32 46 40 -4 10 4 11 34 5
22 -4 86 -6 144 -4 207 7 314 4 340 -11 l25 -14 -34 -8 c-25 -7 -37 -5 -50 6
-19 18 -106 23 -96 6 3 -5 15 -10 25 -10 21 0 105 -42 132 -67 10 -9 18 -21
18 -28 0 -11 92 -95 104 -95 22 0 -18 139 -44 155 -15 9 -12 55 3 55 6 -1 23
-7 37 -15 14 -8 36 -14 49 -15 14 0 32 -6 40 -14 16 -14 34 -19 59 -17 21 2
13 38 -19 85 -34 51 -31 76 7 52 13 -9 33 -16 44 -16 40 0 17 32 -45 62 -33
16 -76 38 -95 48 -19 10 -58 25 -85 33 -28 9 -81 27 -119 41 -38 14 -81 26
-97 26 -15 0 -40 5 -54 10 -37 14 -189 30 -330 34 -116 4 -246 28 -302 58 -13
6 -24 9 -26 7 -30 -41 -37 -62 -27 -74 23 -28 2 -53 -48 -61 -51 -7 -159 -40
-243 -74 -96 -39 -123 -48 -156 -54 l-33 -5 0 67 c0 37 -4 82 -9 100 -13 46
-2 70 66 145 77 84 113 128 113 136 0 3 34 44 76 91 42 47 96 112 122 145 25
33 53 67 62 77 31 30 197 280 231 346 38 76 21 72 310 72 l259 0 9 -22z m2039
-134 c28 -8 10 -25 -25 -22 -27 2 -39 8 -41 21 -4 17 12 18 66 1z m-40 -73 c9
-5 46 -18 82 -29 89 -28 130 -50 139 -76 8 -20 17 -50 57 -181 9 -33 30 -100
46 -150 16 -49 36 -112 44 -140 9 -27 22 -67 30 -87 8 -21 20 -55 28 -75 36
-96 83 -202 108 -244 32 -52 36 -112 17 -249 -6 -41 -13 -109 -17 -150 -6 -66
-9 -75 -28 -78 -28 -4 -64 45 -64 88 0 17 9 43 20 57 23 29 26 56 8 70 -7 5
-40 16 -73 23 -47 11 -70 23 -103 55 -35 33 -62 47 -140 72 -179 57 -230 66
-427 79 -74 5 -113 2 -150 -8 l-50 -15 -8 -59 c-15 -109 -14 -119 11 -122 27
-4 28 -12 2 -42 -17 -20 -20 -37 -20 -124 0 -148 13 -216 47 -244 41 -33 134
-74 253 -111 173 -54 258 -83 287 -98 25 -13 35 -15 44 -6 18 18 5 38 -35 57
-32 15 -36 21 -36 55 0 22 6 44 15 51 20 16 12 26 -30 40 -29 10 -38 9 -50 -4
-9 -8 -22 -13 -30 -10 -20 8 -9 24 16 24 29 0 23 17 -10 28 -31 11 -56 46 -45
63 3 6 -3 5 -15 -3 -12 -7 -21 -20 -21 -30 0 -9 -5 -18 -12 -20 -19 -7 -1 -36
41 -65 47 -33 57 -51 38 -71 -10 -10 -20 -11 -33 -4 -46 23 -96 42 -114 42
-10 0 -25 6 -33 14 -8 8 -31 18 -51 21 -20 4 -39 11 -42 16 -3 5 -17 9 -32 9
-65 0 -85 46 -86 196 -1 65 3 86 17 101 9 11 17 24 17 30 0 19 178 16 248 -4
34 -10 62 -22 62 -26 0 -5 9 -20 20 -34 14 -18 20 -41 20 -79 0 -53 0 -54 42
-74 50 -24 60 -15 51 45 -6 41 -38 111 -54 121 -5 3 -9 9 -9 15 0 12 67 12 74
0 3 -5 25 -19 48 -31 119 -61 181 -151 181 -262 0 -54 -5 -75 -27 -111 -34
-59 -33 -73 4 -45 17 12 30 30 30 40 0 10 6 18 13 18 7 0 48 40 92 90 44 49
83 90 88 90 18 0 -15 -216 -41 -266 -9 -16 -34 -123 -48 -200 -9 -52 -239 -82
-383 -50 -42 10 -89 22 -106 28 -16 5 -43 13 -60 18 -16 4 -52 19 -79 34 -27
14 -53 26 -57 26 -5 0 -27 18 -49 40 -33 33 -40 47 -40 78 0 46 -42 110 -89
138 -22 13 -33 28 -37 54 -4 19 -17 46 -30 60 -22 25 -23 30 -25 270 -3 231
-2 249 20 308 29 85 106 162 159 162 40 0 246 -37 277 -50 11 -5 36 -11 56
-15 21 -3 51 -12 68 -21 33 -16 71 -11 71 10 0 12 -48 36 -100 51 -14 4 -29
11 -35 15 -5 4 -30 11 -55 15 -24 4 -51 11 -60 15 -42 22 -154 42 -200 36 -48
-6 -50 -6 -50 17 0 12 5 28 11 34 23 23 109 193 109 215 0 9 4 19 9 23 11 6
53 92 111 230 23 55 46 104 51 110 5 5 9 18 9 30 0 11 7 29 15 39 8 11 15 29
15 41 0 23 26 65 41 65 5 0 17 -4 27 -9z m382 -367 c0 -14 -4 -22 -10 -19 -5
3 -10 17 -10 31 0 14 4 22 10 19 6 -3 10 -17 10 -31z m30 -96 c0 -16 -3 -19
-11 -11 -6 6 -8 16 -5 22 11 17 16 13 16 -11z m-3695 -505 c2 -229 8 -278 61
-488 56 -220 106 -358 200 -547 27 -55 30 -61 78 -143 74 -125 176 -241 279
-315 43 -31 46 -35 32 -49 -32 -32 -384 -9 -457 30 -10 5 -32 9 -49 9 -66 0
-249 98 -385 205 -85 67 -220 254 -194 270 5 3 13 -1 17 -11 12 -33 159 -172
262 -248 109 -81 288 -176 331 -176 l25 0 -22 13 c-200 111 -379 242 -519 380
-118 115 -162 171 -210 267 -38 76 -50 120 -67 255 -12 87 -13 90 -39 93 -31
4 -33 -3 -18 -59 6 -20 14 -72 19 -115 12 -103 32 -184 64 -265 15 -36 27 -68
27 -72 0 -28 135 -274 190 -347 15 -19 29 -42 33 -51 12 -35 163 -202 320
-356 175 -170 227 -214 227 -191 0 33 -142 187 -382 412 -76 71 -138 133 -138
138 0 12 27 10 42 -4 12 -12 127 -88 173 -116 11 -6 38 -20 60 -30 36 -16 58
-23 155 -50 19 -6 28 -18 37 -52 6 -25 21 -81 32 -124 12 -44 35 -107 51 -141
17 -34 30 -65 30 -70 0 -4 26 -39 58 -78 31 -38 69 -85 83 -104 75 -96 202
-216 304 -287 83 -58 248 -146 273 -146 10 0 22 -4 27 -9 6 -6 34 -11 63 -13
29 -2 53 -7 54 -13 5 -28 -160 -82 -275 -90 -79 -6 -251 30 -307 64 -99 60
-220 177 -220 213 0 6 -26 49 -57 96 -31 47 -76 127 -100 177 -24 49 -48 97
-53 105 -6 8 -15 25 -20 38 -11 25 -30 21 -30 -6 0 -9 6 -34 14 -57 8 -22 29
-87 47 -145 34 -109 83 -213 120 -252 90 -97 152 -154 199 -185 30 -20 84 -64
120 -97 64 -60 183 -152 228 -175 29 -16 29 -41 -2 -41 -57 0 -286 21 -331 31
-72 15 -155 39 -193 55 -18 8 -37 14 -42 14 -17 0 -160 70 -228 112 -108 66
-253 182 -312 248 -91 103 -146 172 -187 230 -21 30 -57 81 -80 112 -24 31
-43 59 -43 62 0 2 -19 33 -43 68 -24 35 -46 70 -50 78 -4 8 -11 22 -16 30 -9
13 -58 121 -81 175 -5 11 -15 36 -24 55 -50 117 -79 188 -86 210 -5 14 -18 50
-30 80 -22 59 -82 235 -104 310 -39 130 -48 165 -76 280 -30 129 -80 374 -80
396 0 7 19 14 43 17 107 13 210 42 406 112 83 30 276 128 366 186 17 10 37 22
45 26 38 17 212 158 274 222 39 39 72 68 75 66 2 -3 5 -103 6 -222z m659 188
c14 -22 119 -40 256 -45 207 -7 322 -26 520 -87 92 -28 120 -42 120 -58 0 -8
7 -23 17 -33 9 -10 14 -20 12 -22 -6 -5 -116 11 -199 29 -246 53 -301 56 -570
35 -190 -15 -274 -33 -390 -82 -119 -51 -130 -59 -130 -86 0 -25 -8 -19 -82
58 l-81 84 79 24 c44 13 88 27 99 32 11 5 72 26 135 46 119 37 140 51 140 91
0 20 5 23 34 23 19 0 37 -4 40 -9z m-1545 -74 c-6 -13 -40 -49 -75 -82 -102
-92 -199 -240 -239 -360 -20 -60 -45 91 -58 345 l-2 35 80 8 c77 7 240 47 274
67 26 15 31 12 20 -13z m1070 -279 c69 -72 132 -143 139 -157 19 -40 76 -98
118 -120 56 -30 55 -8 0 46 -25 24 -46 48 -46 52 0 5 -7 14 -15 21 -10 8 -15
31 -15 70 0 50 3 60 25 74 19 13 282 106 299 106 12 0 13 -35 2 -68 -11 -30
-11 -56 -3 -124 8 -66 8 -90 -1 -101 -7 -8 -23 -35 -37 -61 -22 -41 -24 -56
-19 -99 10 -73 37 -128 95 -191 92 -100 246 -184 427 -230 34 -9 88 -23 120
-31 70 -19 369 -35 455 -24 73 10 176 38 197 54 8 6 36 19 63 29 48 18 101 72
125 129 6 15 20 30 29 33 10 3 32 12 48 20 67 32 322 12 407 -32 14 -8 38 -14
52 -14 29 0 41 -18 52 -75 17 -91 105 -183 279 -292 11 -7 27 -15 35 -19 8 -3
33 -14 55 -24 91 -40 144 -56 255 -77 131 -24 223 -27 277 -9 26 9 60 16 76
16 l29 0 -7 -97 c-3 -54 -8 -137 -10 -185 -4 -90 -20 -152 -54 -209 -12 -19
-25 -44 -30 -55 -14 -31 -133 -144 -152 -144 -9 0 -22 7 -29 15 -7 8 -25 15
-40 15 -15 0 -45 12 -66 28 -53 38 -119 65 -155 65 -44 0 -79 -52 -79 -118 0
-38 28 -71 93 -107 20 -12 37 -27 37 -33 0 -6 -19 -19 -42 -29 -24 -9 -58 -24
-76 -32 -18 -8 -41 -14 -50 -14 -10 0 -27 -7 -38 -15 -10 -8 -28 -15 -39 -15
-11 0 -29 -7 -39 -15 -11 -8 -32 -15 -48 -15 -15 0 -42 -6 -60 -14 -31 -13
-62 -22 -223 -61 -142 -35 -755 -50 -852 -21 -116 34 -265 48 -489 45 -227 -2
-216 -3 -319 40 -11 5 -42 16 -70 26 -148 50 -369 154 -449 213 -81 59 -176
201 -176 263 0 10 -4 20 -9 23 -5 3 -14 27 -20 52 -16 61 -3 76 42 49 28 -17
52 -19 182 -19 180 1 220 13 254 76 26 49 19 65 -46 106 -42 25 -139 114 -168
153 -37 51 -69 107 -142 254 -19 39 -48 96 -64 128 -16 31 -29 64 -29 72 0 8
-6 29 -14 47 -30 71 -65 176 -117 353 -23 81 -68 331 -69 383 0 12 3 22 6 22
4 0 63 -59 133 -132z m951 112 c0 -5 -25 -10 -55 -10 -30 0 -55 5 -55 10 0 6
25 10 55 10 30 0 55 -4 55 -10z m-325 -11 c4 -6 -6 -22 -22 -37 -16 -15 -34
-38 -40 -52 -11 -23 -12 -20 -12 28 -1 46 2 54 22 62 30 12 45 12 52 -1z
m2324 -60 c48 -6 106 -18 130 -25 25 -8 56 -14 71 -14 14 0 35 -7 46 -15 10
-8 30 -15 43 -15 28 0 78 -29 142 -82 25 -21 55 -38 66 -38 48 0 70 -29 42
-57 -17 -17 17 -102 54 -137 l30 -29 -53 -50 -53 -50 -26 69 c-19 53 -38 82
-81 125 -30 30 -62 58 -70 62 -8 4 -24 13 -35 19 -57 37 -95 56 -140 71 -151
50 -158 51 -307 51 l-148 1 0 26 c0 14 4 29 9 35 5 5 11 18 13 29 6 34 117 43
267 24z m-4428 -26 c3 -108 9 -179 19 -232 12 -70 10 -77 -34 -98 -55 -26
-132 -68 -163 -91 -39 -28 -53 -28 -53 -1 0 11 -9 32 -20 46 -26 34 -25 49 6
76 36 30 90 88 120 129 19 25 24 41 19 64 -5 27 1 38 42 83 26 28 50 51 55 51
4 0 8 -12 9 -27z m5235 -40 c30 -46 99 -109 173 -157 38 -25 73 -46 77 -46 4
0 16 -7 26 -17 20 -18 23 -53 9 -116 -5 -23 -14 -118 -21 -212 -18 -278 -61
-572 -105 -725 -36 -124 -45 -159 -45 -182 0 -23 -76 -182 -116 -243 l-18 -28
-20 28 c-49 64 -77 85 -115 85 -67 -1 -119 -69 -130 -169 -7 -63 -29 -85 -58
-59 -10 8 -30 18 -45 22 -37 9 -36 36 2 64 55 41 146 179 179 272 7 19 15 66
17 104 3 39 11 107 19 152 11 61 11 90 3 116 -15 49 -4 81 36 109 59 40 96
126 96 227 0 80 -19 125 -59 143 l-32 14 7 65 c4 36 11 75 15 88 5 13 9 40 9
60 0 21 5 53 10 72 15 51 40 235 40 295 0 72 15 85 46 38z m-5427 -31 c22 -20
41 -43 41 -50 0 -7 -16 -30 -36 -51 -19 -22 -41 -46 -47 -54 -7 -8 -24 -17
-38 -21 -22 -5 -31 0 -51 27 -37 48 -39 71 -12 109 30 41 73 78 89 78 7 0 31
-17 54 -38z m2695 -17 c9 -13 28 -61 42 -105 29 -93 25 -108 -34 -108 -72 -1
-72 -1 -72 108 0 54 3 105 6 114 9 24 40 19 58 -9z m-2848 -177 c39 -37 31
-63 -44 -142 -37 -39 -80 -96 -95 -127 -31 -61 -64 -83 -167 -112 -85 -25
-220 -41 -233 -28 -7 7 -53 9 -137 4 -132 -6 -184 -1 -177 20 2 6 32 17 68 24
100 18 148 32 204 58 63 30 75 31 117 5 18 -11 40 -20 50 -20 9 0 47 33 85 74
37 40 95 92 128 114 33 23 85 66 115 97 30 30 56 55 58 55 2 0 15 -10 28 -22z
m2424 0 c0 -13 -5 -41 -10 -63 -14 -62 3 -107 69 -178 55 -58 93 -82 233 -149
16 -7 32 -12 138 -38 25 -7 65 -18 90 -25 25 -7 96 -19 159 -25 162 -18 313 1
401 51 8 5 25 13 38 19 12 5 22 14 22 20 0 6 17 17 38 25 41 17 82 76 82 119
0 25 30 95 41 96 3 0 10 -21 15 -47 11 -59 40 -69 73 -27 21 27 23 27 139 28
92 0 124 -4 149 -17 18 -9 41 -17 52 -17 12 0 50 -13 84 -30 81 -38 94 -38
102 1 8 36 27 33 39 -7 4 -16 17 -49 28 -73 11 -25 26 -65 35 -90 40 -122 258
-269 466 -316 77 -17 302 -21 312 -5 3 6 18 10 33 10 39 0 117 53 149 101 22
33 28 56 31 110 4 60 7 69 23 69 45 0 48 -114 6 -198 -25 -52 -80 -103 -138
-132 -37 -17 -62 -20 -182 -20 -137 0 -157 3 -307 47 -30 9 -91 35 -135 57
-169 88 -263 167 -297 251 -33 84 -52 117 -68 122 -8 3 -28 11 -45 18 -183 80
-300 99 -416 66 -41 -11 -88 -21 -105 -21 -25 -1 -32 -8 -52 -49 -13 -26 -38
-63 -56 -83 -39 -43 -150 -98 -221 -110 -117 -20 -204 -28 -265 -22 -116 11
-329 49 -370 67 -8 3 -47 17 -85 30 -159 54 -268 123 -330 207 -45 61 -57 107
-49 178 5 42 11 55 28 62 38 16 56 12 56 -12z m-2817 -88 c9 -11 26 -20 37
-20 21 0 29 -33 10 -45 -6 -4 -17 -21 -24 -38 -27 -63 -38 -71 -78 -58 -20 6
-43 20 -51 29 -15 16 -14 21 13 62 17 25 30 52 30 61 0 34 36 40 63 9z m777
-41 c0 -16 13 -82 29 -147 16 -64 36 -153 46 -197 32 -150 114 -429 151 -512
8 -17 14 -37 14 -45 0 -8 4 -18 9 -23 5 -6 19 -35 31 -65 12 -30 28 -68 35
-85 7 -16 28 -66 46 -110 18 -44 46 -101 61 -126 30 -50 35 -87 16 -122 -15
-28 -33 -141 -54 -337 -18 -174 -14 -612 6 -666 7 -16 16 -54 21 -84 6 -30 14
-68 19 -85 5 -16 19 -64 31 -105 30 -106 105 -253 156 -308 24 -25 43 -49 43
-52 0 -12 -31 -69 -40 -75 -5 -3 -26 2 -47 10 -23 10 -71 17 -123 18 -70 2
-90 -1 -115 -18 -26 -18 -44 -20 -185 -18 -109 1 -170 6 -205 17 -27 9 -61 16
-73 16 -23 0 -69 21 -102 46 -13 10 -50 30 -165 93 -16 9 -56 35 -87 59 -31
23 -61 42 -68 42 -40 0 -232 175 -319 290 -85 114 -151 264 -151 346 0 48 37
164 65 199 14 19 25 36 25 38 0 3 39 45 88 94 48 49 118 125 155 168 101 118
127 144 151 151 56 18 87 58 158 206 13 28 10 43 -17 68 -25 24 -34 60 -14 60
19 0 122 86 205 172 109 111 162 191 228 340 14 31 30 59 35 63 22 13 9 45
-54 128 -36 48 -65 89 -65 91 0 3 -11 21 -24 41 -22 31 -49 86 -115 226 -32
69 -24 110 27 132 32 14 109 65 136 89 24 22 36 15 36 -23z m-319 -31 c6 -12
22 -63 34 -114 35 -140 143 -344 246 -466 l31 -36 -16 -57 c-19 -64 -63 -149
-111 -215 -71 -96 -230 -224 -317 -255 -42 -15 -43 -15 -65 11 -13 14 -23 29
-23 34 0 9 45 65 93 115 16 17 35 42 44 56 8 14 26 32 38 40 34 20 147 160
173 213 13 25 28 46 33 46 19 0 8 23 -32 68 -23 26 -45 57 -50 70 -5 12 -13
22 -19 22 -5 0 -10 7 -10 16 0 9 -6 30 -14 47 -19 47 -37 114 -46 182 -8 65
-23 109 -39 119 -14 9 -51 -30 -51 -53 0 -11 -4 -22 -9 -25 -5 -4 -19 -27 -31
-54 -44 -95 -53 -107 -92 -132 -22 -14 -52 -37 -66 -52 -31 -31 -42 -35 -42
-13 0 8 4 15 9 15 5 0 13 10 17 23 4 12 19 38 34 57 15 19 30 42 33 50 4 8 16
29 26 46 10 17 30 51 43 75 57 105 125 189 152 189 8 0 21 -10 27 -22z m-31
-322 c5 -5 10 -21 10 -34 l0 -23 -27 19 c-16 11 -43 23 -60 27 -44 9 -46 17
-17 48 13 14 24 30 24 35 0 5 10 22 23 38 l22 29 7 -64 c4 -35 12 -69 18 -75z
m-100 -76 c0 -5 12 -10 26 -10 42 0 60 -17 74 -66 23 -83 -18 -194 -97 -264
-41 -36 -51 -40 -99 -40 -29 0 -56 4 -59 10 -8 14 14 52 26 44 21 -13 78 8
112 41 42 41 56 82 64 182 l5 72 -41 -38 c-45 -42 -48 -51 -26 -85 20 -30 9
-60 -37 -102 -44 -41 -86 -55 -122 -40 -27 11 -28 14 -32 94 -2 45 1 82 6 82
5 0 11 8 14 18 3 9 19 32 35 50 23 24 38 32 64 32 19 0 40 7 47 15 14 17 40
20 40 5z m-235 -146 c-8 -32 -15 -73 -15 -92 0 -25 -4 -32 -16 -30 -9 2 -20
-4 -23 -12 -4 -8 -15 -30 -24 -48 -9 -19 -17 -42 -17 -52 0 -27 31 -81 63
-111 15 -14 27 -32 27 -40 0 -8 7 -23 15 -33 18 -24 20 -72 3 -83 -7 -4 -21
-25 -30 -45 -10 -21 -23 -38 -29 -38 -19 0 -102 66 -134 106 -31 39 -40 52
-75 122 l-22 43 29 32 c49 52 183 237 183 253 0 8 4 14 10 14 5 0 12 11 16 25
3 14 13 25 20 25 8 0 17 7 21 15 13 36 12 4 -2 -51z m415 26 c0 -8 11 -27 25
-42 14 -15 25 -36 25 -47 0 -21 -27 -76 -47 -99 -7 -7 -13 -17 -13 -21 0 -4
-31 -39 -70 -77 -38 -38 -70 -75 -70 -81 0 -7 -6 -13 -13 -13 -8 0 -22 -19
-32 -42 -11 -24 -45 -71 -77 -105 -66 -70 -75 -96 -28 -86 26 5 30 3 30 -16 0
-30 -45 -32 -66 -3 -10 14 -12 13 -21 -3 -8 -13 -17 -16 -36 -11 -48 12 -37
37 66 139 54 53 100 97 102 97 9 0 45 40 45 50 0 17 -24 11 -62 -15 -20 -14
-40 -25 -43 -25 -4 0 -21 11 -39 25 -18 14 -44 25 -58 25 -45 0 -91 87 -68
130 11 21 12 20 33 -12 41 -60 123 -99 179 -85 13 4 49 28 82 54 74 60 127
152 127 221 1 63 8 89 20 71 5 -8 9 -21 9 -29z m-327 -420 c10 -9 -9 -50 -22
-50 -16 0 -43 40 -37 55 6 16 40 13 59 -5z m-23 -334 c0 -6 -7 -24 -16 -41
-27 -52 -53 -139 -45 -153 18 -32 70 74 78 160 l5 46 51 4 c45 4 56 1 79 -21
50 -45 45 -72 -29 -159 -71 -84 -83 -92 -139 -92 -49 0 -53 2 -103 54 -28 30
-51 59 -51 64 0 5 33 42 72 84 66 68 98 86 98 54z m5721 -58 c54 -60 59 -68
59 -96 0 -15 4 -32 10 -38 5 -5 13 -34 17 -64 7 -46 12 -55 31 -58 14 -2 22 2
22 12 0 32 -22 123 -38 153 -13 27 -14 34 -2 48 9 11 23 15 39 11 14 -3 42 -8
61 -12 62 -11 67 -22 72 -152 6 -121 19 -177 41 -170 19 7 21 125 2 175 -27
70 -3 81 80 35 l50 -27 0 -75 c0 -74 -11 -124 -45 -210 -14 -35 -24 -45 -41
-45 -18 0 -26 10 -40 50 -17 50 -32 65 -44 46 -24 -40 -131 30 -158 102 -7 19
-22 22 -32 7 -10 -16 -68 -11 -99 9 -30 20 -76 92 -76 120 0 9 -5 22 -12 29
-25 25 -38 85 -26 122 18 52 27 60 65 60 26 0 42 -8 64 -32z m-572 -34 c404
-195 459 -225 486 -269 34 -53 96 -88 133 -74 27 10 56 -7 67 -40 9 -27 68
-61 108 -61 32 0 37 -3 37 -22 0 -13 -9 -34 -19 -47 l-18 -23 -154 76 c-156
76 -355 181 -374 196 -5 4 -55 31 -110 60 -161 84 -236 132 -274 174 -22 23
-23 28 -11 51 7 14 18 25 24 25 5 0 53 -21 105 -46z m-3958 -175 c31 -46 59
-97 63 -112 3 -15 13 -27 21 -27 8 0 27 -19 42 -42 15 -24 30 -45 33 -48 3 -3
32 -39 64 -80 82 -103 226 -242 275 -266 22 -10 41 -23 41 -28 0 -13 -31 -46
-44 -46 -19 0 -104 -79 -149 -138 -63 -83 -137 -250 -137 -312 0 -14 -7 -38
-15 -54 -9 -16 -15 -55 -15 -93 0 -61 1 -64 23 -61 19 3 22 8 19 46 -5 54 15
95 67 147 23 21 41 43 41 47 0 5 24 41 54 81 29 40 62 90 73 112 41 82 73 154
73 167 0 25 31 58 54 58 13 0 33 -9 46 -20 12 -10 35 -25 51 -32 35 -16 36
-21 5 -61 -42 -55 -69 -136 -62 -189 5 -45 3 -49 -23 -63 -60 -30 -123 -188
-105 -260 4 -16 2 -30 -4 -34 -6 -4 -27 -38 -47 -76 l-36 -69 -106 -4 c-81 -2
-109 -7 -118 -18 -14 -20 -75 -15 -86 6 -5 8 -27 45 -49 83 -22 37 -40 71 -40
75 0 4 -6 19 -14 33 -12 24 -39 109 -66 209 -14 49 -29 132 -40 220 -6 41 -15
100 -20 131 -13 71 -13 527 0 565 5 16 14 77 19 135 5 59 15 117 22 130 l12
24 11 -25 c6 -14 36 -64 67 -111z m5268 85 c28 -20 23 -48 -20 -112 -16 -23
-29 -45 -29 -48 0 -3 -28 -41 -62 -85 -35 -44 -76 -98 -93 -119 -32 -42 -64
-51 -86 -24 -11 13 -10 22 8 57 12 23 25 66 28 96 7 48 14 62 67 120 33 36 73
81 89 99 33 36 62 41 98 16z m-892 -40 c-9 -9 -28 6 -21 18 4 6 10 6 17 -1 6
-6 8 -13 4 -17z m-3184 -41 c23 -14 88 -48 145 -75 89 -42 105 -53 118 -83 19
-47 18 -72 -7 -85 -17 -10 -28 -5 -72 28 -67 51 -225 199 -238 223 -14 27 3
24 54 -8z m2825 -43 l23 -19 -26 -36 -27 -35 25 -53 c15 -28 49 -75 77 -104
27 -28 50 -56 50 -61 0 -5 -18 -29 -39 -52 l-39 -43 -39 15 c-21 9 -62 19 -91
23 -61 8 -73 24 -48 65 9 16 16 39 16 52 0 13 5 29 11 35 6 6 11 51 11 104 0
70 5 99 16 112 20 22 51 21 80 -3z m122 -70 c28 -16 53 -30 57 -30 6 0 76 -55
112 -88 18 -17 33 -22 52 -18 20 4 44 -6 95 -39 38 -25 74 -45 80 -45 6 0 38
-13 70 -30 32 -16 65 -30 72 -30 7 0 20 -4 30 -9 18 -10 67 -32 166 -75 32
-14 66 -26 75 -26 9 0 30 -11 46 -24 l30 -24 -23 -29 c-12 -15 -35 -45 -50
-65 -15 -21 -37 -41 -49 -44 -23 -6 -82 5 -143 26 -79 28 -117 43 -145 55 -39
17 -104 39 -185 61 -36 9 -72 23 -81 31 -8 7 -22 13 -31 13 -16 0 -44 27 -62
59 -6 11 -28 53 -49 93 -21 40 -46 80 -55 89 -48 46 -99 106 -105 122 -6 15
22 57 38 57 2 0 27 -13 55 -30z m-362 -29 c2 -13 -1 -28 -7 -34 -15 -15 -14
-109 1 -142 20 -45 0 -51 -84 -25 -148 45 -200 58 -348 87 -37 7 -10 18 90 37
132 26 304 79 316 98 10 15 29 3 32 -21z m-2171 -23 c36 -18 41 -24 26 -29
-30 -11 -123 -26 -128 -21 -7 8 -6 58 2 65 13 13 57 7 100 -15z m318 -57 c3
-6 17 -6 35 0 20 8 45 7 80 0 28 -6 74 -11 103 -11 29 -1 72 -5 97 -10 48 -11
188 -35 284 -51 33 -5 100 -21 148 -36 l88 -26 0 -37 c0 -21 -7 -43 -15 -50
-9 -7 -15 -29 -15 -52 0 -35 -8 -48 -60 -105 -33 -36 -60 -72 -60 -79 0 -21
-38 -17 -57 6 -11 12 -30 20 -48 20 -23 0 -37 8 -53 30 -13 17 -30 30 -38 30
-9 0 -28 7 -44 16 -35 21 -69 13 -107 -26 -24 -25 -33 -28 -58 -21 -21 5 -29
14 -28 27 2 28 -14 34 -105 34 -113 0 -182 -34 -182 -92 0 -25 -4 -28 -31 -28
-44 0 -58 -24 -59 -98 0 -76 23 -127 78 -171 42 -33 129 -79 171 -90 35 -10
33 -33 -4 -50 -38 -17 -114 -89 -126 -118 -11 -30 -23 -29 -37 2 -15 33 -53
41 -131 27 -73 -12 -97 -3 -86 32 3 12 13 44 21 71 59 198 59 310 2 384 -31
40 -23 58 36 85 49 22 67 36 134 97 12 12 22 27 22 35 0 17 -57 47 -75 40 -38
-14 -325 112 -325 144 0 20 36 30 114 30 28 1 78 7 111 15 33 8 86 15 117 15
31 0 60 5 63 10 8 13 32 13 40 1z m1164 -95 l-41 -44 -63 6 -64 5 -60 -53
c-34 -29 -64 -51 -67 -48 -3 4 0 24 7 47 13 45 4 66 -38 82 -51 19 -21 29 90
30 61 0 132 4 157 8 25 5 62 9 83 10 l37 1 -41 -44z m231 10 c25 -8 70 -21
100 -29 136 -36 188 -50 230 -63 25 -7 72 -20 105 -29 33 -9 84 -22 113 -30
134 -38 234 -63 297 -76 53 -11 115 -29 270 -83 188 -65 200 -70 304 -115 52
-23 101 -41 109 -41 23 0 91 -34 92 -45 0 -5 -37 -17 -83 -26 -75 -15 -113
-32 -183 -84 -10 -7 -29 5 -71 46 -32 30 -74 67 -93 80 -62 45 -240 126 -325
148 -16 5 -46 18 -65 29 -19 12 -53 25 -75 30 -22 6 -76 20 -120 32 -44 12
-98 25 -120 29 -23 4 -47 11 -55 16 -7 4 -30 12 -49 16 -32 7 -134 32 -301 74
-69 17 -228 45 -257 45 -36 0 -34 14 5 58 35 40 39 42 82 37 25 -3 65 -12 90
-19z m1630 -33 c0 -5 20 -17 45 -28 25 -11 45 -22 45 -26 0 -19 -23 -69 -32
-69 -6 0 -54 21 -106 46 -88 42 -94 47 -79 61 14 14 20 15 41 3 22 -11 29 -11
48 3 26 18 38 21 38 10z m402 -69 c51 -9 153 -100 142 -127 -5 -15 -14 -18
-37 -13 -65 13 -167 19 -167 9 0 -5 14 -22 30 -38 33 -32 38 -45 15 -45 -9 0
-18 -7 -21 -15 -9 -23 -31 -18 -78 18 -23 17 -70 48 -104 67 -34 19 -64 41
-67 48 -3 8 -2 31 1 52 l6 39 72 4 c144 7 172 7 208 1z m-2294 -20 c126 -29
187 -43 262 -59 41 -9 98 -23 125 -30 28 -8 61 -16 75 -19 14 -3 45 -10 70
-16 25 -7 70 -18 100 -25 30 -8 91 -23 135 -35 44 -12 107 -28 140 -35 33 -7
85 -23 115 -35 30 -12 66 -25 80 -30 79 -26 151 -80 320 -238 14 -13 44 -38
66 -55 23 -17 49 -44 57 -60 15 -26 15 -28 -1 -33 -9 -3 -24 -9 -32 -14 -8 -5
-33 -19 -54 -30 -148 -80 -350 -297 -477 -510 -42 -71 -71 -126 -83 -160 -3
-8 -10 -22 -15 -30 -5 -8 -16 -40 -26 -70 -41 -132 -80 -217 -105 -225 -11 -4
-53 -2 -92 4 -40 6 -179 17 -308 26 -129 8 -305 20 -390 25 -85 6 -237 15
-336 20 -100 5 -228 14 -284 20 -56 7 -178 11 -275 8 -115 -2 -176 0 -179 7
-2 6 5 37 15 70 10 33 19 69 19 80 0 11 7 33 15 49 8 15 15 36 15 46 0 22 17
36 55 46 30 7 85 33 95 45 3 3 15 11 27 18 13 6 30 25 38 41 9 18 26 32 43 35
51 11 127 54 182 103 13 12 28 22 31 22 4 0 21 21 38 47 25 37 31 57 31 98 0
29 6 59 15 71 41 55 -4 141 -107 203 -45 27 -48 44 -12 68 14 9 46 46 71 82
46 69 86 117 244 298 52 60 108 128 125 151 25 36 34 42 67 42 21 0 68 -7 105
-16z m1141 -6 c11 -29 5 -38 -22 -38 -34 0 -50 15 -42 39 9 29 53 29 64 -1z
m-2124 -188 c-4 -11 -20 -35 -36 -52 -39 -43 -39 -91 0 -145 59 -81 144 -129
248 -139 82 -8 113 -19 113 -38 0 -20 -22 -26 -96 -26 -36 0 -86 -5 -111 -12
-49 -12 -43 -13 -161 46 -78 38 -152 104 -173 152 -23 54 -24 87 -4 104 19 16
35 4 35 -26 0 -39 35 -99 77 -131 56 -43 90 -63 108 -63 21 0 19 17 -2 24 -25
8 -85 65 -122 116 -24 34 -31 53 -31 91 0 56 23 85 77 95 18 3 36 10 39 15 3
5 14 9 25 9 16 0 19 -5 14 -20z m-607 -29 c43 -6 49 -10 69 -51 31 -63 30 -84
-2 -76 -14 4 -33 14 -43 24 -10 10 -39 33 -65 51 -50 36 -67 79 -26 66 11 -4
42 -10 67 -14z m930 -9 c31 -16 66 -33 77 -39 11 -6 33 -16 48 -22 19 -8 25
-15 20 -24 -103 -171 -130 -195 -178 -163 -13 9 -34 16 -47 16 -22 0 -68 36
-68 53 0 23 -35 47 -66 47 -42 0 -84 19 -84 38 0 9 -7 23 -16 33 -16 18 -13
49 5 49 5 0 11 -9 14 -20 6 -23 27 -27 27 -5 0 20 46 30 76 16 34 -15 36 -15
79 19 21 17 42 30 47 30 5 0 35 -13 66 -28z m-776 -9 c10 -9 18 -24 18 -33 0
-9 7 -25 15 -36 19 -25 19 -133 0 -207 -8 -32 -15 -73 -15 -92 0 -19 -9 -52
-20 -73 -20 -38 -23 -39 -82 -45 -81 -7 -90 -3 -72 31 8 15 14 39 14 55 0 28
46 133 89 202 30 47 37 127 14 163 -27 43 2 69 39 35z m-772 -126 c148 -68
282 -97 455 -97 113 0 127 2 142 20 17 19 53 27 66 14 12 -12 -23 -63 -45 -66
-25 -3 -25 -3 -50 -165 -9 -64 -16 -83 -28 -83 -32 0 -130 87 -130 115 0 12
-55 53 -117 87 -18 10 -53 18 -77 18 -42 0 -129 -31 -141 -50 -11 -18 -36 -11
-76 21 -33 26 -49 31 -90 31 -33 0 -56 -5 -69 -17 -10 -9 -23 -14 -29 -11 -11
7 -8 21 14 71 7 17 21 50 31 74 10 24 27 55 37 68 17 21 21 22 36 10 9 -8 41
-26 71 -40z m1347 -51 c20 -18 25 -28 17 -36 -8 -8 -21 -5 -48 10 -36 22 -42
31 -29 43 12 13 32 7 60 -17z m2363 -61 c30 -25 70 -55 88 -67 40 -28 40 -61
0 -66 -22 -3 -32 4 -51 35 -14 21 -48 58 -76 83 -28 24 -51 48 -51 52 0 20 40
3 90 -37z m348 -67 c7 -46 19 -123 27 -173 41 -256 51 -455 24 -455 -5 0 -15
13 -23 29 -9 16 -22 31 -31 34 -18 8 -20 34 -2 40 14 5 -4 40 -100 197 -35 55
-63 105 -63 110 0 11 -40 50 -52 50 -17 0 76 -174 122 -227 5 -7 10 -15 10
-18 0 -8 44 -69 53 -73 10 -5 9 -32 -2 -32 -5 0 -11 7 -15 15 -3 8 -12 12 -21
9 -10 -4 -15 0 -15 10 0 9 -6 16 -13 16 -8 0 -19 10 -26 23 -6 12 -20 36 -31
52 -10 17 -35 64 -55 105 -20 41 -41 84 -47 94 -9 16 -6 24 13 41 25 22 41 44
60 82 9 16 8 28 -3 50 -13 27 -13 30 8 46 13 9 30 17 38 17 8 0 18 5 21 11 10
15 45 28 81 28 l31 1 11 -82z m-4104 -44 c26 -9 53 -25 59 -35 15 -24 22 -24
82 6 61 30 147 33 200 8 40 -19 45 -33 13 -33 -40 0 -164 -29 -211 -49 -43
-18 -49 -19 -99 -4 -29 8 -65 17 -79 20 -34 6 -119 -31 -155 -68 -38 -40 -58
-39 -49 4 17 77 69 135 144 157 38 12 43 12 95 -6z m1599 -79 c103 -31 129
-59 119 -131 -6 -42 -11 -50 -31 -52 -13 -2 -27 2 -31 8 -14 22 -113 49 -183
50 -75 0 -130 -21 -125 -47 3 -14 22 -17 131 -19 76 -1 133 -6 141 -13 7 -6
24 -10 37 -9 21 3 24 -2 27 -34 3 -33 -3 -44 -41 -85 -25 -27 -74 -63 -109
-82 -58 -31 -72 -34 -173 -38 -119 -5 -155 -15 -155 -46 0 -18 5 -19 58 -14
31 3 65 8 74 12 12 5 20 1 24 -10 9 -24 -25 -49 -97 -70 -62 -19 -88 -16 -156
16 l-41 20 -49 -30 c-52 -32 -204 -86 -271 -97 -42 -6 -49 -1 -42 31 1 6 6 39
12 75 16 102 85 233 157 298 68 60 168 111 177 88 3 -8 -18 -47 -45 -87 -28
-40 -51 -79 -51 -87 0 -7 -7 -20 -15 -28 -25 -26 -18 -63 20 -101 44 -44 57
-36 21 11 -37 49 -34 79 9 105 21 12 35 28 35 40 0 26 110 174 175 236 56 53
93 68 215 90 91 17 128 17 183 0z m-1119 -56 c30 -23 26 -39 -9 -39 -13 0 -36
-6 -51 -12 -22 -10 -28 -10 -32 0 -7 23 -60 12 -145 -32 -90 -47 -129 -70
-162 -97 -11 -10 -48 -40 -83 -68 -34 -29 -70 -64 -79 -79 -38 -58 -128 -102
-209 -102 -67 0 -77 29 -42 122 22 58 45 79 73 66 20 -9 34 -5 87 25 35 19 80
47 101 61 21 14 40 26 44 26 3 0 22 14 43 30 21 17 42 30 48 30 6 0 23 6 39
14 88 44 198 74 279 75 58 1 76 -3 98 -20z m-450 -18 c6 -9 -23 -32 -84 -64
-89 -49 -123 -69 -150 -88 -17 -13 -35 -19 -46 -15 -15 6 -16 8 0 24 9 10 16
25 16 34 0 19 74 72 136 97 51 21 119 27 128 12z m3754 -22 c4 -34 52 -149 85
-204 69 -113 245 -307 301 -330 28 -12 31 -17 48 -116 19 -114 22 -177 9 -197
-9 -14 -50 -27 -141 -44 -32 -5 -154 -8 -287 -6 l-233 4 -31 30 c-17 16 -37
40 -44 54 -7 14 -22 34 -32 45 -22 23 -93 139 -93 151 0 4 -6 15 -13 23 -8 9
-24 40 -36 68 -24 60 -21 72 39 148 17 22 46 58 63 80 58 73 180 190 317 304
30 25 44 22 48 -10z m-2940 -21 c7 -7 41 -15 74 -18 l61 -5 -48 -24 c-51 -25
-170 -132 -186 -166 -5 -11 -13 -27 -18 -35 -8 -14 -20 -40 -55 -122 -12 -27
-16 -72 -17 -179 -1 -129 1 -144 20 -170 21 -29 27 -49 14 -49 -5 0 -32 23
-62 50 -29 28 -57 50 -60 50 -18 0 -42 70 -39 111 l3 44 -47 14 c-39 12 -48
19 -53 43 -4 15 -10 28 -14 28 -18 0 -41 116 -41 210 0 115 17 161 65 182 34
14 38 15 190 22 61 3 126 10 145 15 49 13 54 13 68 -1z m-458 -14 c0 -3 -9
-18 -19 -33 -28 -39 -61 -139 -61 -185 0 -46 27 -152 47 -181 7 -11 13 -25 13
-32 0 -6 17 -39 38 -73 20 -33 42 -70 49 -82 36 -65 143 -169 195 -190 23 -9
23 -35 1 -46 -10 -5 -74 -12 -143 -15 -69 -3 -199 -11 -290 -18 -180 -12 -448
-6 -570 14 -78 12 -150 46 -150 70 0 21 199 145 236 147 6 0 16 11 24 24 13
25 46 40 55 26 3 -4 -2 -13 -10 -20 -19 -16 -19 -30 1 -30 19 0 140 55 257
117 32 16 27 33 -9 33 -29 0 -135 -34 -180 -57 -17 -9 -39 -13 -47 -10 -15 6
-15 9 -1 44 9 21 19 40 23 43 3 3 15 23 26 45 10 22 34 57 52 78 18 20 33 40
33 45 0 12 54 68 78 81 13 7 40 27 60 45 39 35 203 136 220 136 5 0 15 7 22
15 12 14 50 21 50 9z m-834 -300 c31 -8 45 -60 49 -184 3 -97 1 -112 -13 -117
-9 -3 -31 -21 -49 -40 -27 -30 -34 -33 -52 -24 -43 24 -110 130 -155 248 -31
84 11 116 159 121 22 1 49 -1 61 -4z m-1188 -69 c11 -10 8 -13 -18 -17 -38 -6
-73 16 -50 32 17 11 48 4 68 -15z m781 -22 c31 -6 68 -12 83 -12 16 -1 31 -9
38 -20 18 -35 12 -50 -24 -57 -20 -3 -53 -23 -77 -45 -39 -36 -44 -38 -88 -32
-62 8 -201 76 -201 99 0 24 93 74 139 74 10 0 24 7 31 15 10 12 15 13 28 3 8
-7 40 -18 71 -25z m681 -3 c0 -13 -40 -89 -51 -96 -5 -3 -9 -21 -9 -40 0 -32
-2 -34 -34 -34 -28 0 -36 5 -46 29 -6 16 -12 51 -13 77 l-2 48 55 12 c71 15
100 16 100 4z m-1564 -32 c16 -12 31 -25 34 -29 3 -4 29 -17 58 -28 63 -25
189 -28 254 -7 24 8 59 17 78 21 19 4 57 18 83 31 47 23 87 31 87 17 0 -3 -7
-15 -16 -25 -16 -16 -15 -20 6 -51 47 -68 143 -117 231 -117 67 0 64 -17 -14
-93 -100 -98 -217 -184 -330 -242 -68 -35 -77 -30 -77 51 0 44 4 53 30 72 16
12 36 22 45 22 8 0 15 7 15 15 0 18 -47 20 -84 4 -51 -24 -240 44 -322 115
-39 33 -77 98 -119 203 -26 63 -9 79 41 41z m2900 -82 c19 -14 19 -15 -3 -58
-44 -90 -49 -114 -53 -260 0 -10 -111 -9 -165 0 -31 6 -41 12 -43 30 -2 14 2
22 10 22 26 0 142 128 175 192 18 35 32 69 33 76 0 16 22 15 46 -2z m2153 -88
c28 -57 69 -123 91 -148 67 -74 68 -80 18 -80 -47 0 -155 18 -178 30 -8 4 -14
18 -13 31 1 13 5 75 8 138 5 103 9 131 20 131 2 0 27 -46 54 -102z m-2289 74
c0 -4 -16 -31 -35 -61 -19 -29 -35 -56 -35 -60 0 -3 -13 -21 -30 -39 -16 -18
-30 -36 -30 -39 0 -17 -53 -51 -89 -57 -56 -9 -81 6 -81 48 0 18 -3 54 -6 79
-6 45 -6 46 22 52 16 3 56 13 89 21 56 14 79 22 145 52 30 13 50 15 50 4z"/>
<path d="M5460 8233 c-14 -2 -62 -22 -108 -44 -71 -35 -99 -56 -190 -148 -108
-109 -113 -114 -145 -163 -48 -75 7 -79 62 -4 22 29 63 68 93 87 29 19 62 40
73 47 47 29 128 63 230 95 56 18 157 17 192 -1 26 -14 63 -16 63 -3 0 5 -15
20 -32 33 -18 12 -45 33 -60 46 -53 47 -117 67 -178 55z m99 -52 l34 -18 -77
-6 c-42 -4 -86 -12 -97 -18 -11 -5 -28 -8 -37 -6 -15 3 -14 5 3 12 11 4 26 13
34 19 17 13 70 33 91 34 8 1 30 -7 49 -17z"/>
<path d="M5765 8170 c-8 -13 37 -40 83 -51 41 -9 129 -48 177 -79 17 -11 37
-23 45 -26 8 -4 35 -23 60 -43 25 -20 51 -40 58 -46 7 -5 21 -17 30 -26 42
-38 143 -112 147 -107 8 8 -19 54 -68 118 -80 103 -193 174 -370 234 -108 37
-151 44 -162 26z"/>
<path d="M5160 7397 c0 -40 161 -167 260 -205 50 -20 167 -33 225 -26 53 6
125 33 125 46 0 13 -37 9 -49 -6 -14 -17 -168 -21 -235 -6 -66 15 -175 68
-206 100 -51 54 -120 110 -120 97z"/>
<path d="M3440 7335 c0 -8 5 -15 10 -15 6 0 10 7 10 15 0 8 -4 15 -10 15 -5 0
-10 -7 -10 -15z"/>
<path d="M3410 7295 c0 -8 -5 -15 -10 -15 -6 0 -33 -35 -60 -77 -47 -74 -61
-113 -41 -113 5 0 11 8 15 18 3 9 14 29 23 44 32 48 93 149 93 154 0 2 -4 4
-10 4 -5 0 -10 -7 -10 -15z"/>
<path d="M6090 7271 c0 -11 5 -23 10 -26 6 -3 10 3 10 14 0 11 -4 23 -10 26
-5 3 -10 -3 -10 -14z"/>
<path d="M4035 7260 c-7 -12 22 -12 50 0 17 7 15 9 -12 9 -17 1 -35 -3 -38 -9z"/>
<path d="M4252 7265 c3 -4 23 -10 43 -15 26 -6 35 -5 32 3 -2 7 -21 13 -43 15
-21 2 -36 1 -32 -3z"/>
<path d="M5930 7223 c0 -33 -47 -63 -57 -37 -3 8 -10 14 -15 14 -14 0 -4 -146
12 -185 11 -27 13 -28 20 -10 4 11 16 56 26 100 10 44 21 84 26 90 11 13 10
55 -2 55 -5 0 -10 -12 -10 -27z"/>
<path d="M3880 7224 c-14 -7 -34 -14 -46 -14 -11 0 -29 -7 -40 -15 -10 -8 -26
-15 -35 -15 -15 0 -59 -18 -101 -41 -10 -5 -25 -9 -33 -9 -8 0 -23 -9 -32 -20
-10 -11 -27 -20 -40 -20 -12 0 -24 -4 -28 -9 -3 -6 -27 -20 -53 -33 -53 -25
-126 -78 -118 -85 5 -6 119 50 158 78 14 10 29 19 33 19 7 0 92 36 117 50 10
6 24 10 31 10 8 0 22 9 32 20 10 11 25 20 34 20 9 0 48 12 86 26 39 14 80 28
93 31 12 3 25 9 28 14 8 14 -58 9 -86 -7z"/>
<path d="M4354 7227 c40 -26 102 -81 121 -108 23 -33 35 -37 35 -10 0 29 -115
131 -148 130 -25 0 -25 -1 -8 -12z"/>
<path d="M6120 7141 c0 -23 5 -41 10 -41 6 0 10 15 10 34 0 19 -4 38 -10 41
-6 4 -10 -10 -10 -34z"/>
<path d="M6404 7089 c-3 -6 -1 -16 5 -22 8 -8 11 -5 11 11 0 24 -5 28 -16 11z"/>
<path d="M7078 7094 c-5 -4 -8 -20 -8 -37 0 -31 -33 -66 -62 -67 -23 0 -25
-48 -2 -57 32 -12 87 77 82 134 -2 19 -6 31 -10 27z"/>
<path d="M4520 7058 c0 -16 5 -28 10 -28 13 0 13 20 0 40 -8 12 -10 9 -10 -12z"/>
<path d="M6146 7003 c3 -43 10 -91 14 -108 5 -16 11 -57 15 -90 11 -106 54
-172 55 -82 0 29 14 37 24 12 3 -8 10 -15 16 -15 13 0 13 67 1 75 -6 3 -13 26
-17 51 -5 34 -10 44 -23 42 -20 -4 -49 52 -57 107 -9 67 -14 85 -24 85 -6 0
-7 -30 -4 -77z"/>
<path d="M6392 7038 c-5 -7 -13 -27 -16 -43 -5 -21 -17 -37 -41 -49 -38 -21
-43 -31 -19 -40 23 -9 72 20 89 54 26 51 16 114 -13 78z"/>
<path d="M5360 6895 c-80 -19 -133 -49 -189 -106 -46 -47 -91 -122 -106 -176
-4 -13 -11 -23 -16 -23 -5 0 -9 -16 -9 -35 0 -19 5 -35 10 -35 6 0 10 13 10
29 0 16 7 34 15 41 8 7 25 33 37 58 35 70 121 157 186 188 46 22 69 26 130 26
80 -1 98 -5 152 -29 74 -34 97 -48 168 -101 40 -30 76 -52 80 -47 8 8 -126
135 -144 135 -7 0 -19 6 -26 13 -30 28 -181 79 -226 76 -9 -1 -42 -7 -72 -14z"/>
<path d="M4680 6868 c0 -25 3 -29 10 -18 13 20 13 50 0 50 -5 0 -10 -15 -10
-32z"/>
<path d="M5880 6825 c0 -40 33 -135 47 -135 7 0 48 -33 89 -72 87 -84 113
-102 92 -67 -7 12 -20 30 -28 39 -69 76 -150 181 -150 194 0 3 -11 17 -25 32
-21 23 -25 24 -25 9z"/>
<path d="M6383 6730 c-30 -12 -32 -44 -2 -35 38 12 104 8 135 -8 60 -31 144
-137 160 -202 3 -14 10 -28 15 -31 12 -7 12 42 0 64 -6 9 -20 40 -33 67 -30
65 -71 110 -123 135 -43 21 -113 25 -152 10z"/>
<path d="M7196 6582 c-57 -39 -64 -55 -43 -91 9 -16 17 -49 17 -75 0 -25 5
-46 10 -46 6 0 10 32 10 75 0 86 14 109 73 120 40 8 109 -9 127 -30 7 -8 19
-15 26 -15 8 0 14 -4 14 -10 0 -5 5 -10 10 -10 19 0 10 19 -27 55 -20 19 -44
35 -54 35 -10 0 -21 5 -24 10 -3 6 -27 10 -53 10 -35 -1 -57 -8 -86 -28z"/>
<path d="M2343 6393 c15 -2 37 -2 50 0 12 2 0 4 -28 4 -27 0 -38 -2 -22 -4z"/>
<path d="M6810 5841 c0 -12 5 -21 10 -21 6 0 10 6 10 14 0 8 -4 18 -10 21 -5
3 -10 -3 -10 -14z"/>
<path d="M5160 5833 c0 -9 82 -83 92 -83 15 0 8 15 -23 53 -26 32 -69 51 -69
30z"/>
<path d="M6775 5778 c-9 -33 -39 -92 -47 -96 -5 -2 -8 -12 -8 -23 0 -11 -28
-72 -61 -137 -155 -296 -179 -345 -179 -368 0 -13 4 -24 9 -24 25 0 221 374
221 422 0 15 7 33 15 41 7 8 17 28 21 43 4 16 18 50 31 75 24 48 30 89 14 89
-5 0 -13 -10 -16 -22z"/>
<path d="M4095 5755 c-110 -29 -198 -65 -210 -86 -4 -5 -13 -9 -21 -9 -27 0
-111 -66 -100 -78 9 -8 117 49 123 66 3 6 11 12 19 12 13 0 66 20 117 46 16 8
39 14 52 14 35 0 71 16 78 34 7 18 9 18 -58 1z"/>
<path d="M5060 5581 c0 -11 7 -26 15 -35 8 -8 15 -20 15 -26 0 -27 159 -296
201 -341 8 -8 27 -34 43 -58 15 -24 67 -85 115 -135 48 -50 144 -152 212 -226
239 -260 437 -450 468 -450 24 0 -128 178 -314 366 -119 119 -298 317 -459
504 -12 14 -52 66 -89 115 -36 50 -70 95 -75 100 -20 25 -112 184 -112 194 0
6 -4 11 -10 11 -5 0 -10 -9 -10 -19z"/>
<path d="M6480 5560 c0 -5 7 -10 15 -10 8 0 15 5 15 10 0 6 -7 10 -15 10 -8 0
-15 -4 -15 -10z"/>
<path d="M6235 4778 c-4 -40 -11 -79 -16 -88 -8 -14 -25 -154 -36 -294 -4 -42
-2 -57 7 -54 22 7 39 80 44 187 3 58 9 154 12 214 7 121 0 145 -11 35z"/>
<path d="M1163 7355 c-15 -41 33 -312 68 -377 5 -10 9 -23 9 -30 0 -16 56
-131 99 -203 37 -63 49 -79 121 -157 45 -50 171 -148 190 -148 20 0 10 29 -16
47 -72 49 -214 200 -237 253 -4 8 -16 29 -27 45 -11 17 -25 41 -30 55 -6 13
-22 46 -36 73 -13 27 -24 55 -24 62 0 7 -7 26 -15 41 -8 16 -15 39 -15 50 0
12 -7 41 -15 64 -8 23 -15 64 -15 89 0 55 -26 151 -41 151 -5 0 -12 -7 -16
-15z"/>
<path d="M895 4047 c-48 -24 -126 -55 -177 -70 -58 -17 -45 -27 34 -27 61 0
79 4 127 31 58 33 101 67 101 81 0 14 -43 7 -85 -15z"/>
<path d="M1316 3930 c7 -7 19 -7 35 -1 23 9 22 10 -10 10 -24 1 -32 -2 -25 -9z"/>
<path d="M4484 4965 c-18 -13 -18 -15 -2 -31 14 -14 39 -18 125 -21 60 -2 142
-8 183 -14 41 -6 120 -16 175 -24 105 -13 146 -27 180 -60 29 -28 80 -97 88
-117 4 -10 11 -18 17 -18 5 0 10 -6 10 -13 0 -7 14 -21 30 -30 28 -17 40 -12
21 8 -4 6 -17 33 -27 60 -10 28 -29 61 -41 75 -32 34 -29 44 12 37 43 -7 50
19 8 29 -16 3 -46 14 -68 24 -69 30 -78 33 -145 46 -36 7 -85 17 -110 23 -25
6 -71 10 -103 11 -32 0 -66 4 -75 9 -9 4 -72 11 -138 14 -95 5 -126 3 -140 -8z"/>
<path d="M3875 4783 c-87 -12 -175 -49 -175 -75 0 -11 71 -10 122 2 24 6 94
21 157 33 149 29 159 48 24 46 -54 -1 -111 -4 -128 -6z"/>
<path d="M5236 4338 c-18 -10 -18 -11 5 -24 13 -7 30 -13 37 -14 18 0 15 37
-4 44 -19 7 -15 8 -38 -6z"/>
<path d="M4573 4193 c-7 -2 -13 -9 -13 -14 0 -12 51 -11 70 1 13 8 13 10 -2
10 -9 0 -22 2 -30 4 -7 3 -19 2 -25 -1z"/>
<path d="M4986 4163 c-3 -3 -3 -10 0 -14 7 -12 44 -12 44 0 0 10 -36 21 -44
14z"/>
<path d="M6592 4157 c-19 -13 -35 -34 -39 -50 -3 -15 -10 -30 -14 -33 -18 -11
-10 -94 13 -124 33 -45 41 -37 34 28 -8 72 11 147 38 147 26 0 54 -91 55 -176
1 -36 4 -68 7 -72 4 -3 20 4 36 16 28 20 29 24 22 72 -3 27 -10 55 -14 60 -4
6 -11 24 -14 41 -7 30 -70 115 -84 113 -4 0 -22 -10 -40 -22z"/>
<path d="M6127 3692 c-23 -25 -21 -49 4 -62 41 -23 90 35 57 68 -17 17 -42 15
-61 -6z"/>
<path d="M5400 3210 c-9 -17 -5 -33 27 -97 45 -90 88 -130 197 -184 69 -35 86
-39 150 -39 49 1 83 7 111 20 22 11 49 19 61 20 27 0 58 34 51 55 -8 19 -41
20 -60 1 -21 -21 -132 -39 -191 -30 -127 17 -279 141 -288 235 -4 42 -40 53
-58 19z"/>
<path d="M3980 2820 c0 -9 21 -36 65 -84 68 -73 265 -188 480 -280 22 -10 48
-22 58 -27 54 -29 300 -99 348 -99 32 0 21 17 -16 24 -19 4 -47 13 -62 21 -15
8 -36 15 -45 15 -9 0 -19 4 -22 9 -3 5 -18 12 -33 15 -16 4 -41 13 -58 20 -16
8 -41 19 -55 24 -91 39 -136 59 -225 104 -55 27 -109 55 -120 61 -54 32 -162
103 -174 115 -17 16 -128 92 -135 92 -4 0 -6 -4 -6 -10z"/>
<path d="M7640 3997 c0 -33 95 -217 113 -217 24 0 -15 112 -70 203 -26 42 -43
48 -43 14z"/>
<path d="M7550 3988 c0 -7 -6 -24 -13 -38 -23 -43 -51 -166 -42 -186 6 -16 9
-14 23 16 34 80 62 220 43 220 -6 0 -11 -6 -11 -12z"/>
<path d="M2075 4293 c-41 -6 -67 -31 -63 -62 4 -32 38 -43 38 -12 0 14 9 23
28 27 34 8 52 22 52 40 0 8 -6 13 -12 13 -7 -1 -26 -4 -43 -6z"/>
<path d="M2110 1996 c-21 -46 -22 -60 -17 -180 5 -129 30 -305 48 -338 5 -9 9
-25 9 -35 0 -40 106 -264 151 -318 55 -67 136 -137 185 -160 29 -14 57 -25 63
-25 6 0 -31 42 -82 93 -51 50 -105 109 -121 130 -39 53 -86 147 -86 173 0 12
-7 27 -15 34 -9 7 -13 20 -10 28 3 8 -2 23 -11 33 -17 18 -12 39 9 39 7 0 62
-49 122 -108 61 -60 142 -129 180 -154 73 -48 168 -91 179 -81 10 10 7 23 -6
23 -6 0 -18 7 -27 15 -9 9 -56 46 -106 82 -202 150 -296 271 -409 525 -11 25
-16 67 -17 135 0 54 -4 107 -9 118 -7 17 -11 13 -30 -29z"/>
<path d="M1445 1805 c-5 -26 -4 -53 4 -80 7 -22 15 -57 18 -78 3 -21 11 -41
19 -44 8 -3 14 -16 14 -28 0 -13 5 -27 11 -30 19 -12 21 3 6 37 -8 18 -18 53
-22 78 -3 24 -11 51 -18 59 -7 8 -14 39 -18 70 l-5 56 -9 -40z"/>
<path d="M2731 1368 c-1 -107 3 -138 20 -138 12 0 10 57 -6 160 l-13 85 -1
-107z"/>
<path d="M1843 3506 c-23 -24 -31 -56 -13 -56 5 0 15 10 21 23 7 12 17 25 23
29 7 5 7 11 1 17 -7 7 -18 2 -32 -13z"/>
<path d="M1755 3425 c-15 -14 -23 -30 -20 -35 8 -14 65 17 65 35 0 26 -20 26
-45 0z"/>
<path d="M1824 2656 c-8 -33 -1 -91 11 -89 14 3 27 62 21 90 -8 30 -24 30 -32
-1z"/>
<path d="M2966 2228 c-38 -180 -49 -576 -21 -736 25 -141 47 -236 60 -257 7
-11 15 -37 19 -57 4 -21 11 -38 16 -38 6 0 10 -9 10 -19 0 -11 5 -23 10 -26 6
-3 10 3 10 14 0 11 -4 23 -10 26 -5 3 -10 15 -10 27 0 11 -7 41 -15 67 -24 79
-71 416 -74 541 -1 30 5 127 14 214 17 184 19 266 5 266 -5 0 -12 -10 -14 -22z"/>
<path d="M7574 1993 c29 -29 44 -26 26 6 -6 12 -20 21 -32 21 -20 0 -19 -1 6
-27z"/>
<path d="M4775 1840 c-3 -5 3 -10 14 -10 12 0 21 5 21 10 0 6 -6 10 -14 10 -8
0 -18 -4 -21 -10z"/>
<path d="M4713 1398 c-42 -20 -24 -28 63 -28 86 0 106 12 37 24 -21 3 -47 8
-58 11 -11 2 -30 -1 -42 -7z"/>
<path d="M5021 1031 c-12 -12 -20 -28 -18 -34 5 -16 47 -21 60 -8 7 7 56 11
123 11 111 0 140 8 116 32 -6 6 -67 13 -135 16 -118 4 -126 3 -146 -17z"/>
<path d="M4350 1170 c0 -17 33 -29 52 -19 29 16 21 29 -17 29 -19 0 -35 -4
-35 -10z"/>
<path d="M4478 1112 c-46 -48 -83 -114 -107 -188 -23 -73 -35 -154 -23 -154 5
0 12 19 15 43 3 23 15 61 27 85 11 23 24 52 29 65 5 12 29 52 53 87 59 87 60
88 50 94 -5 3 -25 -12 -44 -32z"/>
<path d="M4239 1054 c-23 -28 -54 -125 -66 -205 -5 -34 -3 -36 27 -43 18 -3
36 -3 41 0 5 3 9 29 9 58 0 55 16 98 58 153 13 18 21 37 17 43 -10 16 -71 12
-86 -6z"/>
<path d="M4592 515 c-34 -36 -38 -45 -22 -45 13 0 70 57 70 70 0 19 -16 10
-48 -25z"/>
<path d="M8592 5427 c-6 -7 -15 -31 -21 -52 -8 -36 -26 -86 -59 -165 -5 -14
-18 -34 -29 -45 -10 -11 -31 -39 -47 -62 -16 -24 -37 -43 -46 -43 -10 0 -23
-7 -30 -15 -7 -8 -20 -15 -29 -15 -9 0 -25 -7 -35 -15 -14 -11 -46 -15 -107
-15 -53 0 -91 -4 -95 -11 -11 -19 30 -63 86 -91 29 -15 62 -35 72 -45 36 -32
108 -131 108 -148 0 -9 8 -30 17 -48 14 -26 17 -59 18 -172 0 -77 4 -146 8
-152 5 -7 17 -13 27 -13 14 0 21 10 26 35 3 19 10 38 15 41 5 3 9 15 9 27 0
12 7 31 15 41 8 11 15 27 15 37 0 42 120 199 153 199 6 0 18 6 26 13 30 25
113 39 162 28 24 -6 59 -11 77 -11 31 0 32 1 32 45 0 32 -4 45 -14 45 -8 0
-27 6 -43 14 -15 8 -46 23 -68 33 -43 19 -59 33 -117 100 -71 82 -107 264 -78
391 15 63 -16 108 -48 69z m-2 -313 c0 -133 43 -210 141 -253 44 -20 91 -60
73 -62 -5 -1 -43 -2 -84 -3 -59 -2 -82 -7 -110 -25 -36 -24 -100 -100 -100
-118 0 -18 -41 -103 -49 -103 -14 0 -22 47 -15 90 8 49 -24 140 -67 194 -17
20 -55 48 -85 62 -39 18 -54 31 -52 42 3 14 16 17 68 18 79 1 107 12 154 59
34 33 76 109 76 136 0 15 29 49 42 49 4 0 8 -39 8 -86z"/>
</g>
</svg>
