<svg version="1.0" xmlns="http://www.w3.org/2000/svg" width="300" height="300" viewBox="0 0 300 223" preserveAspectRatio="xMidYMid meet">
    <g fill="#e4b124" transform="translate(0,223) scale(0.1,-0.1)" stroke="none">
        <path id="upper-right" d="M2474 1887 l-329 -263 -85 86 c-192 195 -402 283 -675 283 -107 0 -147 -5 -227 -26 -159 -42 -345 -152 -452 -266 l-30 -31 172 0 173 0 60 31 c91 45 196 69 309 69 194 0 358 -68 495 -205 l80 -80 -300 -5 -299 -5 -219 -280 c-120 -154 -220 -285 -223 -292 -5 -10 440 -593 451 -593 2 0 113 141 247 312 133 172 455 586 715 921 260 334 471 607 469 607 -2 0 -152 -118 -332 -263z"/>
        <path id="mid-trapezoid" d="M570 1430 c-22 -35 -29 -54 -22 -63 5 -6 59 -76 119 -153 l110 -142 144 185 c79 102 150 194 157 204 13 18 5 19 -231 19 l-245 0 -32 -50z"/>
        <path id="short-arc" d="M430 877 c0 -36 38 -163 70 -233 60 -133 188 -290 297 -365 l42 -30 61 76 c33 42 60 80 60 85 0 5 -15 18 -34 29 -54 34 -171 163 -209 232 -20 35 -48 101 -63 147 l-27 82 -99 0 c-95 0 -98 -1 -98 -23z"/>
        <path id="long-arc" d="M239 1433 c-47 -122 -73 -304 -66 -457 17 -342 176 -653 446 -869 l64 -51 39 44 c21 25 38 50 38 55 0 6 -16 21 -36 34 -58 40 -176 160 -227 232 -95 134 -164 305 -188 469 -15 104 -6 287 19 385 l17 70 -44 58 c-24 31 -46 57 -48 57 -2 0 -8 -12 -14 -27z"/>
    </g>
</svg>