<?xml version="1.0" standalone="no"?>
<!DOCTYPE svg PUBLIC "-//W3C//DTD SVG 20010904//EN"
 "http://www.w3.org/TR/2001/REC-SVG-20010904/DTD/svg10.dtd">
<svg version="1.0" xmlns="http://www.w3.org/2000/svg"
 width="300" height="300" viewBox="0 0 300.000000 300.000000"
 preserveAspectRatio="xMidYMid meet">
<metadata>
Created by potrace 1.10, written by Peter Selinger 2001-2011
</metadata>
<g transform="translate(0.000000,300.000000) scale(0.050000,-0.050000)"
fill="currentColor" stroke="none">
<path d="M2860 5721 c-49 -8 -99 -18 -110 -21 -11 -4 -64 0 -119 9 -507 84
-1261 -466 -1557 -1136 -38 -86 -89 -169 -116 -188 -244 -165 -271 -220 -196
-400 l42 -101 -43 -97 c-126 -286 -250 -405 -351 -339 -59 39 -74 172 -20 172
30 0 39 23 30 80 -5 39 -4 38 -76 59 -143 41 -320 -132 -328 -321 -18 -403
344 -511 699 -208 118 101 116 112 52 -249 -38 -215 -37 -214 -113 -127 -179
204 -510 183 -432 -28 8 -22 73 -82 145 -133 147 -105 169 -145 124 -232 -34
-65 -26 -139 22 -216 27 -43 19 -62 -123 -295 -451 -738 -504 -1292 -144
-1484 192 -102 624 28 439 132 -33 18 -33 20 0 33 22 8 35 35 35 72 0 79 28
129 126 232 104 107 98 109 164 -47 59 -140 121 -188 239 -188 46 0 51 -8 51
-83 0 -86 35 -234 63 -266 9 -10 161 -20 338 -23 177 -2 327 -9 333 -15 6 -6
28 -3 49 9 25 13 62 13 112 -2 315 -91 720 -58 945 78 45 27 158 75 263 111
50 18 108 50 128 72 53 59 66 49 81 -59 18 -136 130 -161 360 -81 65 23 138
47 163 53 77 18 12 210 -94 275 -39 25 -21 62 41 85 102 39 73 101 -93 195
-268 154 -384 342 -268 436 54 44 79 44 79 2 0 -52 280 -28 422 37 l111 50 33
-95 34 -95 165 68 c212 87 267 150 216 247 -127 237 -181 666 -182 1441 0 402
-8 663 -20 670 -41 26 -20 -1768 23 -1987 12 -58 17 -111 11 -116 -32 -33
-146 312 -175 530 -31 237 -46 234 -32 -7 16 -262 46 -394 105 -463 70 -81 70
-120 4 -210 -143 -193 -215 357 -124 953 15 99 28 234 30 300 2 66 15 237 30
380 14 143 23 328 19 410 -24 527 -36 696 -59 782 -28 107 -8 130 36 43 37
-72 113 -352 113 -415 0 -28 8 -50 17 -50 30 0 48 347 24 437 -26 96 -71 139
-54 51 6 -32 17 -103 23 -158 l11 -100 -50 140 c-72 201 -224 295 -169 104 10
-35 17 -77 17 -94 -1 -16 -15 15 -31 70 -16 55 -42 132 -57 170 -16 39 -34
104 -40 145 -9 53 -32 89 -82 127 -137 105 -53 115 151 18 61 -28 94 -47 75
-41 -48 14 -44 -3 7 -30 30 -16 39 -16 29 -1 -7 12 0 22 17 22 28 0 92 -94 92
-135 0 -9 -31 -28 -68 -42 -70 -25 -114 -83 -63 -83 16 0 34 9 41 20 17 27
142 25 196 -2 250 -128 391 -467 734 -1758 90 -340 209 -656 372 -982 268
-539 192 -923 -240 -1202 -156 -100 -190 -69 -75 69 58 69 8 54 -72 -23 -126
-119 -317 -150 -477 -78 -61 29 -60 37 16 86 120 76 146 135 146 321 0 155 3
169 40 171 71 4 79 7 138 48 106 73 184 156 156 165 -36 12 -298 -74 -346
-113 -60 -50 -130 -324 -88 -347 71 -40 -31 -183 -154 -216 -89 -24 -97 -60
-26 -131 97 -97 343 -145 449 -88 28 14 40 12 48 -10 36 -92 331 62 496 257
285 338 301 598 68 1093 -225 478 -296 666 -394 1040 -33 127 -114 417 -179
646 l-119 417 101 112 c112 127 127 194 55 259 -49 45 -455 276 -585 333 -69
31 -90 56 -153 190 -261 547 -1089 979 -1697 884z m550 -111 c324 -73 759
-359 969 -637 100 -132 101 -146 6 -87 -90 57 -193 94 -260 94 -46 0 -345 281
-345 324 0 15 -48 42 -330 184 -200 101 -463 139 -633 91 -59 -16 -101 -12
-210 21 l-137 40 110 -12 c160 -17 218 -16 330 8 115 24 326 13 500 -26z
m-726 -72 c108 -55 112 -78 11 -78 -115 0 -357 -118 -555 -270 -121 -93 -137
-101 -80 -41 60 64 291 247 412 326 22 15 6 13 -39 -5 -113 -44 -312 -212
-467 -397 -239 -283 -241 -301 -11 -91 156 143 318 263 442 327 116 59 90 19
-31 -49 -247 -139 -437 -315 -576 -531 -319 -496 -500 -971 -524 -1372 -14
-235 -5 -276 88 -379 l73 -80 -49 -47 c-62 -60 -138 -85 -138 -45 0 16 -12 39
-26 51 -20 16 -23 56 -13 157 8 75 20 213 27 306 11 147 53 423 84 550 22 90
-37 -35 -65 -138 -31 -114 -94 -764 -78 -806 6 -16 -5 -26 -27 -26 -57 0 -138
-74 -152 -139 -12 -55 -16 -57 -63 -36 l-51 23 7 341 c6 254 15 354 37 392 46
79 205 326 467 723 130 197 231 364 225 371 -7 6 -15 8 -19 3 -68 -84 -332
-472 -413 -608 -125 -208 -299 -442 -323 -435 -10 3 -68 -23 -129 -58 l-112
-63 89 129 c92 135 174 315 290 637 234 653 506 1002 1010 1295 205 120 509
148 679 63z m597 -34 c140 -49 272 -116 291 -148 12 -19 13 -217 1 -229 -2 -2
-78 18 -170 45 -92 26 -199 48 -236 48 l-69 0 6 -95 6 -95 217 -79 218 -79
-14 -179 c-20 -245 -26 -255 -93 -140 -31 53 -101 150 -156 215 -55 65 -97
125 -92 132 5 8 -15 36 -45 62 -30 26 -42 32 -27 13 18 -23 19 -35 4 -35 -12
0 -22 9 -22 20 0 43 -4 52 -45 95 -24 25 -45 61 -48 79 -7 51 -128 161 -217
197 l-80 32 70 -61 70 -61 -100 49 c-55 26 -131 56 -170 66 l-70 17 80 24 c89
25 236 31 257 9 8 -7 34 -17 59 -20 24 -4 79 -17 121 -28 42 -11 82 -16 87
-11 14 15 -150 95 -206 101 -74 8 -142 76 -94 95 65 25 353 1 467 -39z m427
-207 c46 -21 51 -35 56 -164 7 -160 -20 -134 271 -265 140 -63 165 -81 165
-123 l0 -48 -55 39 c-125 88 -383 184 -387 144 -2 -11 -5 -27 -7 -35 -14 -52
-49 -367 -51 -448 0 -31 -6 -31 -78 -3 l-78 31 30 71 c16 39 35 154 41 255 13
219 16 214 -264 310 -203 69 -199 68 -183 28 6 -18 3 -26 -8 -19 -11 7 -20 30
-20 51 0 56 94 50 294 -17 l164 -56 34 62 c20 39 30 91 25 136 -5 41 -7 74 -4
74 3 0 28 -10 55 -23z m-1002 -30 c110 -56 334 -235 316 -253 -10 -10 -4 -59
12 -111 42 -137 57 -510 26 -675 -43 -235 -200 -478 -200 -310 0 70 -72 314
-112 377 -15 25 -43 68 -60 95 -18 28 -27 50 -20 50 7 0 30 -29 52 -65 60 -98
49 -41 -41 209 -110 303 -118 340 -119 528 0 205 15 222 146 155z m-178 -32
c-33 -102 16 -596 72 -725 10 -22 24 -116 31 -210 7 -93 17 -188 21 -210 4
-22 14 -108 21 -192 l12 -152 -137 36 c-76 20 -165 36 -198 37 -120 3 -150 23
-208 139 -125 249 -147 626 -53 903 l31 89 -40 -47 c-135 -160 -121 -707 29
-1084 24 -60 -258 -4 -295 59 -134 228 -113 649 44 878 186 271 728 659 670
479z m1549 -325 c-4 -4 -68 22 -142 56 l-135 64 1 90 0 90 141 -147 c78 -80
138 -149 135 -153z m-710 -340 c174 -263 340 -623 403 -872 18 -70 37 -146 43
-168 10 -33 1 -30 -50 18 l-61 58 -87 -33 c-100 -38 -284 -42 -506 -12 l-154
22 -55 -66 -55 -66 243 -70 c276 -80 396 -85 539 -23 137 60 177 56 162 -13
-24 -108 -129 -299 -201 -364 l-74 -67 48 -24 c27 -14 81 -31 121 -38 l73 -13
-88 -231 c-170 -449 -393 -809 -542 -875 -186 -82 -838 -43 -1123 67 -465 180
-618 353 -667 753 l-23 184 64 54 c115 96 117 121 19 208 l-86 77 1 217 c1
298 114 685 301 1033 l67 124 1 -140 c0 -77 8 -169 19 -205 18 -64 17 -65 -49
-65 -89 0 -170 -32 -170 -67 0 -28 95 -52 210 -53 49 0 67 -14 100 -75 l40
-75 167 -6 c131 -4 166 0 158 20 -39 104 -37 125 6 61 33 -50 57 -65 106 -65
35 0 149 -18 253 -40 105 -22 194 -40 198 -40 4 0 3 77 -3 170 -10 167 -10
170 36 170 44 0 89 -117 89 -231 0 -67 76 -2 157 134 38 64 57 75 141 87 155
21 369 80 377 104 9 29 -107 44 -194 24 -39 -10 -109 -17 -155 -18 l-83 0 17
61 c46 161 41 531 -10 689 -21 65 163 -148 277 -320z m778 55 c103 -56 147
-141 205 -394 213 -941 -161 -2013 -850 -2442 -138 -85 -132 -105 10 -34 373
188 584 472 778 1045 101 299 118 300 42 2 -180 -713 -588 -1141 -1134 -1191
-134 -12 -202 13 -102 38 29 7 107 69 173 137 67 68 103 97 80 64 -67 -100
-73 -124 -13 -56 31 35 75 102 99 150 130 260 229 490 295 686 l74 220 101 47
c186 88 359 399 356 640 -2 112 -23 72 -56 -105 -60 -323 -318 -571 -542 -522
l-62 13 63 73 c73 83 149 240 169 349 8 44 25 75 41 75 34 0 37 34 5 44 -15 5
-21 67 -19 182 5 223 -32 500 -80 611 -35 81 -28 348 13 497 8 27 187 -39 354
-129z m930 -266 c102 -59 185 -118 185 -131 0 -29 -135 -195 -167 -206 -13 -4
6 24 42 61 87 92 83 123 -5 37 -46 -45 -70 -58 -70 -37 0 16 -22 74 -50 129
-27 54 -50 100 -50 103 0 2 45 -23 101 -58 56 -34 106 -57 112 -50 12 11 -198
153 -227 153 -9 1 -47 39 -86 85 -59 72 -62 80 -20 53 28 -17 133 -80 235
-139z m-2355 -113 c23 -52 37 -105 32 -119 -5 -13 1 -29 14 -34 18 -7 18 -10
0 -11 -43 -3 -86 60 -86 128 0 37 -5 81 -12 98 -29 75 14 24 52 -62z m-1760
-21 c-20 -41 -47 -113 -61 -160 -31 -102 -44 -106 -75 -19 -36 100 -30 118 62
189 108 83 118 81 74 -10z m2789 15 c21 -74 49 -262 58 -390 l11 -140 -50 160
c-58 187 -68 212 -137 323 l-51 83 80 -3 c52 -2 83 -13 89 -33z m-3444 -668
c-20 -246 199 -309 441 -127 151 113 156 83 10 -65 -349 -355 -698 -317 -678
75 2 51 130 201 191 226 23 9 42 17 44 18 1 0 -2 -57 -8 -127z m2930 -145 c58
-18 102 -36 98 -41 -4 -4 -83 16 -175 44 -93 28 -136 47 -98 41 39 -6 117 -26
175 -44z m-2720 -555 c41 -26 101 -75 132 -108 l57 -61 -57 -72 -57 -72 -29
45 c-28 43 -88 101 -231 224 -109 93 50 131 185 44z m344 -77 c0 -19 -13 -35
-31 -35 -24 0 -29 12 -21 45 7 25 13 59 14 75 2 39 36 -36 38 -85z m301 16
c16 -20 20 -62 11 -127 -10 -71 -4 -127 24 -210 l38 -113 -56 -54 c-53 -51
-58 -52 -93 -20 -21 18 -49 33 -63 33 -18 0 -22 18 -11 65 8 36 16 119 18 185
7 187 10 205 43 239 39 39 57 39 89 2z m3189 -254 c-36 -242 -49 -672 -24
-812 18 -100 -40 -141 -277 -196 -186 -43 -207 21 -22 68 90 24 225 98 208
116 -6 5 -36 -3 -68 -20 -31 -16 -137 -48 -235 -72 -98 -23 -190 -52 -205 -64
-114 -95 -7 124 131 269 252 264 423 560 484 839 41 185 45 118 8 -128z
m-3411 72 c93 -106 80 -150 -18 -61 -52 46 -100 72 -135 72 -51 -1 -49 -3 25
-38 81 -38 170 -111 170 -139 0 -41 -30 -38 -84 8 -33 27 -70 49 -84 49 -36 0
-212 -116 -212 -140 0 -32 19 -24 102 41 87 69 122 67 218 -14 89 -75 42 -141
-61 -86 -38 20 -52 14 -112 -44 -71 -69 -56 -110 16 -44 58 52 235 53 221 2
-7 -30 -232 -175 -270 -175 -26 0 -174 275 -174 322 0 32 31 80 89 137 49 48
85 94 80 102 -9 15 105 78 144 79 13 0 51 -32 85 -71z m400 -381 c24 -56 84
-141 133 -189 78 -76 89 -98 89 -172 0 -174 71 -412 164 -549 53 -80 -43 -118
-108 -43 -49 57 -239 489 -246 561 -3 36 -19 85 -35 110 -16 24 -35 123 -43
220 -8 96 -28 213 -44 260 -19 52 -25 111 -17 154 24 131 39 110 51 -70 8
-120 26 -214 56 -282z m-95 17 c-11 -20 -38 -52 -61 -73 -58 -52 -56 0 1 62
52 54 86 61 60 11z m17 -175 c0 -61 -10 -126 -22 -146 -28 -45 26 -189 66
-174 31 12 249 -442 275 -574 9 -47 18 -70 19 -50 4 63 38 17 71 -94 40 -140
39 -191 -4 -204 -19 -6 -66 -24 -103 -40 -160 -70 -394 -49 -453 40 -50 77
-110 268 -161 512 -60 288 -61 273 19 264 68 -8 167 30 209 81 19 23 0 176
-22 175 -2 0 -40 -14 -84 -29 -130 -47 -174 -39 -228 40 -26 38 -44 73 -40 76
120 91 204 116 278 83 92 -41 128 -25 113 50 -10 51 15 100 51 100 9 0 16 -50
16 -110z m-100 -3 c0 -17 -22 -15 -77 6 -75 30 -80 29 -219 -41 -78 -39 -147
-63 -153 -53 -6 10 18 28 54 40 36 13 100 48 143 78 81 58 252 38 252 -30z
m-490 -93 c40 -86 3 -215 -75 -257 -36 -19 -37 -22 -4 -59 41 -45 123 -49 177
-8 59 45 89 -16 96 -195 3 -83 11 -148 17 -144 6 4 22 -44 35 -106 13 -62 21
-113 19 -115 -125 -66 -295 -277 -295 -364 0 -94 -116 -31 -183 100 -36 71
-41 106 -32 248 11 179 -10 204 -42 51 -37 -179 64 -449 210 -564 l51 -40 -49
-19 c-132 -50 -336 9 -422 123 -197 259 -123 602 273 1260 154 256 147 254
224 89z m150 -199 c0 -38 -18 -57 -78 -84 -105 -47 -137 -25 -74 50 27 32 55
85 62 119 l13 61 39 -49 c21 -26 38 -70 38 -97z m503 77 c10 -54 -36 -63 -49
-9 -14 50 3 89 27 64 8 -9 19 -34 22 -55z m532 -73 c177 -82 273 -111 451
-140 188 -30 195 -67 13 -74 -89 -3 -132 -14 -144 -35 -57 -101 -375 38 -375
164 0 67 -32 57 -97 -33 l-57 -79 -23 138 c-35 210 -35 212 42 161 36 -24 121
-70 190 -102z m-715 13 c0 -5 5 -22 12 -39 21 -55 -186 -129 -256 -91 -60 32
-44 78 29 79 36 0 88 13 115 29 48 28 100 39 100 22z m2533 -154 c-31 -83
-113 -126 -182 -95 -49 23 -48 24 74 88 69 36 126 66 128 67 2 1 -7 -26 -20
-60z m-713 -23 c0 -18 -50 -26 -175 -28 -96 -2 -201 -14 -233 -26 -64 -25 -92
-13 -55 24 47 47 463 74 463 30z m-1166 -58 c61 -58 58 -71 -15 -81 -71 -11
-88 7 -71 75 16 60 27 61 86 6z m1066 -6 c0 -13 -225 -112 -235 -103 -8 8 11
20 135 85 49 26 100 35 100 18z m480 -11 c0 -10 -21 -33 -47 -50 -101 -66 -98
-228 13 -646 16 -58 23 -102 16 -99 -121 68 -434 135 -484 104 -83 -51 12 187
112 281 92 87 208 279 183 304 -30 30 -483 -420 -549 -545 -20 -39 -41 -49
-105 -49 -72 0 -77 3 -56 37 44 71 4 117 -53 63 -38 -36 -44 -53 -27 -73 17
-21 13 -27 -18 -27 -22 0 -68 -6 -102 -12 -50 -10 -63 -6 -63 20 0 17 10 32
21 32 29 0 15 105 -15 115 -40 13 -73 -72 -43 -109 23 -28 18 -30 -43 -16 -83
18 -104 28 -92 47 5 7 -3 35 -17 62 l-26 48 -23 -44 c-13 -24 -18 -53 -11 -65
9 -13 -4 -19 -34 -15 -107 15 -35 201 144 371 65 62 119 121 119 130 0 35 -45
12 -128 -64 -61 -57 -98 -77 -125 -68 -28 9 -30 7 -9 -8 23 -17 20 -30 -15
-80 -24 -33 -43 -72 -44 -87 0 -15 -14 4 -30 41 -27 61 -26 72 3 105 31 34 30
39 -14 76 -62 52 -38 69 155 112 109 24 154 27 185 10 31 -16 51 -16 81 3 60
37 68 9 20 -75 -134 -239 170 -285 512 -78 200 122 412 226 502 247 105 25
107 25 107 2z m-960 -20 c9 0 23 -27 30 -60 7 -33 19 -61 27 -61 7 -1 33 -6
57 -10 24 -5 49 0 56 11 15 25 50 26 50 2 0 -9 -19 -22 -43 -28 -28 -8 -38
-22 -30 -42 17 -46 -29 -63 -60 -22 -22 31 -34 33 -78 13 -62 -28 -69 -28 -69
-4 0 10 17 24 38 30 23 8 37 31 37 61 l0 49 -57 -62 c-32 -34 -58 -74 -58 -89
0 -15 -13 -28 -30 -28 -16 0 -30 5 -30 11 0 31 70 143 107 174 43 34 42 34
-37 37 -70 2 -74 4 -30 18 28 9 62 12 77 8 14 -4 34 -8 43 -8z m240 -9 c-49
-15 -108 -34 -130 -42 -35 -15 -37 -12 -14 16 29 35 77 49 174 50 50 1 45 -3
-30 -24z m882 -22 c81 -42 138 -141 138 -242 0 -142 -12 -148 -111 -53 -58 55
-123 95 -180 110 -108 29 -116 72 -31 158 67 66 99 71 184 27z m-582 -46 c-60
-30 -156 -84 -212 -119 -119 -74 -148 -79 -148 -24 0 22 8 40 19 40 10 0 30
12 45 27 55 55 247 133 326 132 l80 -1 -110 -55z m92 -192 c-31 -41 -72 -71
-96 -71 -34 0 -26 14 46 78 105 93 124 90 50 -7z m-565 21 c6 -16 31 -32 57
-36 32 -6 16 -15 -56 -31 -170 -39 -254 12 -107 65 93 34 93 34 106 2z m921
-20 c98 -41 232 -168 232 -221 0 -77 -24 -73 -105 20 -44 50 -108 105 -142
122 -138 71 -125 138 15 79z m-1615 -147 c41 -97 46 -181 13 -208 -20 -17 -26
-11 -27 26 0 26 -17 94 -37 152 -44 128 0 154 51 30z m1135 38 c6 -9 -16 -42
-49 -74 -47 -45 -59 -73 -59 -140 0 -89 -24 -108 -135 -109 -61 0 -57 18 28
132 136 183 191 231 215 191z m539 -85 c111 -97 113 -123 22 -226 -83 -94 -75
-100 -119 98 -19 87 -39 171 -45 185 -19 51 52 23 142 -57z m516 -126 c50 -42
51 -46 16 -68 -35 -22 -259 182 -259 237 0 18 129 -72 243 -169z m92 -321 c0
-66 1 -67 -71 49 -65 104 -118 135 -93 55 8 -25 22 -55 32 -68 12 -14 8 -34
-11 -53 -17 -16 -24 -36 -16 -45 8 -8 1 -7 -16 2 -16 10 -43 20 -60 22 -16 3
-32 14 -36 26 -4 12 -16 16 -26 10 -10 -6 -18 -2 -18 9 0 11 -13 16 -28 10
-17 -6 -38 6 -50 29 -18 33 -15 43 18 53 22 7 36 21 30 31 -6 9 -15 83 -20
163 l-9 146 187 -194 c136 -141 187 -208 187 -245z m-468 234 c-49 -202 -56
-214 -147 -260 -48 -25 -104 -45 -123 -45 -60 0 23 157 103 196 35 17 84 61
107 97 52 81 78 86 60 12z m-1808 -70 l-63 -90 32 -142 c38 -169 38 -163 7
-163 -16 0 -39 65 -62 175 l-36 174 83 78 c104 97 121 84 39 -32z m112 20
c-18 -62 -37 -87 -68 -91 -55 -9 -54 0 10 96 68 103 89 101 58 -5z m238 26 c6
-10 -13 -21 -44 -25 -59 -6 -80 -60 -113 -280 -14 -93 -13 -96 52 -125 l66
-30 -80 14 c-44 8 -109 14 -145 13 -59 -1 -65 4 -65 60 -1 34 -9 96 -18 137
-16 68 -14 75 23 75 37 0 40 -9 30 -120 -14 -154 12 -139 44 25 53 276 52 275
151 275 48 0 93 -8 99 -19z m771 -63 c119 -72 240 -217 240 -288 0 -59 -281
-140 -480 -138 -304 2 -678 92 -653 158 6 15 16 62 23 104 30 185 -13 166 379
166 211 0 354 8 361 20 19 30 53 24 130 -22z m218 -51 c45 -51 82 -100 82
-110 0 -9 9 -17 21 -17 22 0 -28 110 -76 164 -28 32 -26 33 28 17 151 -45 147
-36 81 -181 l-60 -130 -28 83 c-17 51 -66 119 -126 175 -88 83 -93 92 -51 92
32 0 75 -31 129 -93z m-1484 26 c-6 -15 2 -84 17 -155 35 -164 35 -178 0 -178
-18 0 -25 12 -19 29 14 35 -80 100 -122 84 -52 -20 -33 -53 31 -53 87 0 74
-67 -14 -76 -99 -10 -198 173 -130 241 72 72 255 155 237 108z"/>
<path d="M1467 4731 c-96 -42 -101 -74 -5 -40 46 16 100 29 122 29 21 0 33 9
26 20 -17 27 -67 24 -143 -9z"/>
<path d="M2766 4982 c-20 -31 -14 -46 35 -93 l59 -57 -32 94 c-37 109 -32 104
-62 56z"/>
<path d="M2780 4670 c-22 -26 15 -43 65 -29 3 1 31 -8 63 -20 54 -21 56 -20
30 13 -58 74 -116 87 -158 36z"/>
<path d="M2314 4944 c19 -53 48 -84 79 -84 23 0 21 10 -7 49 -45 61 -89 83
-72 35z"/>
<path d="M2164 4616 c-35 -35 -29 -54 13 -43 20 6 53 -6 74 -26 20 -21 41 -37
48 -37 6 0 41 -21 77 -47 94 -67 101 -40 15 64 -94 115 -171 145 -227 89z"/>
<path d="M2890 3725 c-97 -63 -59 -86 42 -24 67 41 83 43 250 26 187 -19 249
10 76 37 -181 27 -283 17 -368 -39z"/>
<path d="M1802 3619 c-117 -41 -135 -52 -116 -72 7 -6 49 3 94 20 105 43 132
42 203 -9 73 -52 106 -30 37 24 -94 74 -107 76 -218 37z"/>
<path d="M1770 3385 c-153 -59 -189 -66 -238 -48 -83 31 -232 -75 -205 -146
22 -57 138 -114 210 -103 64 10 523 282 523 310 0 76 -69 73 -290 -13z m-115
-111 c-59 -23 -64 -68 -8 -58 51 9 39 -12 -26 -45 -76 -40 -107 -39 -41 1 l50
30 -50 -15 c-27 -7 -66 -13 -87 -12 -31 2 -32 -2 -10 -29 25 -29 21 -29 -36 0
-69 36 -98 85 -61 107 13 7 17 6 9 -3 -8 -9 -5 -28 8 -43 24 -29 66 -38 49
-10 -6 9 1 17 14 18 84 8 114 15 114 29 0 9 -16 17 -35 19 -19 1 1 9 45 17
113 20 128 19 65 -6z"/>
<path d="M3190 3160 c-53 -59 -29 -64 40 -8 40 32 50 48 28 48 -17 0 -48 -18
-68 -40z"/>
<path d="M3301 3137 c-44 -73 -53 -106 -21 -87 28 17 85 131 73 144 -6 6 -29
-20 -52 -57z"/>
<path d="M2612 2953 c-48 -24 -136 -43 -225 -49 -81 -5 -147 -17 -147 -25 0
-95 206 -610 254 -635 179 -93 370 397 258 664 -37 88 -48 91 -140 45z m109
-126 c25 -120 0 -378 -43 -444 -19 -30 -20 -30 -11 0 10 31 5 32 -61 4 -39
-16 -83 -25 -98 -19 -16 6 -28 0 -29 -14 0 -14 -8 -11 -19 8 -21 36 -162 463
-155 469 3 2 61 14 130 25 69 12 150 35 180 51 81 42 80 43 106 -80z"/>
<path d="M1639 2927 c-23 -59 -7 -92 22 -46 20 31 26 99 9 99 -6 0 -20 -24
-31 -53z"/>
<path d="M3340 2068 c-197 -140 -523 -246 -870 -285 l-160 -17 124 -3 c369 -9
698 89 896 266 112 100 115 114 10 39z"/>
<path d="M1400 1933 c0 -30 116 -268 138 -281 34 -22 28 -4 -51 142 -77 144
-87 161 -87 139z"/>
<path d="M1583 1028 c-2 -23 -26 -76 -54 -117 -28 -41 -39 -71 -25 -66 41 13
100 130 90 179 -8 43 -9 43 -11 4z"/>
<path d="M505 1800 c-131 -153 -308 -422 -336 -510 -7 -22 4 -13 26 21 22 33
65 77 95 97 92 60 204 190 216 248 6 30 30 74 54 99 45 49 108 183 93 199 -5
5 -72 -64 -148 -154z"/>
<path d="M2703 1190 c-45 -75 -31 -91 31 -35 21 19 26 27 12 18 -31 -21 -33
-4 -5 48 36 68 5 42 -38 -31z"/>
<path d="M2991 1136 c-88 -126 63 -254 207 -177 61 32 54 64 -9 41 -105 -40
-120 -29 -112 80 8 113 -29 137 -86 56z m49 -66 c0 -68 -24 -92 -51 -49 -17
28 7 119 31 119 11 0 20 -31 20 -70z"/>
<path d="M999 5686 c-22 -5 -40 -51 -58 -142 -49 -250 -56 -258 -346 -372 -74
-30 -109 -108 -50 -115 14 -1 83 -5 154 -8 157 -8 181 -32 181 -184 l0 -107
-85 6 -84 6 -17 100 c-27 163 -101 162 -125 -3 -15 -96 -43 -123 -174 -169
-123 -43 -108 -118 24 -118 117 0 120 -4 124 -148 3 -144 82 -171 106 -37 29
163 49 200 132 233 101 40 114 40 126 -3 6 -19 9 66 7 189 -5 265 -3 261 -194
279 -125 11 -141 17 -99 33 311 124 319 133 372 424 18 100 42 39 45 -115 3
-135 48 -175 197 -174 186 3 215 31 46 45 -181 15 -180 14 -204 207 -20 167
-29 184 -78 173z m-339 -853 c0 -87 31 -113 139 -114 82 -2 86 -4 41 -22 -198
-82 -183 -69 -211 -187 l-14 -60 -29 85 c-29 83 -31 85 -123 87 l-93 1 104 48
c102 46 145 114 146 225 0 15 9 21 20 14 11 -7 20 -42 20 -77z"/>
<path d="M1224 5171 c-168 -53 -247 -178 -220 -351 5 -38 14 -23 34 60 36 149
67 192 171 240 68 31 144 87 107 79 -3 -1 -44 -14 -92 -28z"/>
<path d="M5109 3600 c12 -107 114 -649 123 -658 17 -18 6 84 -32 301 -41 233
-108 496 -91 357z"/>
<path d="M4980 2851 c0 -7 9 -51 19 -97 11 -46 38 -183 61 -304 23 -121 46
-236 52 -255 14 -47 48 -24 48 32 0 25 8 54 18 64 32 35 107 320 76 289 -6 -5
-38 -77 -71 -160 -34 -87 -64 -137 -70 -120 -25 71 -77 463 -67 502 6 23 6 37
-1 30 -6 -6 -23 -2 -38 11 -15 12 -27 16 -27 8z"/>
<path d="M4935 2669 l8 -133 -96 -88 c-82 -75 -90 -88 -52 -88 25 0 58 22 77
51 38 57 48 52 83 -37 20 -54 22 -28 12 166 -6 127 -18 237 -26 246 -8 9 -11
-44 -6 -117z"/>
<path d="M101 2692 c-43 -52 25 -229 109 -284 84 -55 97 -11 21 74 -52 57 -71
96 -71 147 0 78 -24 104 -59 63z"/>
<path d="M80 2414 c0 -38 146 -174 186 -174 54 0 40 48 -26 87 -33 19 -69 53
-81 74 -23 44 -79 53 -79 13z"/>
<path d="M5330 2285 c216 -546 141 -1162 -179 -1461 -125 -117 -129 -124 -77
-124 115 0 284 147 337 290 20 55 43 109 51 121 9 11 24 65 35 120 17 89 19
92 21 29 2 -63 -48 -273 -87 -365 -9 -20 -7 -35 5 -35 78 0 164 498 124 719
-12 69 -18 129 -13 134 4 5 19 -48 31 -117 12 -69 27 -148 34 -176 6 -27 15
-139 19 -248 11 -293 53 -312 90 -43 44 314 -52 658 -288 1036 -93 148 -133
195 -103 120z"/>
<path d="M4942 2205 c-67 -55 -88 -260 -23 -225 25 13 53 16 62 7 21 -22 28
-325 8 -373 -25 -64 22 -83 186 -77 217 8 238 15 192 67 -48 53 -130 93 -165
81 -15 -6 -22 -1 -15 10 7 11 -1 32 -17 45 -17 14 -30 38 -30 54 0 15 -9 23
-20 16 -11 -7 -21 8 -23 34 -2 25 -5 55 -8 66 -2 11 -5 31 -7 45 -1 14 -16 25
-34 25 -22 0 -28 11 -19 33 7 19 2 40 -11 48 -34 21 -4 86 32 72 46 -18 38 62
-9 86 -50 27 -49 27 -99 -14z"/>
<path d="M4808 1953 c7 -20 13 -74 14 -120 l1 -83 26 70 c14 39 19 75 11 80
-7 6 -25 28 -38 50 -21 34 -23 34 -14 3z"/>
<path d="M4482 1267 c58 -81 243 -227 287 -227 16 0 -11 166 -32 192 -10 13
-56 28 -102 35 -47 7 -107 19 -133 26 -45 13 -47 11 -20 -26z"/>
<path d="M4408 1056 c-27 -73 -58 -118 -106 -150 l-68 -46 54 0 c79 0 146 78
163 188 19 130 2 133 -43 8z"/>
<path d="M5784 1033 c-47 -72 -54 -90 -23 -62 42 38 108 148 95 158 -3 3 -36
-40 -72 -96z"/>
<path d="M4525 970 c5 -56 11 -60 95 -66 66 -4 82 0 60 15 -16 11 -51 21 -76
21 -28 0 -53 17 -64 45 -18 41 -19 40 -15 -15z"/>
<path d="M4569 810 c-62 -27 -80 -63 -126 -250 -17 -69 -18 -68 -32 50 -20
169 -20 170 -105 168 l-76 -1 63 -28 c62 -27 121 -222 80 -263 -19 -19 26 -86
57 -86 30 0 40 28 78 217 20 101 30 117 97 153 119 64 90 95 -36 40z"/>
</g>
</svg>
