<?xml version="1.0" standalone="no"?>
<!DOCTYPE svg PUBLIC "-//W3C//DTD SVG 20010904//EN"
 "http://www.w3.org/TR/2001/REC-SVG-20010904/DTD/svg10.dtd">
<svg version="1.0" xmlns="http://www.w3.org/2000/svg"
 width="300" height="300" viewBox="0 0 300.000000 300.000000"
 preserveAspectRatio="xMidYMid meet">
<metadata>
Created by potrace 1.10, written by Peter Selinger 2001-2011
</metadata>
<g transform="translate(0.000000,300.000000) scale(0.050000,-0.050000)"
fill="currentColor" stroke="none">
<path d="M2677 5960 c-80 -43 -177 -147 -177 -192 0 -15 -18 -28 -39 -28 -119
0 -172 -66 -201 -252 -30 -189 -58 -198 -184 -63 -62 67 -96 69 -169 8 -32
-26 -86 -54 -122 -62 -36 -8 -72 -26 -80 -40 -8 -14 -55 -46 -103 -70 -296
-150 -450 -420 -471 -828 -13 -259 -6 -276 107 -237 85 30 86 14 8 -102 -145
-215 -336 -654 -359 -825 -14 -100 91 -199 236 -222 206 -33 18 -573 -328
-944 -351 -377 -446 -665 -305 -920 133 -242 377 -313 645 -189 159 74 175
175 27 177 -300 5 -318 370 -39 803 l67 104 0 -204 c0 -324 138 -536 412 -636
128 -47 138 -64 80 -127 -34 -36 -36 -54 -19 -149 17 -92 15 -111 -11 -126
-56 -32 -90 -128 -92 -259 -1 -70 -4 -186 -5 -259 -5 -196 32 -243 182 -237
62 3 131 -3 153 -13 22 -10 183 -17 357 -15 l317 3 74 72 c91 89 150 92 314
14 241 -114 449 -155 572 -113 66 23 106 25 157 11 165 -48 294 -27 441 70
156 103 265 120 327 51 50 -55 133 -68 266 -39 63 13 145 22 182 20 41 -3 81
8 105 30 30 27 44 30 62 12 99 -99 423 61 337 165 -16 19 -16 31 -2 40 37 24
24 168 -19 211 -49 49 -72 50 -99 5 -20 -33 -22 -33 -42 0 -27 45 -111 45
-136 0 -18 -31 -25 -29 -70 20 -71 76 -172 81 -247 11 -39 -36 -48 -37 -84
-11 -41 28 -41 29 10 77 95 88 147 271 88 308 -43 26 -15 43 128 76 422 98
821 365 860 574 8 39 24 109 36 156 22 85 21 88 -57 170 -344 366 -331 326
-347 1094 -22 1043 -199 1565 -661 1951 -343 287 -1100 511 -1525 452 -90 -12
-242 -26 -338 -30 l-175 -8 28 53 c15 30 78 118 139 196 139 178 142 215 20
267 -112 48 -138 48 -231 -1z m203 -46 c0 -3 -43 -51 -95 -107 -82 -87 -245
-366 -245 -419 0 -10 45 57 100 150 118 199 232 342 271 342 44 0 36 -18 -53
-115 -45 -49 -111 -151 -146 -227 -64 -137 -65 -139 -223 -214 -128 -61 -229
-86 -229 -57 0 2 18 56 40 118 22 63 40 140 40 172 0 47 14 65 68 91 105 50
113 40 61 -74 -45 -99 -88 -256 -64 -234 6 6 44 100 85 210 88 239 113 280
196 331 52 31 194 56 194 33z m890 -540 c660 -181 983 -643 1180 -1691 172
-914 335 -1303 702 -1686 169 -177 133 -240 -53 -92 -328 263 -400 344 -564
644 -31 56 -64 104 -75 108 -11 3 -20 18 -20 33 0 36 -66 150 -86 150 -9 0
-11 8 -5 18 6 10 -3 23 -19 29 -39 15 -42 26 47 -193 110 -274 187 -393 418
-640 333 -357 387 -458 294 -555 -73 -76 -67 -78 -174 56 -51 63 -147 182
-214 265 -154 190 -261 396 -337 650 -110 370 -104 355 -93 212 6 -70 22 -182
35 -250 31 -150 23 -212 -25 -212 -59 0 -113 219 -191 770 -39 275 -75 513
-81 528 -51 142 -6 -431 63 -808 55 -296 56 -560 3 -593 -14 -9 -26 -25 -27
-36 -2 -12 -5 -28 -8 -36 -2 -8 -2 -44 -1 -79 4 -74 -114 -203 -263 -286 -78
-43 -86 -19 -14 40 25 20 151 231 176 294 50 124 22 453 -43 513 -63 58 -67
78 -24 113 27 23 27 29 -2 61 -34 38 -20 88 38 137 60 49 11 317 -68 382 -15
12 -52 253 -69 450 -41 462 -241 984 -466 1215 -150 153 -169 146 -44 -17 116
-151 187 -281 170 -309 -7 -10 -2 -19 10 -19 12 0 17 -9 10 -20 -7 -11 -4 -20
6 -20 23 0 123 -236 194 -460 79 -250 98 -760 28 -760 -11 0 -15 9 -8 20 7 11
-1 15 -16 9 -36 -14 -99 81 -108 161 -4 33 -20 114 -36 180 -16 66 -32 157
-35 203 -3 46 -11 80 -18 75 -20 -12 -52 37 -61 92 -4 28 -18 48 -31 45 -23
-5 -34 20 -27 60 1 8 -8 15 -20 15 -13 0 -17 -14 -8 -35 56 -143 218 -864 198
-884 -5 -5 -27 1 -49 15 -21 13 -70 24 -109 24 l-70 0 0 355 c0 372 -13 512
-43 493 -10 -6 -13 -30 -6 -52 7 -23 6 -36 -4 -30 -9 6 -14 -55 -10 -136 3
-80 -3 -178 -14 -218 -11 -40 -12 -72 -3 -72 10 0 10 -26 0 -58 -9 -33 -11
-64 -5 -70 6 -7 -3 -12 -22 -12 -18 0 -34 16 -35 35 -1 21 -5 25 -11 10 -12
-28 -59 -34 -75 -8 -6 9 -25 115 -42 235 -18 120 -59 335 -91 477 -66 290 -66
293 -37 251 16 -23 17 -19 7 19 -26 89 -62 162 -74 149 -7 -6 -8 9 -2 35 7 32
5 39 -8 21 -13 -19 -37 15 -85 120 -83 185 -95 151 -39 -107 24 -111 56 -280
70 -375 l27 -172 -6 170 c-6 206 22 138 76 -184 74 -440 61 -750 -22 -535 -32
84 -19 8 23 -126 25 -83 25 -95 0 -95 -16 0 -29 -17 -29 -38 0 -21 -18 -59
-39 -85 l-39 -47 -14 67 c-8 41 -19 57 -29 42 -50 -82 -214 407 -233 696 -13
197 -46 255 -46 80 0 -169 55 -435 139 -676 l79 -224 -90 10 c-113 13 -98 -9
-168 247 -33 120 -70 241 -82 268 -12 28 -25 76 -29 109 -5 32 -17 64 -28 71
-12 7 -27 57 -34 111 -7 54 -22 105 -34 112 -14 10 -13 23 3 42 18 22 17 28
-6 28 -74 0 30 -491 173 -820 70 -159 73 -148 -49 -137 -155 13 -190 133 -193
649 -2 311 1 337 38 369 27 23 33 39 18 48 -14 9 1 26 39 46 77 40 124 41 124
3 0 -18 20 -28 57 -27 60 2 183 -90 183 -137 0 -14 23 -32 50 -39 28 -7 50
-25 50 -40 0 -23 7 -24 39 -4 45 28 45 26 -102 251 -84 129 -99 144 -90 90 7
-37 4 -65 -7 -65 -11 0 -20 9 -20 19 0 11 -34 42 -75 70 -187 128 -355 21
-417 -265 -46 -218 -76 -186 -76 81 1 179 16 279 62 411 8 22 5 27 -8 14 -11
-11 -35 -62 -54 -113 -28 -77 -92 -169 -92 -132 0 84 178 408 204 372 15 -21
17 -21 10 3 -14 49 54 126 215 241 165 117 173 151 17 72 -114 -58 -240 -188
-371 -383 -103 -152 -165 -230 -183 -230 -29 0 -7 60 48 137 33 46 53 83 43
83 -36 0 -329 -335 -375 -430 -49 -100 -89 -171 -108 -190 -15 -15 -81 -194
-114 -310 -20 -69 -26 -156 -19 -280 10 -175 9 -178 -22 -120 -136 251 -8 737
283 1072 34 39 107 124 162 187 55 63 132 132 170 152 67 35 46 55 -44 42 -26
-4 6 54 37 65 16 7 24 21 17 33 -21 34 32 81 78 70 23 -6 33 -6 21 0 -48 23
-7 147 63 187 111 66 320 121 504 132 96 6 206 19 244 30 92 25 443 8 570 -26z
m-1724 -34 c17 -44 32 -57 58 -49 44 14 47 -17 6 -51 -16 -13 -24 -33 -18 -44
8 -12 21 -11 34 2 31 31 159 27 203 -5 35 -25 32 -32 -48 -110 -47 -46 -76
-83 -63 -83 12 0 22 -9 22 -20 0 -11 -22 -20 -50 -20 -46 0 -50 -8 -50 -86 0
-139 -143 -202 -210 -93 -23 36 -47 19 -60 -40 -11 -51 -18 -56 -49 -37 -29
18 -45 14 -82 -21 -101 -94 -156 -8 -90 142 11 26 6 35 -22 35 -31 1 -32 4 -7
20 25 16 23 24 -15 51 -77 54 -35 133 88 167 43 12 56 27 52 59 -5 44 23 58
45 23 18 -29 50 -5 50 37 0 45 115 183 153 183 17 0 41 -27 53 -60z m-321
-121 c-5 -23 -34 -56 -63 -74 -28 -18 -94 -72 -146 -122 l-94 -89 92 -107
c110 -129 85 -143 -31 -18 l-83 90 -47 -95 c-26 -51 -59 -130 -73 -174 -14
-44 -33 -90 -43 -103 -10 -12 -12 -60 -5 -105 13 -83 -19 -119 -46 -49 -74
193 158 639 422 810 139 90 131 88 117 36z m2685 -60 c356 -170 677 -554 815
-979 47 -143 61 -216 34 -180 -19 25 -20 23 -9 -10 7 -22 17 -56 21 -75 4 -19
13 -45 21 -58 7 -12 16 -115 19 -229 4 -114 12 -216 18 -226 15 -25 -4 -418
-25 -502 l-18 -70 -103 210 c-97 197 -109 240 -202 710 -168 847 -320 1151
-711 1421 -174 120 -129 116 140 -12z m-2898 -510 c-6 -16 -2 -29 9 -29 10 0
19 -13 19 -30 0 -16 17 -30 39 -30 21 0 44 -9 51 -20 23 -36 170 50 170 100 0
9 -28 -10 -63 -43 -34 -32 -68 -53 -75 -46 -27 28 123 128 161 107 35 -18 35
-22 4 -70 -45 -68 -142 -117 -175 -89 -28 23 -104 -40 -79 -66 8 -7 3 -13 -10
-13 -12 0 -23 -25 -23 -57 0 -72 -16 -87 -65 -60 -30 16 -44 14 -57 -6 -10
-15 -18 -19 -18 -10 0 10 -14 7 -30 -7 -40 -33 -47 -24 -53 67 -3 41 -17 85
-31 96 -41 34 -31 76 23 100 28 13 44 32 37 43 -8 13 1 16 21 8 21 -8 33 -3
33 14 0 57 84 139 105 103 10 -18 13 -46 7 -62z m354 -167 c-256 -315 -363
-759 -255 -1064 30 -85 30 -86 -29 -139 -65 -59 -102 -279 -72 -433 8 -42 13
-133 12 -204 -1 -70 11 -178 26 -240 53 -213 56 -250 20 -221 -180 150 -208
772 -57 1287 33 114 25 141 -18 59 -57 -112 -95 -286 -122 -570 -32 -337 -45
-374 -291 -847 -284 -545 -315 -849 -98 -961 100 -52 62 -129 -65 -129 -207 0
-404 198 -318 319 23 31 41 71 41 88 0 17 10 37 21 44 12 7 17 25 11 40 -6 15
-2 33 8 39 10 6 13 24 7 41 -6 16 0 29 14 29 18 0 22 30 13 115 -14 140 -7
154 180 354 203 219 366 549 366 745 0 36 7 66 16 66 9 0 12 59 8 130 -6 81
-1 130 12 130 11 0 27 38 35 85 7 47 21 94 30 105 9 11 35 101 58 200 23 99
50 207 59 240 10 33 29 110 43 170 13 61 49 164 79 230 65 140 83 206 60 220
-44 27 -290 -692 -346 -1010 -5 -29 -10 -12 -11 40 -5 184 151 721 238 822 22
24 39 54 39 67 0 61 51 129 90 120 79 -19 176 69 220 201 12 38 14 38 39 -9
25 -45 20 -57 -63 -159z m393 -112 c-45 -172 -50 -474 -9 -640 16 -66 29 -125
29 -132 1 -7 -48 -17 -108 -24 -63 -6 -166 -39 -245 -77 -75 -37 -143 -70
-152 -74 -8 -4 -9 32 -3 80 53 369 221 733 434 937 101 97 99 100 54 -70z
m-969 -70 c13 -21 -10 -33 -78 -44 -55 -9 -63 39 -8 50 25 5 52 10 60 11 7 2
19 -6 26 -17z m144 -153 c-120 -237 -194 -580 -194 -898 0 -93 -5 -169 -11
-169 -27 0 -209 103 -209 118 0 9 26 106 59 214 32 109 55 200 52 204 -10 10
-91 -212 -118 -321 -23 -97 -45 -119 -66 -64 -44 114 450 1093 520 1029 9 -8
-6 -59 -33 -113z m1072 -259 c-7 -66 -4 -108 8 -108 11 0 17 25 13 55 -7 54
-6 54 13 -5 25 -74 38 -578 15 -544 -9 13 -39 73 -67 133 -27 60 -58 115 -68
121 -10 6 -10 68 1 150 10 77 24 182 30 234 8 68 19 91 38 83 21 -7 25 -37 17
-119z m961 -222 c11 -67 4 -105 -14 -84 -19 21 -33 158 -17 158 11 0 24 -33
31 -74z m-1111 -284 c58 -150 195 -302 271 -302 46 0 51 6 36 35 -31 59 -61
185 -44 185 9 0 22 -20 28 -45 31 -118 94 -158 213 -135 61 12 216 23 345 25
l235 3 0 176 c0 182 41 251 73 121 7 -30 33 -101 57 -157 l45 -102 117 -3 c65
-2 197 -18 294 -34 214 -37 214 -37 214 122 0 244 33 128 53 -186 24 -371 32
-345 -87 -269 -133 85 -351 151 -496 151 -162 0 -450 -98 -450 -152 0 -10 9
-12 20 -5 32 20 23 -34 -13 -73 -46 -51 -12 -46 83 12 107 66 130 64 62 -7
-123 -128 -89 -401 58 -471 258 -122 522 279 318 482 -61 62 -60 68 9 48 239
-69 410 -188 396 -275 -13 -82 11 -84 68 -5 61 85 63 74 39 -183 -26 -280 -60
-404 -163 -598 -135 -253 -197 -290 -667 -400 -88 -21 -226 -64 -307 -97 -121
-50 -154 -56 -185 -37 -44 27 -48 47 -14 59 14 4 -89 23 -227 41 -680 91
-1102 334 -1102 636 0 102 13 115 100 100 133 -23 233 17 117 46 -154 38 -258
493 -213 937 29 289 28 286 92 223 61 -62 93 -48 64 29 -33 89 -11 111 158
158 340 94 346 94 403 -53z m1264 -632 c0 -14 28 -31 63 -38 116 -23 149 -106
96 -246 -105 -277 -432 -194 -393 100 21 153 234 322 234 184z m-2309 -396
c-56 -109 -190 -280 -191 -242 0 12 36 77 80 146 44 68 80 128 80 133 0 6 15
34 34 62 56 87 54 13 -3 -99z m113 -24 c24 -71 23 -91 -7 -170 -19 -49 -35
-124 -36 -165 -1 -53 -10 -75 -31 -75 -16 0 -30 9 -30 20 0 11 -14 20 -32 20
-46 0 -12 200 66 385 37 88 35 88 70 -15z m3276 -95 c24 -69 72 -177 105 -240
l61 -116 -46 -49 c-63 -67 -198 -130 -278 -130 l-65 0 42 59 c73 102 123 279
127 446 4 185 -1 183 54 30z m-3097 -246 c-4 -49 -14 -89 -23 -89 -26 0 -80
156 -80 231 l0 70 55 -62 c46 -51 54 -76 48 -150z m3461 -121 c69 -73 187
-193 261 -268 157 -159 153 -148 72 -181 -34 -14 -95 -56 -134 -91 -68 -63
-156 -102 -178 -79 -6 6 -21 -1 -33 -16 -32 -38 -313 -108 -532 -133 -285 -33
-287 -33 -323 -49 -51 -21 -73 181 -29 261 84 153 287 338 346 316 31 -12 54
-31 52 -43 -3 -11 8 -26 25 -32 16 -7 29 -3 29 8 0 10 17 19 38 19 84 0 242
123 242 188 0 40 1 40 44 -3 l43 -44 -46 -100 c-53 -113 -139 -209 -230 -256
-88 -45 -31 -54 104 -15 154 45 294 123 326 182 26 49 59 64 59 28 0 -11 13
-20 29 -20 44 0 83 -81 49 -101 -15 -9 -20 -23 -12 -31 13 -14 114 66 114 91
0 6 -59 52 -132 101 -143 97 -368 323 -368 371 0 60 62 25 184 -103z m-805
-54 c-24 -68 -59 -145 -75 -171 -17 -26 -33 -66 -36 -90 -3 -24 -18 -104 -33
-178 -57 -268 73 -615 229 -615 18 0 18 -6 2 -22 -37 -37 -217 -27 -290 16
-89 51 -123 129 -132 301 -9 158 -34 175 -55 36 -15 -103 17 -267 73 -376 48
-91 30 -94 -81 -14 -235 171 -203 393 107 739 144 159 310 433 314 517 1 23 4
25 12 7 6 -15 -10 -82 -35 -150z m-2815 -11 c-12 -62 -40 -12 -43 76 -1 45 1
46 26 12 14 -20 22 -60 17 -88z m-816 -94 c-28 -76 -56 -200 -62 -274 -12
-132 -30 -167 -54 -103 -37 97 4 279 100 444 71 120 75 98 16 -67z m773 -137
c33 -47 128 -138 210 -202 173 -136 186 -155 54 -79 -253 145 -316 213 -385
417 -54 160 -50 184 10 56 27 -59 77 -145 111 -192z m142 108 c9 0 17 -10 17
-23 0 -19 46 -67 134 -138 13 -10 39 -19 56 -19 32 0 150 -114 150 -144 0 -38
-137 -14 -186 32 -28 26 -56 43 -62 37 -16 -16 -73 37 -61 56 5 9 -9 27 -31
39 -31 16 -39 34 -30 66 7 25 6 34 -4 21 -24 -34 -55 10 -63 88 -9 95 21 130
44 50 10 -36 26 -65 36 -65z m2859 -15 c-31 -57 -242 -256 -242 -228 0 25 225
263 249 263 7 0 4 -16 -7 -35z m680 -38 c24 -28 16 -42 -60 -110 -88 -78 -155
-107 -96 -41 18 19 46 69 64 110 34 82 52 90 92 41z m-2595 -377 c7 -16 29
-30 51 -30 44 0 69 -30 73 -86 2 -34 -88 -72 -137 -58 -10 3 -10 -6 -2 -19 10
-16 4 -20 -16 -12 -16 6 -42 3 -58 -7 -20 -12 -21 -17 -3 -18 14 0 25 -25 25
-60 0 -73 -34 -79 -60 -10 -33 87 -123 124 -342 139 -234 17 -288 -13 -265
-147 8 -43 5 -63 -8 -55 -44 27 -44 152 1 221 65 99 181 138 454 152 127 7
240 14 253 16 12 2 28 -9 34 -26z m1273 17 c0 -27 -64 -127 -81 -127 -19 0
-59 82 -59 119 0 9 32 17 70 17 39 0 70 -4 70 -9z m-160 -68 c33 -78 22 -86
-56 -39 -76 47 -85 100 -16 100 34 0 54 -17 72 -61z m-83 -79 c14 0 19 -10 12
-21 -7 -12 -45 -17 -84 -12 -86 11 -146 -9 -206 -71 l-44 -46 24 47 c14 26 20
64 15 84 -7 26 1 35 27 33 20 -1 32 -9 26 -18 -5 -9 -1 -16 10 -16 10 0 24 14
31 31 6 17 21 26 32 19 11 -7 26 2 33 20 11 28 17 27 56 -9 24 -23 55 -41 68
-41z m-601 -50 c-29 -64 -136 -73 -136 -11 0 55 76 105 122 80 31 -17 33 -28
14 -69z m275 29 c17 -28 -48 -124 -77 -113 -105 39 -114 38 -114 -15 0 -28
-10 -51 -22 -51 -13 0 -19 21 -13 50 5 28 2 56 -8 62 -24 15 -21 48 4 48 12 0
35 -13 50 -28 30 -30 109 -21 109 13 0 11 -22 14 -50 7 -51 -13 -71 16 -25 35
45 18 132 13 146 -8z m-439 -69 c1 -85 -13 -88 -58 -12 -26 45 -28 61 -9 69
53 21 65 11 67 -57z m935 40 c-6 -16 -28 -30 -49 -30 -27 0 -38 -14 -38 -48 0
-131 -73 -194 -135 -116 -30 38 -51 15 -138 -147 l-53 -102 -112 9 c-197 14
-309 34 -316 55 -16 49 303 220 634 338 223 80 222 80 207 41z m-1048 -145 c1
-31 -11 -45 -37 -45 -65 0 -83 44 -47 117 l32 67 26 -47 c14 -26 26 -67 26
-92z m2078 84 c65 -144 -61 -322 -305 -430 -105 -47 -119 -69 -32 -52 57 11
60 8 60 -52 0 -36 6 -85 13 -110 9 -34 3 -45 -22 -45 -25 0 -30 11 -21 41 11
34 0 46 -68 73 -67 26 -79 39 -71 74 14 55 -63 130 -137 136 -30 3 -54 12 -54
21 0 9 43 11 95 5 151 -19 284 77 176 126 -70 32 -178 185 -151 212 24 24 182
44 372 49 112 3 123 -1 145 -48z m-2531 -10 c27 -26 62 -38 91 -33 30 6 50 -2
58 -23 6 -18 22 -46 36 -63 14 -16 31 -66 39 -110 l13 -80 -52 60 c-61 71 -70
82 -118 157 -110 172 -392 111 -393 -85 -1 -54 -6 -64 -20 -42 -11 17 -20 22
-20 12 0 -10 -18 -2 -41 19 -33 30 -35 39 -12 52 17 10 24 35 18 67 -22 115
293 169 401 69z m639 -60 c-36 -32 -77 -59 -90 -58 -14 0 4 27 40 60 36 32 77
59 90 58 14 0 -4 -27 -40 -60z m-664 20 c44 -23 99 -120 99 -174 0 -20 18 -72
40 -115 22 -43 40 -89 40 -102 0 -64 87 -293 131 -345 83 -100 75 -103 -259
-103 -349 0 -332 -9 -332 173 l0 109 48 -56 c72 -83 252 -83 324 0 90 106 50
250 -86 307 l-70 29 52 48 c87 81 64 181 -52 223 -55 20 -58 24 -20 25 26 1
64 -7 85 -19z m-65 -50 c62 -44 59 -138 -5 -180 -64 -42 -149 -17 -190 55 -63
111 82 204 195 125z m801 -84 c81 41 81 18 -2 -40 l-64 -45 -25 45 c-33 60
-33 92 1 46 25 -35 31 -35 90 -6z m-217 -36 c15 -28 62 -70 104 -94 100 -56
96 -67 -29 -82 -189 -23 -335 -16 -335 15 0 31 182 66 219 43 12 -8 21 -5 21
6 0 10 -13 24 -30 30 -46 18 -37 133 10 133 7 0 25 -23 40 -51z m98 -2 c24
-54 0 -62 -47 -16 -39 39 -40 62 -3 62 16 0 38 -21 50 -46z m941 -15 c46 -75
121 -132 173 -132 27 0 28 -5 8 -30 -21 -26 -13 -30 59 -30 87 0 116 -61 36
-76 -26 -5 -31 2 -22 28 11 28 5 32 -35 22 -39 -10 -57 0 -88 47 -22 32 -47
59 -55 59 -20 0 -155 144 -155 164 0 37 40 11 79 -52z m-1923 -37 c5 -27 -7
-35 -55 -35 -33 0 -61 -8 -61 -17 0 -10 21 -13 48 -8 60 11 72 -9 55 -95 -16
-78 -78 -104 -121 -52 -27 32 -35 195 -12 232 22 36 139 15 146 -25z m1681 27
c19 -12 5 -20 -45 -26 -69 -8 -87 2 -59 31 19 18 72 16 104 -5z m-1411 -103
c179 -45 243 -233 108 -317 -199 -122 -387 153 -195 284 34 23 40 34 19 34
-48 0 -102 -71 -120 -155 -15 -69 -15 -68 -6 15 6 50 12 118 14 152 4 57 7 60
44 36 22 -14 83 -36 136 -49z m1604 -61 c1 -38 46 -98 74 -98 29 0 156 -142
156 -175 0 -62 -81 -134 -152 -135 -37 0 -68 7 -68 15 0 8 9 15 20 15 77 0
-68 260 -180 324 -97 56 -100 71 -15 82 114 15 165 6 165 -28z m525 -23 c45
-36 28 -124 -37 -191 -76 -78 -101 -80 -133 -10 -35 76 -31 98 11 59 31 -28
42 -29 74 -6 42 31 29 93 -19 93 -20 0 -31 18 -31 50 0 53 71 55 135 5z m794
1 c56 -81 42 -229 -24 -242 -119 -23 -229 162 -145 246 53 53 130 51 169 -4z
m-316 -19 c59 -48 89 -134 72 -201 l-17 -64 -65 109 c-36 60 -61 91 -55 69 62
-236 64 -290 12 -290 -37 0 -40 13 -40 166 0 102 -9 175 -24 190 -32 32 -67
31 -41 -1 29 -36 49 -240 26 -274 -12 -20 -11 -39 5 -59 21 -25 17 -25 -26 -2
-30 16 -40 30 -25 35 14 5 21 16 15 24 -27 45 -47 291 -25 317 27 32 141 21
188 -19z m-2168 3 c22 0 35 -15 35 -40 0 -45 -57 -54 -121 -19 -57 30 -52 87
6 72 25 -7 61 -13 80 -13z m951 -30 c40 -27 62 -50 48 -50 -36 0 62 -184 115
-215 33 -21 38 -34 22 -64 -63 -117 -307 -165 -368 -73 -18 27 -68 69 -112 94
-45 25 -81 53 -81 63 0 9 -8 12 -19 6 -23 -15 -104 69 -89 92 6 9 0 17 -12 17
-12 0 -17 8 -11 18 6 10 0 23 -14 27 -58 21 74 94 171 94 59 1 92 9 84 21 -28
46 190 21 266 -30z m1758 -4 c27 -39 23 -46 -57 -93 -124 -74 -143 -39 -52 93
43 62 68 62 109 0z m146 -48 c0 -41 -22 -82 -70 -132 -80 -82 -86 -96 -31 -67
48 26 87 27 71 2 -35 -57 -259 -68 -237 -11 5 14 0 32 -12 39 -33 21 -25 51
14 51 55 0 164 75 201 139 39 69 64 61 64 -21z m-3619 -78 c47 0 61 -10 71
-55 6 -30 19 -84 28 -120 l17 -65 -116 0 -116 0 -14 88 c-20 136 21 298 53
207 15 -43 32 -55 77 -55z m954 -51 l95 -87 -90 -1 c-49 0 -126 17 -170 38
l-80 38 80 3 80 4 -80 23 c-158 45 -170 88 -21 76 75 -6 109 -23 186 -94z
m1298 -1 c36 -117 33 -241 -5 -256 -40 -15 -264 -15 -323 1 -78 20 -49 47 52
47 130 0 233 114 211 233 -19 101 33 81 65 -25z m340 42 c53 -17 -26 -91 -92
-86 -29 2 -65 -4 -80 -13 -20 -13 -23 -10 -10 10 41 67 96 115 121 107 16 -4
43 -13 61 -18z m546 -82 c57 -29 61 -36 35 -62 -34 -35 -134 15 -134 66 0 36
19 35 99 -4z m146 -16 c32 -24 30 -28 -16 -49 -67 -30 -65 -31 -62 27 3 55 26
62 78 22z"/>
<path d="M3198 5323 c-61 -50 -22 -93 90 -100 94 -6 198 -47 286 -115 118 -89
70 -13 -59 94 -102 86 -223 158 -262 158 -5 0 -29 -17 -55 -37z"/>
<path d="M2780 5283 c-120 -39 -205 -81 -164 -82 14 -1 81 18 150 41 86 29
154 39 223 33 87 -9 94 -7 61 18 -50 36 -136 33 -270 -10z"/>
<path d="M3677 4859 c69 -69 149 -160 177 -202 47 -71 88 -110 54 -52 -84 144
-237 319 -308 354 -29 15 3 -27 77 -100z"/>
<path d="M2691 4874 c21 -130 78 -180 193 -169 l94 9 6 -72 c6 -67 10 -61 52
78 25 83 54 170 64 195 22 51 -3 60 -40 15 -13 -16 -34 -24 -45 -17 -12 8 -15
4 -7 -9 19 -31 -106 -94 -133 -67 -11 11 -31 16 -44 11 -13 -5 -35 13 -50 40
-49 92 -106 83 -90 -14z"/>
<path d="M3484 4892 c-33 -48 -67 -72 -118 -81 l-71 -14 56 -58 c122 -128 275
-10 205 158 l-26 63 -46 -68z"/>
<path d="M4016 4884 l-54 -6 68 -95 c71 -100 190 -335 190 -378 0 -14 14 -25
31 -25 23 0 28 12 19 40 -7 22 -6 51 3 64 29 48 21 101 -17 111 -24 7 -34 21
-27 40 7 18 -5 42 -29 59 -22 16 -40 41 -40 58 0 16 -24 38 -54 50 -35 13 -46
26 -31 35 37 23 -1 54 -59 47z"/>
<path d="M3493 4463 c-60 -65 -3 -95 242 -126 14 -2 21 -8 16 -13 -13 -13 94
-95 116 -88 9 3 28 -3 40 -13 56 -46 68 29 15 93 -146 175 -343 242 -429 147z"/>
<path d="M3171 3990 c22 -68 89 -258 100 -288 5 -15 14 -24 19 -19 11 11 -78
261 -110 312 -21 32 -22 31 -9 -5z"/>
<path d="M3124 3795 c3 -74 13 -135 23 -135 9 0 14 -25 12 -55 -5 -67 21 -223
39 -234 17 -10 9 81 -30 338 -36 238 -53 271 -44 86z"/>
<path d="M5230 1958 c55 -59 135 -148 177 -198 43 -49 59 -63 37 -30 -54 81
-265 318 -292 328 -12 4 23 -41 78 -100z"/>
<path d="M1953 5193 c-19 -95 -15 -100 64 -67 l64 27 -50 26 c-27 15 -52 41
-56 59 -4 18 -14 -3 -22 -45z"/>
<path d="M1798 5094 l-73 -64 78 -1 c74 -1 77 2 77 65 0 36 -2 66 -5 65 -3 0
-38 -30 -77 -65z"/>
<path d="M2035 5039 c-82 -44 -87 -59 -46 -149 18 -38 28 -47 29 -26 1 19 25
75 53 125 27 50 48 91 45 90 -3 0 -40 -19 -81 -40z"/>
<path d="M1691 4945 c12 -8 28 -32 36 -53 13 -36 15 -36 53 -2 58 53 49 70
-35 70 -41 0 -65 -7 -54 -15z"/>
<path d="M1825 4842 l-43 -58 60 30 c33 16 74 24 93 17 28 -11 27 -7 -4 28
-48 53 -55 52 -106 -17z"/>
<path d="M4819 4745 c23 -30 66 -91 95 -135 28 -44 75 -102 103 -130 l51 -50
-37 60 c-48 77 -231 310 -244 310 -6 0 9 -25 32 -55z"/>
<path d="M2104 3097 c4 -11 54 -37 110 -57 57 -20 137 -62 178 -93 l75 -57
-33 51 c-52 80 -352 222 -330 156z"/>
<path d="M3465 3058 c-104 -13 -205 -62 -205 -97 0 -10 27 -5 59 12 33 16 116
41 184 55 144 29 117 51 -38 30z"/>
<path d="M1980 2926 c-109 -37 -320 -168 -320 -199 0 -31 123 -192 155 -202
16 -5 25 11 25 42 0 101 231 278 317 242 27 -11 24 -17 -17 -31 -204 -73 -192
-499 14 -514 214 -16 378 239 278 433 -18 35 -26 62 -18 61 93 -15 62 57 -58
137 -97 64 -242 76 -376 31z m314 -191 c9 -14 34 -35 56 -47 25 -14 42 -47 47
-89 8 -89 -14 -203 -38 -189 -10 7 -13 -1 -7 -17 28 -75 -210 -121 -259 -51
-67 95 -45 278 42 352 80 68 133 82 159 41z"/>
<path d="M2231 2589 c-45 -46 -41 -163 8 -188 51 -28 128 63 109 127 -28 92
-66 111 -117 61z m79 -50 c14 -44 -23 -106 -52 -88 -10 6 -18 32 -18 57 0 78
49 100 70 31z"/>
<path d="M4000 2273 c-39 -26 -104 -58 -145 -72 -83 -27 -84 -49 -3 -70 38 -9
64 -3 89 23 20 20 59 57 87 83 90 82 72 104 -28 36z"/>
<path d="M2750 1700 c-21 -33 51 -103 99 -96 73 11 55 105 -22 112 -35 3 -69
-4 -77 -16z"/>
<path d="M3439 2559 c-29 -55 -17 -140 25 -166 75 -47 158 117 92 183 -37 37
-92 29 -117 -17z m90 -72 c-27 -76 -69 -84 -69 -13 0 68 38 116 68 86 13 -13
13 -39 1 -73z"/>
<path d="M4863 1654 c-43 -46 -57 -94 -27 -94 19 0 91 119 79 131 -4 5 -28
-12 -52 -37z"/>
<path d="M4054 1488 c-42 -48 -68 -88 -57 -88 22 0 152 157 140 169 -4 4 -41
-32 -83 -81z"/>
<path d="M2345 1198 c-100 -46 -104 -61 -30 -109 43 -28 50 -29 29 -4 -22 27
-15 38 55 77 138 78 97 105 -54 36z"/>
<path d="M3214 850 c-107 -55 -240 -151 -227 -164 7 -7 302 176 331 205 18 18
-11 7 -104 -41z"/>
<path d="M4414 957 c-15 -37 -20 -72 -10 -79 9 -6 12 -28 5 -50 -10 -32 -5
-30 29 9 46 52 57 18 23 -67 -16 -39 7 -90 40 -90 74 0 58 239 -21 310 -37 33
-39 32 -66 -33z"/>
<path d="M2272 246 c-60 -31 -220 -28 -302 5 -34 14 -36 12 -15 -14 13 -17 19
-36 12 -44 -7 -7 -25 3 -39 22 -15 19 -27 26 -27 15 -1 -34 34 -76 53 -64 10
7 54 3 99 -9 53 -13 103 -13 148 0 l69 19 -70 5 -70 4 70 13 c48 9 75 5 87
-14 19 -31 73 3 73 47 0 43 -26 47 -88 15z"/>
<path d="M1944 876 c-60 -60 -4 -143 90 -132 100 11 80 156 -22 156 -24 0 -55
-11 -68 -24z"/>
<path d="M2000 594 c-117 -59 -56 -234 81 -234 128 0 156 170 38 230 -68 36
-57 35 -119 4z m75 -69 c11 -33 -52 -56 -79 -29 -11 11 -14 31 -6 43 17 29 74
19 85 -14z"/>
<path d="M4880 482 c0 -21 18 -59 39 -85 l40 -47 0 73 c1 48 -10 77 -31 85
-45 17 -48 16 -48 -26z"/>
<path d="M444 4736 c-105 -36 -240 -167 -265 -259 -62 -232 120 -475 261 -347
29 27 32 21 32 -68 0 -62 14 -118 38 -155 23 -34 36 -84 32 -124 -7 -91 43
-143 140 -143 126 0 194 113 128 213 -67 103 -52 225 42 328 261 288 -29 682
-408 555z m346 -122 c122 -122 118 -263 -11 -402 -68 -74 -79 -99 -79 -177 0
-138 -97 -179 -142 -61 -45 120 -19 205 105 340 53 58 72 95 64 120 -73 205
-378 81 -321 -131 43 -159 -95 -188 -147 -31 -96 291 317 556 531 342z m-140
-174 c7 -11 -26 -65 -74 -120 l-86 -100 -15 85 c-21 114 121 223 175 135z m98
-625 c47 -75 -70 -155 -122 -83 -34 46 -33 58 6 98 39 39 86 33 116 -15z"/>
</g>
</svg>
