<?xml version="1.0" standalone="no"?>
<!DOCTYPE svg PUBLIC "-//W3C//DTD SVG 20010904//EN"
 "http://www.w3.org/TR/2001/REC-SVG-20010904/DTD/svg10.dtd">
<svg version="1.0" xmlns="http://www.w3.org/2000/svg"
 width="300" height="300" viewBox="0 0 300.000000 300.000000"
 preserveAspectRatio="xMidYMid meet">
<metadata>
Created by potrace 1.10, written by Peter Selinger 2001-2011
</metadata>
<g transform="translate(0.000000,300.000000) scale(0.100000,-0.100000)"
fill="currentColor" stroke="none">
<path d="M970 2900 c-58 -11 -125 -20 -150 -20 -127 -1 -455 -65 -471 -92 -13
-20 -12 -23 37 -63 126 -103 146 -148 299 -643 l84 -274 -38 -56 c-89 -132
-147 -299 -171 -496 -10 -79 -47 -310 -56 -343 -2 -8 -21 -5 -66 9 -35 11 -92
21 -128 22 -56 1 -75 -4 -135 -34 -38 -19 -74 -43 -79 -52 -15 -25 15 -110 74
-208 49 -81 49 -83 33 -113 -12 -24 -13 -35 -4 -49 15 -25 16 -25 -32 -31
-134 -20 -157 -46 -157 -179 0 -63 4 -88 13 -89 15 -1 -1 2 405 -65 183 -30
339 -54 347 -54 16 0 11 48 -11 114 -12 37 -11 42 9 63 62 65 65 67 105 68 34
1 42 -2 46 -22 9 -35 47 -93 60 -93 7 0 27 5 45 11 33 12 43 40 14 37 -58 -5
-69 1 -80 44 -6 24 -11 43 -10 44 1 1 12 5 25 8 18 6 22 4 22 -16 0 -26 17
-48 37 -48 20 0 15 17 -7 23 -27 7 -27 53 -1 62 13 4 17 12 14 25 -6 24 -1 24
-71 1 -31 -10 -86 -22 -122 -25 l-65 -7 -94 62 c-151 99 -346 179 -438 179
-20 0 -30 13 -62 82 -63 139 -66 147 -50 162 25 23 143 70 171 68 49 -4 262
-83 383 -143 226 -112 299 -177 313 -281 3 -23 13 -49 24 -60 10 -10 18 -24
19 -30 1 -23 7 -82 12 -128 3 -25 1 -50 -4 -56 -5 -7 -5 -24 2 -42 12 -35 -1
-34 254 -7 72 8 238 24 370 35 132 11 263 22 290 25 28 2 149 14 270 25 121
12 261 25 310 30 50 5 133 10 185 10 52 0 130 5 173 12 l78 12 -4 90 c-22 417
-131 1066 -240 1426 -117 383 -221 637 -330 802 -76 114 -124 168 -150 168
-12 0 -47 7 -77 15 -63 17 -232 47 -435 76 -212 31 -640 36 -785 9z m193 -7
c-7 -2 -21 -2 -30 0 -10 3 -4 5 12 5 17 0 24 -2 18 -5z m347 -23 c74 -6 146
-12 160 -14 14 -3 57 -7 95 -11 72 -7 245 -38 420 -75 108 -23 106 -21 170
-117 38 -55 145 -266 190 -373 93 -219 200 -586 265 -907 52 -258 115 -669
125 -813 4 -52 11 -117 16 -144 5 -27 9 -54 9 -60 0 -12 -1 -12 -170 -16 -64
-1 -140 -6 -170 -11 -50 -8 -181 -21 -365 -34 -38 -3 -88 -8 -110 -11 -49 -5
-387 -32 -510 -39 -49 -3 -103 -8 -120 -10 -16 -2 -75 -7 -130 -10 -103 -6
-229 -21 -269 -31 -22 -5 -23 -2 -29 73 -7 85 -10 110 -32 223 -8 41 -26 147
-40 234 -26 153 -26 161 -10 195 23 49 41 106 55 174 13 64 50 169 106 297 32
75 37 96 40 180 1 52 4 104 6 115 4 29 -33 31 -97 5 -57 -23 -77 -40 -103 -89
-21 -39 -151 -191 -163 -191 -5 0 -9 6 -9 13 0 6 -3 30 -6 52 -4 30 -3 36 5
25 6 -8 11 -25 11 -37 0 -13 5 -23 10 -23 6 0 10 3 10 8 -1 15 -39 148 -49
172 -11 24 -11 24 -5 -5 3 -16 6 -57 5 -90 -1 -33 3 -75 8 -93 9 -30 7 -36
-28 -72 -21 -22 -32 -40 -25 -40 7 0 16 5 19 10 15 25 24 5 24 -59 0 -69 8
-121 19 -121 3 0 43 19 88 42 82 42 83 43 102 99 22 65 76 150 123 194 31 30
31 30 24 5 -4 -14 -22 -54 -41 -90 -49 -96 -91 -218 -114 -333 -16 -77 -31
-118 -61 -169 -46 -79 -60 -90 -54 -47 2 18 17 46 33 63 17 17 37 47 46 66 16
34 16 34 -1 10 -31 -43 -75 -90 -84 -90 -5 0 -9 9 -9 21 0 53 -41 77 -72 42
-30 -34 -56 -98 -51 -124 4 -21 0 -28 -24 -38 -26 -11 -37 -8 -99 22 -38 19
-80 38 -92 42 -19 5 -22 12 -18 28 9 28 47 218 86 431 35 182 59 265 90 308
44 60 80 130 80 156 1 20 3 23 9 12 13 -22 81 -274 81 -298 0 -11 5 -24 10
-27 28 -17 -17 184 -75 340 -19 50 -56 169 -84 265 -50 174 -149 468 -178 525
-28 54 -84 124 -114 142 -38 23 -37 30 8 36 21 2 108 16 193 30 85 14 162 25
170 25 8 0 53 5 100 11 82 11 297 27 410 30 30 0 116 -4 190 -9z m-1110 -115
c14 -19 14 -19 -2 -6 -10 7 -18 18 -18 24 0 6 1 8 3 6 1 -2 9 -13 17 -24z
m780 -1112 c-5 -20 -6 -41 -3 -46 9 -15 -20 -71 -62 -118 -22 -26 -62 -89 -88
-142 -39 -78 -52 -96 -75 -102 -15 -3 -44 -18 -65 -31 -22 -14 -41 -23 -45
-20 -3 3 -5 47 -4 98 2 76 5 94 20 102 30 16 99 92 152 168 39 56 63 79 103
100 71 37 77 36 67 -9z m-316 -690 c32 -105 26 -163 -17 -163 -62 0 -78 55
-36 128 31 55 44 63 53 35z m146 -298 c11 -66 23 -136 25 -155 8 -61 -24 71
-35 145 -6 39 -19 97 -30 130 -19 57 -19 54 -8 -29 2 -14 -7 -22 -37 -31 -39
-13 -39 -19 -1 -15 11 1 15 -3 12 -9 -11 -17 -16 -15 -116 41 -89 50 -92 52
-66 61 20 7 32 5 45 -7 32 -29 69 -20 124 33 l52 50 7 -47 c3 -26 16 -101 28
-167z m-26 9 c11 -30 6 -35 -19 -17 -13 10 -25 21 -25 26 0 14 38 7 44 -9z
m-569 -136 c93 -31 249 -106 328 -159 l46 -30 -21 -35 -20 -34 -41 25 c-77 47
-201 112 -269 141 -46 19 -63 31 -55 37 8 6 6 7 -6 3 -10 -3 -34 1 -54 9 -19
8 -45 15 -58 15 -31 0 -35 7 -18 41 18 35 23 35 168 -13z m180 -198 c86 -43
129 -70 128 -80 -1 -8 -4 -25 -6 -36 -3 -12 1 -39 8 -60 22 -62 20 -65 -25
-49 -45 16 -41 15 -76 15 -23 0 -25 3 -20 26 5 17 3 23 -4 19 -5 -3 -10 -12
-10 -20 0 -21 -14 -25 -51 -15 -19 6 -54 13 -79 16 -25 3 -54 8 -65 10 -11 3
-56 9 -100 15 -44 5 -96 14 -115 19 -19 5 -57 11 -85 13 l-50 5 2 48 c2 27 8
68 14 90 10 40 14 43 68 58 70 20 75 20 67 1 -13 -34 12 -12 31 29 l22 44 108
-41 c59 -23 167 -71 238 -107z m680 -140 c-3 -5 -16 -10 -28 -9 -20 1 -20 2 3
9 14 4 26 8 28 9 2 1 0 -3 -3 -9z m48 3 c-7 -2 -19 -2 -25 0 -7 3 -2 5 12 5
14 0 19 -2 13 -5z"/>
<path d="M542 2772 c-56 -15 -61 -19 -48 -32 8 -8 31 -42 50 -74 46 -77 47
-62 1 20 l-34 63 42 12 c23 6 53 15 67 19 48 16 -12 9 -78 -8z"/>
<path d="M630 2481 c21 -54 49 -110 50 -101 0 9 -56 140 -64 148 -4 4 2 -17
14 -47z"/>
<path d="M680 2365 c0 -5 5 -17 10 -25 5 -8 10 -10 10 -5 0 6 -5 17 -10 25 -5
8 -10 11 -10 5z"/>
<path d="M801 1664 c0 -11 3 -14 6 -6 3 7 2 16 -1 19 -3 4 -6 -2 -5 -13z"/>
<path d="M696 1240 c-14 -17 -26 -36 -26 -40 0 -5 -11 -34 -25 -64 -28 -62
-33 -140 -11 -172 8 -11 33 -29 56 -39 38 -17 45 -17 68 -4 47 27 66 63 64
127 -2 88 -50 213 -84 220 -9 2 -27 -11 -42 -28z m72 -47 c51 -132 50 -193 -3
-243 -27 -26 -56 -23 -98 11 -23 17 -27 28 -27 71 0 69 68 217 100 218 3 0 15
-26 28 -57z"/>
<path d="M680 1134 c-45 -108 -35 -163 32 -179 38 -10 78 31 77 77 -1 33 -1
33 -9 -6 -7 -37 -31 -66 -55 -66 -24 0 -55 33 -61 65 -5 26 1 50 27 105 17 38
30 73 27 76 -3 3 -20 -30 -38 -72z"/>
<path d="M747 1187 c3 -16 12 -47 19 -70 l14 -42 -6 40 c-3 22 -12 53 -19 70
l-14 30 6 -28z"/>
<path d="M707 1123 c-4 -3 0 -11 9 -17 18 -13 9 -46 -12 -46 -19 0 -18 -25 2
-44 18 -18 24 -19 43 -7 21 14 6 121 -18 121 -10 0 -21 -3 -24 -7z m35 -95
c-6 -6 -15 -7 -22 -3 -8 5 -6 13 7 27 16 18 18 19 21 3 2 -9 -1 -22 -6 -27z"/>
<path d="M1033 850 c0 -36 2 -50 4 -32 2 17 2 47 0 65 -2 17 -4 3 -4 -33z"/>
<path d="M1116 270 c3 -14 10 -32 15 -40 7 -13 8 -13 8 0 0 8 -6 26 -15 40
l-15 25 7 -25z"/>
<path d="M1102 1603 c-22 -16 -69 -64 -105 -108 -36 -44 -81 -96 -101 -114
-41 -40 -48 -59 -11 -35 22 14 70 69 158 183 15 20 47 48 70 64 49 33 53 37
40 37 -5 0 -28 -12 -51 -27z"/>
<path d="M815 890 c-14 -31 -16 -46 -8 -58 12 -20 41 -28 55 -14 6 6 0 8 -16
5 -34 -7 -42 16 -21 57 9 17 15 36 13 42 -2 6 -12 -8 -23 -32z"/>
<path d="M401 466 c2 -2 53 -26 113 -52 103 -45 110 -46 122 -29 7 10 11 22 7
28 -3 5 -10 1 -16 -9 -5 -11 -11 -20 -12 -21 -1 -2 -25 8 -53 22 -73 35 -174
73 -161 61z"/>
<path d="M140 370 c0 -13 -2 -12 153 -10 70 1 127 -2 127 -7 0 -5 9 -9 20 -10
11 -1 18 2 15 8 -4 5 -13 9 -21 9 -8 0 -14 3 -14 8 0 4 -63 8 -140 10 -92 2
-140 -1 -140 -8z"/>
<path d="M353 309 c-63 -18 -34 -43 102 -87 114 -38 145 -45 145 -33 0 5 -19
12 -42 16 -70 12 -225 71 -214 82 3 3 31 11 63 18 54 12 55 13 18 13 -22 0
-55 -4 -72 -9z"/>
<path d="M255 866 c-48 -22 -49 -23 -23 -29 14 -4 33 -10 42 -13 9 -3 16 -1
16 4 0 6 -8 12 -17 15 -13 3 -8 8 18 20 28 12 45 14 70 7 18 -5 35 -8 37 -6 4
5 -67 26 -83 25 -5 0 -32 -10 -60 -23z"/>
<path d="M170 792 c1 -9 7 -30 15 -47 l13 -30 1 29 c1 24 4 27 24 22 96 -28
100 -10 4 23 -52 18 -57 19 -57 3z"/>
<path d="M290 803 c0 -13 59 -111 71 -119 8 -5 9 -3 4 5 -4 8 6 27 29 50 l37
38 -38 10 c-65 19 -103 25 -103 16z m97 -50 c-17 -17 -67 -2 -67 21 0 11 7 12
41 4 35 -9 38 -13 26 -25z"/>
<path d="M474 750 c4 -27 5 -50 2 -50 -2 0 -17 7 -32 15 -32 17 -54 19 -54 6
0 -4 21 -15 47 -23 43 -14 48 -19 63 -63 9 -27 22 -51 29 -53 11 -4 108 50
158 88 21 17 21 17 -40 57 -49 32 -147 73 -175 73 -3 0 -2 -22 2 -50z m88 0
c29 -11 65 -28 80 -38 l27 -18 -34 -27 -34 -27 -48 28 c-40 24 -49 34 -54 65
-3 20 -2 37 2 37 5 0 32 -9 61 -20z m-2 -111 c0 -4 -6 -10 -12 -12 -10 -4 -10
-6 -1 -6 6 -1 15 4 18 9 3 6 10 10 16 10 18 0 8 -16 -20 -33 -29 -17 -30 -17
-36 5 -18 62 -18 59 9 47 14 -7 26 -16 26 -20z"/>
<path d="M525 720 c7 -12 85 -53 85 -45 0 5 -77 55 -85 55 -4 0 -3 -5 0 -10z"/>
<path d="M440 760 c0 -5 5 -10 11 -10 5 0 7 5 4 10 -3 6 -8 10 -11 10 -2 0 -4
-4 -4 -10z"/>
<path d="M726 610 c4 -36 5 -36 -40 -9 -20 11 -41 19 -48 16 -7 -3 11 -15 40
-27 32 -14 52 -29 52 -39 0 -32 16 -44 39 -31 19 10 30 5 84 -33 83 -59 118
-76 141 -67 14 4 16 9 8 14 -7 4 -16 5 -21 2 -5 -3 -42 16 -83 43 -41 26 -81
51 -89 54 -10 4 -8 7 9 12 30 10 28 16 -14 45 -19 14 -41 31 -49 38 -22 20
-33 14 -29 -18z m59 -25 c24 -20 26 -25 13 -30 -23 -9 -58 12 -58 35 0 26 8
25 45 -5z m-15 -45 c0 -5 -4 -10 -10 -10 -5 0 -10 5 -10 10 0 6 5 10 10 10 6
0 10 -4 10 -10z"/>
<path d="M980 300 c0 -16 4 -30 8 -30 5 0 7 14 4 30 -2 17 -6 30 -8 30 -2 0
-4 -13 -4 -30z"/>
</g>
</svg>
