<?xml version="1.0" standalone="no"?>
<!DOCTYPE svg PUBLIC "-//W3C//DTD SVG 20010904//EN"
 "http://www.w3.org/TR/2001/REC-SVG-20010904/DTD/svg10.dtd">
<svg version="1.0" xmlns="http://www.w3.org/2000/svg"
 width="300" height="300" viewBox="0 0 300.000000 300.000000"
 preserveAspectRatio="xMidYMid meet">
<metadata>
Created by potrace 1.10, written by Peter Selinger 2001-2011
</metadata>
<g transform="translate(0.000000,300.000000) scale(0.100000,-0.100000)"
fill="currentColor" stroke="none">
<path d="M490 2935 c-12 -14 -14 -37 -8 -75 2 -14 -24 -74 -88 -207 -19 -38
-40 -62 -80 -89 -30 -21 -54 -40 -54 -43 0 -3 -27 -28 -60 -55 -57 -46 -61
-51 -59 -90 2 -56 37 -192 64 -246 12 -25 37 -76 56 -115 l35 -70 89 -3 c50
-1 102 -7 117 -13 30 -12 102 -4 117 14 7 9 -27 13 -137 15 -104 2 -153 7
-168 16 -20 14 -80 126 -117 221 -24 63 -47 184 -38 207 5 15 84 88 193 179
25 21 49 52 57 75 8 21 31 74 52 117 27 55 37 86 33 106 -4 17 0 32 9 39 12
11 15 1 21 -67 7 -75 6 -82 -22 -138 -16 -32 -35 -77 -43 -101 -12 -43 -27
-57 -155 -148 -81 -57 -86 -64 -78 -109 19 -119 65 -249 111 -311 22 -29 25
-30 80 -26 57 4 131 27 121 37 -3 3 -18 1 -34 -5 -15 -6 -52 -13 -81 -16 -47
-5 -56 -3 -73 18 -11 12 -19 28 -20 34 0 6 -7 17 -15 24 -8 7 -15 21 -15 31 0
11 -8 38 -19 62 -10 23 -24 67 -30 97 -7 30 -15 63 -17 72 -5 16 79 90 172
152 31 20 46 40 59 74 9 26 30 74 46 107 27 56 29 67 24 145 -2 47 -5 88 -5
93 0 13 -27 8 -40 -8z"/>
<path d="M1815 2801 c-54 -13 -151 -70 -175 -103 -13 -17 -26 -45 -29 -62 l-7
-31 -74 0 c-41 -1 -100 -7 -130 -14 -58 -14 -212 -84 -229 -105 -8 -10 -47 -5
-183 21 -176 33 -398 67 -403 61 -1 -2 -22 -43 -46 -91 -40 -82 -43 -96 -47
-182 l-4 -93 38 -62 c51 -83 153 -192 212 -226 74 -44 75 -45 52 -105 -11 -28
-34 -70 -49 -93 -37 -53 -157 -166 -177 -166 -41 0 -15 -79 45 -139 46 -46
144 -105 203 -123 24 -7 52 -21 63 -31 11 -10 39 -30 62 -45 24 -15 43 -30 43
-33 0 -11 -50 -29 -80 -29 -16 0 -33 7 -38 16 -16 29 -23 -3 -9 -39 15 -36 70
-87 93 -87 8 0 14 -2 14 -4 0 -2 -27 -31 -59 -64 -67 -69 -111 -137 -114 -178
-2 -21 -10 -30 -32 -37 -42 -13 -58 -28 -46 -40 6 -6 1 -26 -14 -56 -43 -83
-51 -130 -32 -205 26 -106 77 -210 115 -235 41 -27 170 -68 242 -77 30 -3 71
-16 90 -28 19 -12 43 -25 53 -29 9 -3 17 -10 17 -15 0 -15 134 8 154 26 21 20
56 85 56 106 0 20 18 30 33 18 7 -6 45 -20 86 -31 113 -31 175 -18 209 46 10
19 18 21 69 16 48 -4 61 -2 74 13 24 29 39 81 39 140 0 69 41 195 80 244 17
21 37 54 45 73 13 31 13 40 -1 81 -11 31 -21 46 -34 46 -15 0 -16 5 -7 48 13
58 9 52 49 58 60 10 205 62 256 94 76 47 90 75 80 161 l-9 71 76 80 c41 44 75
87 75 96 0 9 -24 54 -54 99 l-53 81 -7 179 c-12 320 -16 344 -56 390 -120 137
-131 152 -266 353 -54 80 -115 169 -137 198 -41 55 -54 59 -122 43z m73 -30
c10 -5 32 -31 50 -58 l33 -48 -40 45 c-46 50 -60 52 -161 22 -67 -19 -81 -31
-111 -88 -33 -60 -46 -56 -15 5 42 82 185 154 244 122z m2 -39 c0 -5 12 -21
28 -38 30 -32 50 -61 141 -207 34 -54 61 -102 61 -108 0 -5 35 -47 78 -93 68
-72 81 -91 100 -152 40 -131 81 -449 63 -497 -11 -28 15 -109 50 -159 l20 -27
-59 -73 c-44 -55 -61 -84 -66 -118 -4 -24 -12 -50 -17 -57 -8 -9 -2 -11 28 -6
28 4 35 3 27 -6 -6 -6 -25 -13 -42 -14 -30 -2 -47 -26 -19 -27 6 -1 26 -7 42
-15 l30 -14 -43 1 c-27 2 -46 -3 -51 -11 -5 -7 -17 -18 -28 -24 -72 -42 -146
-77 -194 -92 -66 -21 -110 -51 -92 -63 16 -10 14 -92 -2 -92 -7 0 -16 7 -19
16 -9 23 -7 64 3 64 4 0 6 12 3 26 -3 19 -8 23 -21 18 -9 -5 -59 -11 -111 -14
l-95 -5 40 -18 c24 -11 56 -17 78 -15 31 3 37 1 34 -12 -3 -8 -11 -36 -18 -62
-20 -71 -40 -66 -160 39 -54 48 -97 89 -95 91 2 2 18 -4 35 -12 48 -25 81 -36
81 -28 0 11 -107 55 -118 48 -5 -3 -19 6 -31 20 -18 21 -30 25 -57 22 -21 -2
-34 0 -34 7 0 7 -19 18 -42 25 -75 22 -102 33 -141 58 l-38 25 -56 -28 c-31
-15 -89 -33 -128 -40 -61 -11 -72 -10 -88 3 -17 15 -17 16 0 25 10 5 28 21 40
35 21 25 23 25 41 9 27 -25 31 -21 25 18 -4 26 -2 35 8 35 8 0 -13 13 -46 29
-33 16 -84 50 -112 76 -59 52 -76 94 -72 179 1 28 -2 52 -7 54 -14 5 -35 -78
-32 -125 2 -24 0 -43 -4 -43 -15 0 -114 69 -141 98 l-29 30 42 43 c52 54 83
106 141 239 l47 105 -54 29 c-95 51 -225 204 -260 306 -14 39 -14 39 26 178
l21 73 102 -7 c56 -3 105 -8 108 -10 4 -2 40 -6 80 -9 41 -3 121 -10 179 -16
71 -6 106 -6 108 1 8 23 122 89 187 110 134 42 398 36 504 -11 73 -32 58 -13
-20 26 -39 20 -101 42 -136 49 l-64 11 30 45 c26 39 39 48 98 67 71 23 113 29
113 15z m-126 -163 c13 -5 -6 -6 -49 -2 -38 3 -79 10 -90 15 -12 5 7 6 49 2
38 -3 79 -10 90 -15z m-823 -84 c99 -19 190 -35 201 -35 11 0 37 10 57 21 l36
22 -35 -32 c-35 -31 -36 -31 -115 -26 -44 3 -147 12 -230 20 -82 9 -168 17
-191 19 -23 1 -46 6 -51 9 -16 10 -53 -85 -70 -179 -15 -82 -15 -82 10 -138
33 -71 26 -73 -9 -3 -47 91 -33 228 33 328 14 21 32 39 41 41 28 6 133 -9 323
-47z m1216 -100 c15 -22 43 -58 62 -79 l36 -40 -50 42 c-32 26 -62 64 -83 104
-33 63 -19 52 35 -27z m198 -317 c3 -44 4 -82 1 -86 -3 -3 -6 3 -6 14 0 20
-23 114 -35 146 -5 13 -2 15 13 11 17 -4 21 -17 27 -85z m-1617 -430 c-13 -23
-45 -65 -71 -94 -46 -51 -48 -54 -32 -77 33 -52 170 -138 194 -123 5 4 7 16 5
29 -3 12 2 6 11 -13 9 -19 30 -50 48 -69 l32 -34 -32 22 c-17 12 -49 28 -70
35 -101 36 -225 133 -238 187 -5 21 0 29 32 52 21 14 60 49 88 77 27 27 51 50
53 50 2 0 -7 -19 -20 -42z m1697 -103 c39 -69 39 -90 2 -121 l-22 -19 20 23
c19 23 19 23 -12 85 -61 122 -52 146 12 32z m-1387 -360 c3 -14 0 -15 -15 -6
-27 16 -53 37 -53 44 0 14 65 -23 68 -38z m-38 -14 c0 -14 -64 -61 -83 -61
-28 0 -19 19 17 34 18 8 37 19 40 25 9 13 26 15 26 2z m356 -154 c33 -9 70
-17 82 -17 14 0 52 -28 100 -73 42 -41 103 -93 135 -116 32 -23 55 -47 51 -52
-4 -7 -14 -3 -28 9 -11 11 -36 27 -55 37 -33 17 -35 17 -48 -1 -18 -24 -26
-76 -20 -121 12 -81 39 -202 63 -283 35 -115 40 -149 23 -133 -21 20 -30 15
-23 -12 5 -22 3 -25 -18 -25 -16 0 -29 9 -38 25 -17 32 -29 32 -22 0 5 -31
-11 -32 -56 -5 -48 30 -96 79 -290 304 -18 21 -36 36 -39 33 -17 -18 151 -255
192 -271 8 -3 15 -10 15 -16 0 -22 -41 2 -83 47 -54 58 -77 69 -168 77 -123
12 -150 21 -185 63 -36 43 -53 39 -34 -8 16 -38 116 -106 169 -114 169 -27
163 -25 213 -77 41 -43 46 -53 41 -81 -7 -38 -21 -51 -80 -73 -44 -17 -44 -17
-111 14 -37 17 -112 42 -167 57 -131 35 -199 68 -223 108 -28 46 -43 128 -41
230 1 79 4 92 30 130 33 49 37 68 9 42 -11 -10 -20 -13 -20 -7 0 16 41 52 52
46 5 -3 14 9 21 28 11 32 12 31 19 -42 7 -84 3 -99 -14 -52 -14 36 -33 44 -23
10 12 -38 105 -168 121 -168 2 0 -7 22 -20 48 -50 98 -59 223 -21 288 38 64
122 134 163 134 43 0 98 29 147 77 l40 39 40 -41 c30 -31 56 -45 101 -58z m33
14 c-15 -5 -95 28 -109 44 -8 9 13 4 54 -13 36 -15 61 -29 55 -31z m-258 30
c-31 -24 -94 -43 -115 -35 -8 3 -23 -1 -31 -10 -24 -24 -36 -19 -23 9 9 20 19
25 52 26 23 0 61 6 86 13 25 8 47 14 50 14 3 1 -6 -7 -19 -17z m456 -123 c38
-35 91 -82 118 -105 28 -22 47 -44 44 -48 -9 -8 -153 102 -214 164 -72 74 -32
65 52 -11z m307 -10 c-33 -110 -48 -148 -56 -140 -13 13 33 162 50 162 9 0 11
-7 6 -22z m0 -110 c-24 -25 -28 -16 -14 28 12 37 13 37 22 15 6 -18 4 -29 -8
-43z m84 10 c17 -17 15 -33 -3 -18 -12 10 -24 7 -62 -16 -35 -20 -44 -22 -33
-9 14 17 69 55 81 55 3 0 10 -5 17 -12z m-8 -58 c0 -26 -9 -55 -26 -81 -14
-23 -27 -39 -28 -37 -2 1 -9 14 -16 27 -11 22 -10 23 6 17 20 -8 34 8 34 42 0
25 0 25 -34 12 -16 -6 -26 -6 -26 0 0 10 69 60 82 60 5 0 8 -18 8 -40z m-307
5 c39 -27 42 -32 28 -53 -6 -10 -10 -10 -21 3 -21 26 -40 18 -40 -17 0 -18 5
-40 10 -48 9 -13 12 -13 24 3 17 23 26 22 26 -4 0 -24 -66 -57 -82 -41 -15 15
-21 124 -9 155 13 33 17 33 64 2z m169 -4 c16 -6 28 -23 36 -50 11 -35 10 -44
-4 -66 -18 -28 -63 -55 -89 -55 -22 0 -75 60 -71 79 8 43 29 73 58 86 40 17
41 17 70 6z m93 -52 c-8 -12 -35 -12 -35 0 0 11 22 20 33 14 4 -2 5 -9 2 -14z
m-255 -23 c0 -8 -4 -18 -10 -21 -5 -3 -10 3 -10 14 0 12 5 21 10 21 6 0 10 -6
10 -14z m225 -53 c-14 -37 -34 -163 -37 -232 -2 -72 -10 -89 -24 -48 -7 20 -9
19 -14 -12 -7 -45 -28 -51 -41 -12 -13 38 -29 40 -29 5 0 -24 -3 -25 -27 -19
-33 8 -39 13 -48 43 -7 23 -8 22 60 27 39 2 103 28 99 39 -3 7 2 31 10 53 11
32 12 51 5 79 -10 33 -8 39 17 65 32 33 39 36 29 12z m-181 -40 c-4 -10 -9
-39 -12 -64 -3 -42 -1 -48 36 -81 l40 -36 -37 -4 c-20 -3 -43 -8 -53 -12 -14
-6 -18 2 -27 51 -6 32 -16 74 -21 93 -9 31 -7 37 13 52 12 10 33 18 46 18 18
0 22 -4 15 -17z m58 -77 c10 -81 20 -85 17 -6 -3 60 -1 65 19 68 13 2 22 -2
23 -10 0 -7 2 -21 4 -30 2 -10 -4 -40 -13 -67 l-16 -50 -28 17 c-19 11 -26 22
-22 34 4 13 1 16 -10 12 -21 -8 -20 5 1 28 9 10 11 18 5 18 -6 0 -14 -5 -17
-10 -14 -22 -23 2 -12 30 19 49 41 34 49 -34z m-345 -252 c13 -22 12 -23 -22
-17 -23 4 -35 2 -35 -6 0 -20 -16 -12 -40 22 -15 19 -17 27 -6 18 20 -17 76
-21 76 -6 0 6 -27 40 -61 75 -33 36 -65 74 -71 85 -6 11 25 -18 68 -64 44 -46
85 -94 91 -107z m-191 105 c17 -10 39 -28 50 -40 18 -21 16 -20 -26 3 -30 17
-74 30 -133 38 -48 7 -89 15 -91 19 -2 3 35 4 82 3 63 -3 96 -9 118 -23z"/>
<path d="M700 2182 c0 -10 16 -37 35 -59 19 -22 32 -43 29 -46 -9 -9 66 -29
87 -24 14 4 23 -3 34 -24 14 -26 14 -31 -1 -54 -18 -27 -9 -35 11 -9 10 15 14
14 47 -3 l36 -20 -29 -17 c-28 -17 -31 -17 -82 8 -54 26 -107 69 -107 87 0 6
-5 7 -12 3 -6 -4 -9 -3 -6 2 6 9 1 20 -53 119 -33 62 -46 43 -14 -21 13 -27
27 -62 30 -79 9 -40 85 -112 150 -141 49 -21 95 -23 95 -3 0 5 6 9 14 9 13 0
26 20 26 40 0 8 -56 74 -96 114 -12 12 -43 27 -69 34 -49 13 -105 59 -105 86
0 9 -4 16 -10 16 -5 0 -10 -8 -10 -18z"/>
<path d="M843 2010 c-18 -11 -33 -22 -33 -25 0 -8 58 23 65 35 9 14 5 13 -32
-10z"/>
<path d="M2096 1818 c1 -62 -4 -153 -10 -203 l-11 -90 -33 69 c-47 100 -65
171 -63 249 3 94 -15 84 -22 -12 -6 -76 -33 -191 -78 -329 -12 -35 -19 -66
-16 -69 9 -8 35 61 72 187 23 81 35 109 40 95 20 -61 61 -159 78 -187 l20 -33
14 40 c30 87 42 395 15 395 -4 0 -7 -51 -6 -112z"/>
<path d="M1810 1704 c0 -74 21 -238 32 -249 7 -7 8 10 4 50 -3 33 -9 102 -12
153 -7 95 -24 128 -24 46z"/>
<path d="M2340 1516 l0 -56 -21 21 c-25 25 -64 21 -108 -12 -18 -14 -38 -20
-51 -16 -48 13 -120 -100 -120 -189 0 -29 36 -104 50 -104 6 0 29 -18 51 -40
44 -42 66 -52 50 -22 -5 9 -12 25 -15 34 -3 10 -21 24 -40 32 -50 21 -79 70
-72 124 6 45 36 111 58 129 18 15 103 24 149 17 36 -6 39 -9 39 -38 0 -60 18
-62 25 -2 4 31 11 59 16 62 12 7 11 101 -1 109 -6 4 -10 -15 -10 -49z"/>
<path d="M1484 1406 c-57 -25 -79 -80 -52 -129 6 -12 13 -41 14 -64 l3 -43
-43 0 c-100 0 -73 -72 31 -83 68 -7 96 -27 38 -27 -30 0 -36 -3 -25 -10 8 -6
31 -8 51 -4 31 5 40 1 71 -30 55 -55 106 -44 123 26 5 17 20 34 42 45 20 10
41 29 48 43 53 101 64 159 42 212 -24 57 -50 69 -127 59 -36 -5 -58 -9 -50
-10 13 -1 13 -2 0 -11 -10 -6 -24 -3 -45 9 -43 27 -85 33 -121 17z m54 -13
c-10 -2 -26 -2 -35 0 -10 3 -2 5 17 5 19 0 27 -2 18 -5z m251 -39 c35 -44 26
-109 -28 -213 -8 -17 -23 -25 -65 -37 -27 -8 -30 -14 -31 -52 -1 -56 -17 -72
-53 -52 -20 12 -28 25 -30 52 -3 30 -8 38 -32 47 -41 14 -68 63 -76 138 -8 82
9 113 64 114 20 0 69 6 107 13 106 21 121 19 144 -10z m-334 -216 c53 -14 59
-28 13 -28 -43 0 -108 18 -108 30 0 14 41 12 95 -2z"/>
<path d="M1645 1340 c-11 -5 -34 -9 -51 -9 -62 -2 -108 -68 -71 -102 7 -7 12
-24 10 -38 -5 -37 6 -48 60 -63 43 -11 51 -10 84 7 20 11 49 33 65 49 25 25
28 35 25 71 -8 70 -29 96 -80 94 -12 0 -31 -4 -42 -9z m74 -36 c21 -27 27 -69
13 -90 -14 -21 -85 -64 -106 -64 -34 0 -58 23 -72 69 -18 61 -3 85 61 98 78
15 82 15 104 -13z"/>
<path d="M2153 1397 c-45 -25 -64 -62 -60 -117 5 -64 27 -90 74 -87 19 2 37 7
41 12 4 6 21 17 37 25 27 14 30 21 33 74 4 77 -14 106 -66 106 -20 -1 -47 -6
-59 -13z m93 -41 c3 -13 4 -38 2 -57 -2 -27 -11 -38 -43 -56 -22 -13 -42 -23
-45 -23 -17 1 -38 30 -44 62 -6 32 -3 41 23 67 39 40 97 44 107 7z"/>
<path d="M1196 1033 c5 -4 38 -49 73 -100 70 -103 198 -232 263 -263 49 -24
43 -17 -60 62 -60 47 -114 107 -210 237 -26 36 -54 66 -62 69 -9 2 -11 0 -4
-5z"/>
<path d="M754 619 c-19 -22 -19 -22 1 -11 11 6 27 16 35 22 13 8 13 10 -1 10
-9 0 -24 -10 -35 -21z"/>
<path d="M1541 321 c-62 -19 -79 -40 -29 -34 50 6 138 36 132 45 -8 12 -42 8
-103 -11z"/>
<path d="M1740 673 c0 -16 49 -53 69 -52 9 0 6 4 -9 10 -14 5 -33 20 -42 32
-10 12 -18 17 -18 10z"/>
<path d="M545 2581 c-9 -16 9 -20 23 -5 10 12 10 14 -2 14 -8 0 -17 -4 -21 -9z"/>
<path d="M423 2404 c-61 -26 -75 -72 -51 -173 14 -62 45 -94 84 -89 l29 4 -35
10 c-47 13 -70 59 -70 141 0 64 3 69 66 110 25 16 17 15 -23 -3z"/>
<path d="M2380 2205 c0 -5 10 -21 21 -35 13 -17 17 -18 10 -5 -17 33 -31 51
-31 40z"/>
<path d="M526 1567 c-11 -8 -17 -19 -15 -24 2 -6 12 0 22 13 20 27 19 30 -7
11z"/>
<path d="M2529 1468 c4 -28 6 -29 9 -9 2 13 0 27 -5 32 -6 6 -7 -3 -4 -23z"/>
<path d="M569 1307 c-15 -23 -33 -60 -40 -82 -9 -26 -39 -65 -86 -112 -40 -40
-73 -81 -73 -92 0 -10 9 -38 19 -62 10 -24 22 -70 26 -101 3 -31 12 -62 20
-68 7 -6 33 -11 57 -10 23 0 65 1 92 1 103 -1 185 83 170 174 -11 65 -40 113
-80 130 -32 13 -41 13 -84 -1 -66 -22 -82 -42 -83 -105 -1 -42 3 -55 22 -70
13 -11 29 -19 36 -19 22 0 47 31 39 49 -3 9 -6 34 -5 56 1 22 0 37 -4 34 -3
-3 -6 -30 -8 -60 -2 -44 -6 -54 -21 -57 -40 -8 -60 64 -33 118 8 17 27 29 61
38 85 24 130 -14 142 -122 11 -103 -51 -150 -196 -148 -94 2 -110 11 -110 64
0 15 -11 57 -24 92 l-25 65 35 45 c18 24 47 54 63 65 16 12 39 42 51 69 56
124 70 139 70 77 0 -54 -35 -114 -107 -182 -52 -48 -64 -65 -58 -80 4 -10 16
-42 26 -71 10 -29 26 -66 36 -82 17 -30 18 -30 83 -24 86 8 110 32 110 110 0
61 -23 95 -62 93 -23 -2 -23 -2 -1 -6 31 -6 43 -25 49 -79 5 -41 2 -54 -16
-76 -19 -25 -28 -28 -84 -28 -70 0 -71 0 -101 95 -9 27 -21 56 -28 63 -9 11 2
27 56 77 74 69 107 128 106 190 -1 72 -11 80 -40 32z"/>
<path d="M2470 1226 c0 -8 -2 -23 -5 -33 -3 -11 -1 -9 6 5 16 30 35 28 47 -5
l10 -28 1 26 c1 14 -4 30 -11 37 -17 17 -48 15 -48 -2z"/>
<path d="M821 1186 c-18 -22 2 -25 22 -4 13 13 14 18 3 18 -7 0 -19 -6 -25
-14z"/>
<path d="M2511 1150 c2 -8 0 -39 -4 -69 -7 -44 -18 -67 -66 -130 -32 -42 -66
-82 -75 -90 -9 -7 -16 -18 -16 -24 0 -12 54 44 90 92 14 19 35 46 46 60 25 31
48 150 32 166 -6 7 -9 5 -7 -5z"/>
<path d="M2433 1088 c-6 -13 -47 -65 -92 -117 -45 -52 -80 -100 -77 -107 3 -7
-1 -18 -9 -24 -10 -9 -6 -27 22 -98 19 -48 38 -100 42 -117 7 -33 35 -43 126
-50 28 -2 85 -9 128 -16 73 -12 78 -12 96 6 24 26 84 202 77 228 -2 10 0 28 7
38 17 28 -2 71 -36 80 -15 4 -50 24 -78 44 -60 43 -106 45 -125 6 -7 -13 -16
-26 -22 -30 -17 -11 -42 -70 -48 -114 -5 -33 -2 -46 11 -57 27 -22 65 -2 81
45 18 53 8 59 -13 7 -12 -33 -21 -42 -40 -42 -20 0 -23 5 -23 40 0 59 63 170
97 170 8 0 44 -18 80 -40 37 -22 73 -40 80 -40 20 0 34 -46 23 -73 -5 -12 -12
-42 -15 -67 -3 -25 -18 -76 -33 -115 -32 -81 -44 -87 -137 -68 -33 7 -77 13
-99 13 -21 0 -55 5 -76 11 -36 11 -39 16 -78 114 -38 96 -39 106 -28 140 7 20
42 71 77 112 69 81 104 131 97 138 -3 3 -9 -5 -15 -17z"/>
<path d="M2211 883 c0 -6 -4 -20 -7 -30 -5 -14 -4 -15 5 -7 7 7 11 20 8 30 -3
11 -5 14 -6 7z"/>
<path d="M2573 859 c10 -6 30 -12 45 -15 36 -6 8 11 -33 20 -24 5 -27 4 -12
-5z"/>
<path d="M2358 795 c37 -55 96 -103 152 -124 30 -12 62 -21 70 -20 13 0 13 1
0 6 -22 8 -81 33 -109 47 -13 6 -49 36 -79 66 -31 32 -46 42 -34 25z"/>
<path d="M2627 778 c-19 -50 -32 -131 -17 -108 5 8 10 23 10 32 0 10 7 38 16
64 20 59 12 69 -9 12z"/>
<path d="M558 733 c12 -2 32 -2 45 0 12 2 2 4 -23 4 -25 0 -35 -2 -22 -4z"/>
<path d="M2280 582 c0 -5 7 -15 15 -22 8 -7 15 -8 15 -2 0 5 -7 15 -15 22 -8
7 -15 8 -15 2z"/>
<path d="M1984 541 c4 -5 32 -21 63 -36 75 -34 142 -90 160 -134 55 -132 -170
-273 -512 -321 -167 -23 -194 -25 -340 -24 -343 2 -672 103 -757 232 -26 39
-23 100 7 144 33 49 32 58 -5 23 -17 -16 -30 -35 -30 -42 0 -7 -4 -13 -8 -13
-5 0 -8 -20 -8 -45 1 -25 5 -45 9 -45 5 0 5 -4 2 -10 -14 -23 165 -162 198
-152 4 1 7 -3 7 -10 0 -6 3 -9 6 -5 3 3 34 -5 68 -18 34 -13 120 -34 191 -46
111 -20 163 -23 360 -23 247 0 391 18 535 66 36 12 68 23 73 24 4 1 8 2 10 4
1 1 11 3 21 5 11 2 32 13 47 24 16 12 33 21 39 21 5 0 10 5 10 10 0 6 6 10 13
10 14 0 72 61 69 73 -1 4 2 7 6 7 11 0 14 21 14 84 -1 45 -5 53 -49 98 -26 26
-53 48 -60 48 -7 0 -13 5 -13 10 0 6 -3 9 -7 8 -5 -1 -23 6 -42 16 -39 21 -85
31 -77 17z"/>
<path d="M2598 503 c12 -2 30 -2 40 0 9 3 -1 5 -23 4 -22 0 -30 -2 -17 -4z"/>
</g>
</svg>
